<ttFont>
    <TTGlyph name=".notdef" xMin="102" yMin="0" xMax="922" yMax="1462">
      <contour>
        <pt x="102" y="0" on="1"/>
        <pt x="102" y="1462" on="1"/>
        <pt x="922" y="1462" on="1"/>
        <pt x="922" y="0" on="1"/>
      </contour>
      <contour>
        <pt x="201" y="98" on="1"/>
        <pt x="823" y="98" on="1"/>
        <pt x="823" y="1364" on="1"/>
        <pt x="201" y="1364" on="1"/>
      </contour>
    </TTGlyph>
    <TTGlyph name="uni10A0" xMin="119" yMin="-20" xMax="1475" yMax="1483">
      <contour>
        <pt x="186" y="668" on="1"/>
        <pt x="186" y="843" on="0"/>
        <pt x="386" y="1166" on="0"/>
        <pt x="561" y="1276" on="1"/>
        <pt x="429" y="1259" on="1"/>
        <pt x="365" y="1251" on="0"/>
        <pt x="322" y="1251" on="1"/>
        <pt x="119" y="1251" on="0"/>
        <pt x="119" y="1372" on="1"/>
        <pt x="119" y="1448" on="0"/>
        <pt x="260" y="1483" on="1"/>
        <pt x="268" y="1430" on="0"/>
        <pt x="342" y="1376" on="0"/>
        <pt x="420" y="1376" on="1"/>
        <pt x="555" y="1376" on="0"/>
        <pt x="788" y="1421" on="1"/>
        <pt x="1092" y="1483" on="0"/>
        <pt x="1237" y="1483" on="1"/>
        <pt x="1438" y="1483" on="0"/>
        <pt x="1438" y="1346" on="1"/>
        <pt x="1438" y="1300" on="0"/>
        <pt x="1362" y="1231" on="0"/>
        <pt x="1298" y="1217" on="1"/>
        <pt x="1287" y="1297" on="0"/>
        <pt x="1211" y="1366" on="0"/>
        <pt x="1139" y="1366" on="1"/>
        <pt x="760" y="1366" on="0"/>
        <pt x="414" y="1027" on="0"/>
        <pt x="414" y="666" on="1"/>
        <pt x="414" y="369" on="0"/>
        <pt x="618" y="90" on="0"/>
        <pt x="831" y="90" on="1"/>
        <pt x="1035" y="90" on="0"/>
        <pt x="1247" y="371" on="0"/>
        <pt x="1247" y="647" on="1"/>
        <pt x="1247" y="844" on="1"/>
        <pt x="1368" y="842" on="0"/>
        <pt x="1475" y="728" on="0"/>
        <pt x="1475" y="612" on="1"/>
        <pt x="1475" y="436" on="0"/>
        <pt x="1314" y="144" on="0"/>
        <pt x="1020" y="-20" on="0"/>
        <pt x="831" y="-20" on="1"/>
        <pt x="521" y="-20" on="0"/>
        <pt x="186" y="336" on="0"/>
      </contour>
    </TTGlyph>
    <TTGlyph name="uni10A1" xMin="43" yMin="0" xMax="1108" yMax="1462">
      <contour>
        <pt x="43" y="1004" on="1"/>
        <pt x="43" y="1146" on="0"/>
        <pt x="143" y="1353" on="0"/>
        <pt x="323" y="1462" on="0"/>
        <pt x="440" y="1462" on="1"/>
        <pt x="440" y="1366" on="1"/>
        <pt x="363" y="1366" on="0"/>
        <pt x="270" y="1188" on="0"/>
        <pt x="270" y="1006" on="1"/>
        <pt x="270" y="639" on="0"/>
        <pt x="565" y="639" on="1"/>
        <pt x="733" y="639" on="0"/>
        <pt x="901" y="804" on="0"/>
        <pt x="901" y="975" on="1"/>
        <pt x="901" y="1237" on="1"/>
        <pt x="901" y="1307" on="0"/>
        <pt x="828" y="1376" on="0"/>
        <pt x="735" y="1376" on="1"/>
        <pt x="727" y="1376" on="1"/>
        <pt x="727" y="1462" on="1"/>
        <pt x="1108" y="1462" on="1"/>
        <pt x="1108" y="0" on="1"/>
        <pt x="901" y="0" on="1"/>
        <pt x="901" y="500" on="1"/>
        <pt x="901" y="554" on="0"/>
        <pt x="909" y="674" on="1"/>
        <pt x="899" y="674" on="1"/>
        <pt x="862" y="607" on="0"/>
        <pt x="673" y="528" on="0"/>
        <pt x="541" y="528" on="1"/>
        <pt x="309" y="528" on="0"/>
        <pt x="43" y="770" on="0"/>
      </contour>
    </TTGlyph>
    <TTGlyph name="uni10A2" xMin="92" yMin="-240" xMax="1479" yMax="1483">
      <contour>
        <pt x="92" y="870" on="1"/>
        <pt x="92" y="999" on="1"/>
        <pt x="92" y="1229" on="0"/>
        <pt x="354" y="1483" on="0"/>
        <pt x="588" y="1483" on="1"/>
        <pt x="824" y="1483" on="0"/>
        <pt x="1067" y="1241" on="0"/>
        <pt x="1067" y="1006" on="1"/>
        <pt x="1067" y="111" on="1"/>
        <pt x="1275" y="111" on="0"/>
        <pt x="1479" y="4" on="0"/>
        <pt x="1479" y="-109" on="1"/>
        <pt x="1479" y="-165" on="0"/>
        <pt x="1386" y="-240" on="0"/>
        <pt x="1319" y="-240" on="1"/>
        <pt x="1319" y="-116" on="0"/>
        <pt x="1201" y="0" on="0"/>
        <pt x="1067" y="0" on="1"/>
        <pt x="860" y="0" on="1"/>
        <pt x="860" y="1012" on="1"/>
        <pt x="860" y="1189" on="0"/>
        <pt x="718" y="1372" on="0"/>
        <pt x="580" y="1372" on="1"/>
        <pt x="431" y="1372" on="0"/>
        <pt x="299" y="1186" on="0"/>
        <pt x="299" y="989" on="1"/>
        <pt x="299" y="870" on="1"/>
      </contour>
    </TTGlyph>
    <TTGlyph name="uni10A3" xMin="115" yMin="-20" xMax="1403" yMax="1483">
      <contour>
        <pt x="1098" y="1360" on="1"/>
        <pt x="1009" y="1360" on="0"/>
        <pt x="856" y="1329" on="1"/>
        <pt x="856" y="1147" on="1"/>
        <pt x="1113" y="1123" on="0"/>
        <pt x="1403" y="821" on="0"/>
        <pt x="1403" y="573" on="1"/>
        <pt x="1403" y="299" on="0"/>
        <pt x="1063" y="-20" on="0"/>
        <pt x="760" y="-20" on="1"/>
        <pt x="451" y="-20" on="0"/>
        <pt x="115" y="289" on="0"/>
        <pt x="115" y="575" on="1"/>
        <pt x="115" y="828" on="0"/>
        <pt x="399" y="1124" on="0"/>
        <pt x="662" y="1147" on="1"/>
        <pt x="662" y="1290" on="1"/>
        <pt x="438" y="1251" on="0"/>
        <pt x="322" y="1251" on="1"/>
        <pt x="119" y="1251" on="0"/>
        <pt x="119" y="1372" on="1"/>
        <pt x="119" y="1448" on="0"/>
        <pt x="260" y="1483" on="1"/>
        <pt x="268" y="1430" on="0"/>
        <pt x="342" y="1376" on="0"/>
        <pt x="420" y="1376" on="1"/>
        <pt x="523" y="1376" on="0"/>
        <pt x="748" y="1421" on="1"/>
        <pt x="1052" y="1483" on="0"/>
        <pt x="1196" y="1483" on="1"/>
        <pt x="1397" y="1483" on="0"/>
        <pt x="1397" y="1346" on="1"/>
        <pt x="1397" y="1300" on="0"/>
        <pt x="1321" y="1231" on="0"/>
        <pt x="1257" y="1217" on="1"/>
        <pt x="1246" y="1295" on="0"/>
        <pt x="1171" y="1360" on="0"/>
      </contour>
      <contour>
        <pt x="342" y="573" on="1"/>
        <pt x="342" y="325" on="0"/>
        <pt x="548" y="90" on="0"/>
        <pt x="760" y="90" on="1"/>
        <pt x="972" y="90" on="0"/>
        <pt x="1176" y="324" on="0"/>
        <pt x="1176" y="573" on="1"/>
        <pt x="1176" y="823" on="0"/>
        <pt x="971" y="1055" on="0"/>
        <pt x="762" y="1055" on="1"/>
        <pt x="550" y="1055" on="0"/>
        <pt x="342" y="822" on="0"/>
      </contour>
    </TTGlyph>
    <TTGlyph name="uni10A4" xMin="92" yMin="0" xMax="1067" yMax="1483">
      <contour>
        <pt x="92" y="999" on="1"/>
        <pt x="92" y="1229" on="0"/>
        <pt x="351" y="1483" on="0"/>
        <pt x="588" y="1483" on="1"/>
        <pt x="824" y="1483" on="0"/>
        <pt x="1067" y="1241" on="0"/>
        <pt x="1067" y="1006" on="1"/>
        <pt x="1067" y="0" on="1"/>
        <pt x="860" y="0" on="1"/>
        <pt x="860" y="1012" on="1"/>
        <pt x="860" y="1189" on="0"/>
        <pt x="718" y="1372" on="0"/>
        <pt x="580" y="1372" on="1"/>
        <pt x="431" y="1372" on="0"/>
        <pt x="299" y="1186" on="0"/>
        <pt x="299" y="987" on="1"/>
        <pt x="299" y="870" on="1"/>
        <pt x="92" y="870" on="1"/>
      </contour>
    </TTGlyph>
    <TTGlyph name="uni10A5" xMin="92" yMin="0" xMax="1479" yMax="1483">
      <contour>
        <pt x="1067" y="0" on="1"/>
        <pt x="860" y="0" on="1"/>
        <pt x="860" y="1012" on="1"/>
        <pt x="860" y="1189" on="0"/>
        <pt x="718" y="1372" on="0"/>
        <pt x="580" y="1372" on="1"/>
        <pt x="431" y="1372" on="0"/>
        <pt x="299" y="1186" on="0"/>
        <pt x="299" y="987" on="1"/>
        <pt x="299" y="870" on="1"/>
        <pt x="92" y="870" on="1"/>
        <pt x="92" y="999" on="1"/>
        <pt x="92" y="1229" on="0"/>
        <pt x="351" y="1483" on="0"/>
        <pt x="588" y="1483" on="1"/>
        <pt x="824" y="1483" on="0"/>
        <pt x="1067" y="1241" on="0"/>
        <pt x="1067" y="1006" on="1"/>
        <pt x="1067" y="838" on="1"/>
        <pt x="1081" y="838" on="1"/>
        <pt x="1284" y="838" on="0"/>
        <pt x="1479" y="715" on="0"/>
        <pt x="1479" y="586" on="1"/>
        <pt x="1479" y="518" on="0"/>
        <pt x="1393" y="444" on="0"/>
        <pt x="1319" y="444" on="1"/>
        <pt x="1319" y="591" on="0"/>
        <pt x="1209" y="727" on="0"/>
        <pt x="1083" y="727" on="1"/>
        <pt x="1067" y="727" on="1"/>
      </contour>
    </TTGlyph>
    <TTGlyph name="uni10A6" xMin="41" yMin="-20" xMax="1378" yMax="1462">
      <contour>
        <pt x="592" y="551" on="1"/>
        <pt x="592" y="308" on="0"/>
        <pt x="728" y="86" on="0"/>
        <pt x="872" y="86" on="1"/>
        <pt x="1017" y="86" on="0"/>
        <pt x="1151" y="310" on="0"/>
        <pt x="1151" y="551" on="1"/>
        <pt x="1151" y="792" on="0"/>
        <pt x="1017" y="1012" on="0"/>
        <pt x="870" y="1012" on="1"/>
        <pt x="732" y="1012" on="0"/>
        <pt x="592" y="771" on="0"/>
      </contour>
      <contour>
        <pt x="41" y="1462" on="1"/>
        <pt x="592" y="1462" on="1"/>
        <pt x="592" y="1157" on="1"/>
        <pt x="592" y="1099" on="0"/>
        <pt x="584" y="983" on="1"/>
        <pt x="594" y="983" on="1"/>
        <pt x="638" y="1044" on="0"/>
        <pt x="785" y="1118" on="0"/>
        <pt x="874" y="1118" on="1"/>
        <pt x="1111" y="1118" on="0"/>
        <pt x="1378" y="821" on="0"/>
        <pt x="1378" y="551" on="1"/>
        <pt x="1378" y="281" on="0"/>
        <pt x="1103" y="-20" on="0"/>
        <pt x="868" y="-20" on="1"/>
        <pt x="645" y="-20" on="0"/>
        <pt x="385" y="285" on="0"/>
        <pt x="385" y="551" on="1"/>
        <pt x="385" y="1352" on="1"/>
        <pt x="41" y="1352" on="1"/>
      </contour>
    </TTGlyph>
    <TTGlyph name="uni10A7" xMin="117" yMin="0" xMax="1628" yMax="1462">
      <contour>
        <pt x="784" y="0" on="1"/>
        <pt x="466" y="0" on="0"/>
        <pt x="117" y="382" on="0"/>
        <pt x="117" y="729" on="1"/>
        <pt x="117" y="1080" on="0"/>
        <pt x="464" y="1462" on="0"/>
        <pt x="784" y="1462" on="1"/>
        <pt x="1217" y="1462" on="1"/>
        <pt x="1217" y="838" on="1"/>
        <pt x="1231" y="838" on="1"/>
        <pt x="1433" y="838" on="0"/>
        <pt x="1628" y="715" on="0"/>
        <pt x="1628" y="586" on="1"/>
        <pt x="1628" y="518" on="0"/>
        <pt x="1542" y="444" on="0"/>
        <pt x="1468" y="444" on="1"/>
        <pt x="1468" y="591" on="0"/>
        <pt x="1358" y="727" on="0"/>
        <pt x="1233" y="727" on="1"/>
        <pt x="1217" y="727" on="1"/>
        <pt x="1217" y="0" on="1"/>
      </contour>
      <contour>
        <pt x="831" y="1358" on="1"/>
        <pt x="589" y="1358" on="0"/>
        <pt x="344" y="1038" on="0"/>
        <pt x="344" y="729" on="1"/>
        <pt x="344" y="425" on="0"/>
        <pt x="587" y="102" on="0"/>
        <pt x="829" y="102" on="1"/>
        <pt x="1010" y="102" on="1"/>
        <pt x="1010" y="1358" on="1"/>
      </contour>
    </TTGlyph>
    <TTGlyph name="uni10A8" xMin="41" yMin="0" xMax="778" yMax="1462">
      <contour>
        <pt x="41" y="1462" on="1"/>
        <pt x="778" y="1462" on="1"/>
        <pt x="778" y="0" on="1"/>
        <pt x="571" y="0" on="1"/>
        <pt x="571" y="1352" on="1"/>
        <pt x="41" y="1352" on="1"/>
      </contour>
    </TTGlyph>
    <TTGlyph name="uni10A9" xMin="41" yMin="-492" xMax="1178" yMax="1462">
      <contour>
        <pt x="971" y="594" on="1"/>
        <pt x="971" y="796" on="0"/>
        <pt x="817" y="1012" on="0"/>
        <pt x="670" y="1012" on="1"/>
        <pt x="391" y="1012" on="0"/>
        <pt x="391" y="522" on="1"/>
        <pt x="391" y="312" on="0"/>
        <pt x="535" y="86" on="0"/>
        <pt x="668" y="86" on="1"/>
        <pt x="825" y="86" on="0"/>
        <pt x="971" y="339" on="0"/>
      </contour>
      <contour>
        <pt x="184" y="1237" on="1"/>
        <pt x="184" y="1297" on="0"/>
        <pt x="124" y="1376" on="0"/>
        <pt x="57" y="1376" on="1"/>
        <pt x="41" y="1376" on="1"/>
        <pt x="41" y="1462" on="1"/>
        <pt x="391" y="1462" on="1"/>
        <pt x="391" y="1157" on="1"/>
        <pt x="391" y="1099" on="0"/>
        <pt x="383" y="983" on="1"/>
        <pt x="393" y="983" on="1"/>
        <pt x="440" y="1048" on="0"/>
        <pt x="602" y="1118" on="0"/>
        <pt x="711" y="1118" on="1"/>
        <pt x="851" y="1118" on="0"/>
        <pt x="1062" y="996" on="0"/>
        <pt x="1178" y="763" on="0"/>
        <pt x="1178" y="602" on="1"/>
        <pt x="1178" y="-492" on="1"/>
        <pt x="971" y="-492" on="1"/>
        <pt x="971" y="-59" on="1"/>
        <pt x="971" y="-5" on="0"/>
        <pt x="979" y="115" on="1"/>
        <pt x="969" y="115" on="1"/>
        <pt x="873" y="-20" on="0"/>
        <pt x="637" y="-20" on="1"/>
        <pt x="506" y="-20" on="0"/>
        <pt x="298" y="113" on="0"/>
        <pt x="184" y="360" on="0"/>
        <pt x="184" y="522" on="1"/>
      </contour>
    </TTGlyph>
    <TTGlyph name="uni10AA" xMin="41" yMin="-20" xMax="1503" yMax="1462">
      <contour>
        <pt x="717" y="551" on="1"/>
        <pt x="717" y="310" on="0"/>
        <pt x="851" y="90" on="0"/>
        <pt x="997" y="90" on="1"/>
        <pt x="1143" y="90" on="0"/>
        <pt x="1276" y="310" on="0"/>
        <pt x="1276" y="551" on="1"/>
        <pt x="1276" y="792" on="0"/>
        <pt x="1142" y="1008" on="0"/>
        <pt x="995" y="1008" on="1"/>
        <pt x="857" y="1008" on="0"/>
        <pt x="717" y="771" on="0"/>
      </contour>
      <contour>
        <pt x="717" y="1462" on="1"/>
        <pt x="717" y="1157" on="1"/>
        <pt x="717" y="1099" on="0"/>
        <pt x="709" y="983" on="1"/>
        <pt x="719" y="983" on="1"/>
        <pt x="763" y="1044" on="0"/>
        <pt x="910" y="1118" on="0"/>
        <pt x="999" y="1118" on="1"/>
        <pt x="1236" y="1118" on="0"/>
        <pt x="1503" y="821" on="0"/>
        <pt x="1503" y="551" on="1"/>
        <pt x="1503" y="281" on="0"/>
        <pt x="1228" y="-20" on="0"/>
        <pt x="993" y="-20" on="1"/>
        <pt x="770" y="-20" on="0"/>
        <pt x="510" y="285" on="0"/>
        <pt x="510" y="551" on="1"/>
        <pt x="510" y="1352" on="1"/>
        <pt x="451" y="1352" on="1"/>
        <pt x="300" y="1352" on="0"/>
        <pt x="135" y="1128" on="0"/>
        <pt x="135" y="901" on="1"/>
        <pt x="41" y="901" on="1"/>
        <pt x="41" y="1462" on="1"/>
      </contour>
    </TTGlyph>
    <TTGlyph name="uni10AB" xMin="78" yMin="-20" xMax="1479" yMax="1462">
      <contour>
        <pt x="580" y="90" on="1"/>
        <pt x="860" y="90" on="0"/>
        <pt x="860" y="461" on="1"/>
        <pt x="860" y="799" on="1"/>
        <pt x="631" y="799" on="1"/>
        <pt x="456" y="799" on="0"/>
        <pt x="299" y="624" on="0"/>
        <pt x="299" y="438" on="1"/>
        <pt x="299" y="264" on="0"/>
        <pt x="437" y="90" on="0"/>
      </contour>
      <contour>
        <pt x="260" y="1462" on="1"/>
        <pt x="1067" y="1462" on="1"/>
        <pt x="1067" y="909" on="1"/>
        <pt x="1081" y="909" on="1"/>
        <pt x="1282" y="909" on="0"/>
        <pt x="1479" y="788" on="0"/>
        <pt x="1479" y="657" on="1"/>
        <pt x="1479" y="589" on="0"/>
        <pt x="1392" y="516" on="0"/>
        <pt x="1319" y="516" on="1"/>
        <pt x="1319" y="663" on="0"/>
        <pt x="1209" y="799" on="0"/>
        <pt x="1083" y="799" on="1"/>
        <pt x="1067" y="799" on="1"/>
        <pt x="1067" y="461" on="1"/>
        <pt x="1067" y="-20" on="0"/>
        <pt x="588" y="-20" on="1"/>
        <pt x="343" y="-20" on="0"/>
        <pt x="78" y="223" on="0"/>
        <pt x="78" y="451" on="1"/>
        <pt x="78" y="693" on="0"/>
        <pt x="336" y="909" on="0"/>
        <pt x="631" y="909" on="1"/>
        <pt x="860" y="909" on="1"/>
        <pt x="860" y="1352" on="1"/>
        <pt x="260" y="1352" on="1"/>
      </contour>
    </TTGlyph>
    <TTGlyph name="uni10AC" xMin="31" yMin="0" xMax="1116" yMax="1462">
      <contour>
        <pt x="1065" y="1352" on="1"/>
        <pt x="432" y="1352" on="1"/>
        <pt x="432" y="1004" on="1"/>
        <pt x="432" y="945" on="0"/>
        <pt x="424" y="829" on="1"/>
        <pt x="434" y="829" on="1"/>
        <pt x="464" y="896" on="0"/>
        <pt x="620" y="975" on="0"/>
        <pt x="727" y="975" on="1"/>
        <pt x="911" y="975" on="0"/>
        <pt x="1116" y="746" on="0"/>
        <pt x="1116" y="535" on="1"/>
        <pt x="1116" y="0" on="1"/>
        <pt x="909" y="0" on="1"/>
        <pt x="909" y="535" on="1"/>
        <pt x="909" y="698" on="0"/>
        <pt x="807" y="852" on="0"/>
        <pt x="686" y="852" on="1"/>
        <pt x="560" y="852" on="0"/>
        <pt x="432" y="701" on="0"/>
        <pt x="432" y="535" on="1"/>
        <pt x="432" y="0" on="1"/>
        <pt x="225" y="0" on="1"/>
        <pt x="225" y="1229" on="1"/>
        <pt x="225" y="1306" on="0"/>
        <pt x="150" y="1376" on="0"/>
        <pt x="57" y="1376" on="1"/>
        <pt x="31" y="1376" on="1"/>
        <pt x="31" y="1462" on="1"/>
        <pt x="1065" y="1462" on="1"/>
      </contour>
    </TTGlyph>
    <TTGlyph name="uni10AD" xMin="115" yMin="-356" xMax="1419" yMax="1485">
      <contour>
        <pt x="1403" y="733" on="1"/>
        <pt x="1403" y="544" on="0"/>
        <pt x="1286" y="232" on="0"/>
        <pt x="1169" y="117" on="1"/>
        <pt x="1142" y="91" on="0"/>
        <pt x="1098" y="-7" on="0"/>
        <pt x="1098" y="-72" on="1"/>
        <pt x="1098" y="-151" on="0"/>
        <pt x="1169" y="-233" on="0"/>
        <pt x="1233" y="-233" on="1"/>
        <pt x="1323" y="-233" on="0"/>
        <pt x="1378" y="-152" on="1"/>
        <pt x="1397" y="-160" on="0"/>
        <pt x="1419" y="-207" on="0"/>
        <pt x="1419" y="-233" on="1"/>
        <pt x="1419" y="-289" on="0"/>
        <pt x="1296" y="-356" on="0"/>
        <pt x="1196" y="-356" on="1"/>
        <pt x="1063" y="-356" on="0"/>
        <pt x="915" y="-233" on="0"/>
        <pt x="915" y="-127" on="1"/>
        <pt x="915" y="-58" on="0"/>
        <pt x="944" y="2" on="1"/>
        <pt x="858" y="-20" on="0"/>
        <pt x="760" y="-20" on="1"/>
        <pt x="451" y="-20" on="0"/>
        <pt x="115" y="373" on="0"/>
        <pt x="115" y="735" on="1"/>
        <pt x="115" y="1092" on="0"/>
        <pt x="449" y="1485" on="0"/>
        <pt x="762" y="1485" on="1"/>
        <pt x="1061" y="1485" on="0"/>
        <pt x="1403" y="1086" on="0"/>
      </contour>
      <contour>
        <pt x="342" y="733" on="1"/>
        <pt x="342" y="403" on="0"/>
        <pt x="549" y="90" on="0"/>
        <pt x="760" y="90" on="1"/>
        <pt x="971" y="90" on="0"/>
        <pt x="1176" y="401" on="0"/>
        <pt x="1176" y="733" on="1"/>
        <pt x="1176" y="1065" on="0"/>
        <pt x="972" y="1374" on="0"/>
        <pt x="762" y="1374" on="1"/>
        <pt x="550" y="1374" on="0"/>
        <pt x="342" y="1066" on="0"/>
      </contour>
    </TTGlyph>
    <TTGlyph name="uni10AE" xMin="41" yMin="-20" xMax="1442" yMax="1462">
      <contour>
        <pt x="41" y="1462" on="1"/>
        <pt x="592" y="1462" on="1"/>
        <pt x="592" y="430" on="1"/>
        <pt x="592" y="269" on="0"/>
        <pt x="755" y="102" on="0"/>
        <pt x="913" y="102" on="1"/>
        <pt x="1066" y="102" on="0"/>
        <pt x="1235" y="271" on="0"/>
        <pt x="1235" y="422" on="1"/>
        <pt x="1235" y="1237" on="1"/>
        <pt x="1235" y="1287" on="0"/>
        <pt x="1200" y="1348" on="0"/>
        <pt x="1133" y="1376" on="0"/>
        <pt x="1067" y="1376" on="1"/>
        <pt x="1040" y="1376" on="1"/>
        <pt x="1040" y="1462" on="1"/>
        <pt x="1442" y="1462" on="1"/>
        <pt x="1442" y="418" on="1"/>
        <pt x="1442" y="208" on="0"/>
        <pt x="1171" y="-20" on="0"/>
        <pt x="922" y="-20" on="1"/>
        <pt x="651" y="-20" on="0"/>
        <pt x="385" y="208" on="0"/>
        <pt x="385" y="442" on="1"/>
        <pt x="385" y="1352" on="1"/>
        <pt x="41" y="1352" on="1"/>
      </contour>
    </TTGlyph>
    <TTGlyph name="uni10AF" xMin="41" yMin="0" xMax="1303" yMax="1462">
      <contour>
        <pt x="41" y="1462" on="1"/>
        <pt x="635" y="1462" on="1"/>
        <pt x="635" y="1376" on="1"/>
        <pt x="557" y="1376" on="0"/>
        <pt x="465" y="1185" on="0"/>
        <pt x="465" y="1001" on="1"/>
        <pt x="465" y="639" on="0"/>
        <pt x="760" y="639" on="1"/>
        <pt x="928" y="639" on="0"/>
        <pt x="1096" y="804" on="0"/>
        <pt x="1096" y="975" on="1"/>
        <pt x="1096" y="1237" on="1"/>
        <pt x="1096" y="1307" on="0"/>
        <pt x="1023" y="1376" on="0"/>
        <pt x="930" y="1376" on="1"/>
        <pt x="922" y="1376" on="1"/>
        <pt x="922" y="1462" on="1"/>
        <pt x="1303" y="1462" on="1"/>
        <pt x="1303" y="0" on="1"/>
        <pt x="1096" y="0" on="1"/>
        <pt x="1096" y="500" on="1"/>
        <pt x="1096" y="554" on="0"/>
        <pt x="1104" y="674" on="1"/>
        <pt x="1094" y="674" on="1"/>
        <pt x="986" y="528" on="0"/>
        <pt x="735" y="528" on="1"/>
        <pt x="499" y="528" on="0"/>
        <pt x="238" y="769" on="0"/>
        <pt x="238" y="999" on="1"/>
        <pt x="238" y="1222" on="0"/>
        <pt x="381" y="1352" on="1"/>
        <pt x="41" y="1352" on="1"/>
      </contour>
    </TTGlyph>
    <TTGlyph name="uni10B0" xMin="92" yMin="-20" xMax="1479" yMax="1462">
      <contour>
        <pt x="92" y="651" on="1"/>
        <pt x="299" y="651" on="1"/>
        <pt x="299" y="475" on="1"/>
        <pt x="299" y="273" on="0"/>
        <pt x="433" y="90" on="0"/>
        <pt x="580" y="90" on="1"/>
        <pt x="722" y="90" on="0"/>
        <pt x="860" y="280" on="0"/>
        <pt x="860" y="451" on="1"/>
        <pt x="860" y="1462" on="1"/>
        <pt x="1067" y="1462" on="1"/>
        <pt x="1067" y="838" on="1"/>
        <pt x="1081" y="838" on="1"/>
        <pt x="1284" y="838" on="0"/>
        <pt x="1479" y="715" on="0"/>
        <pt x="1479" y="586" on="1"/>
        <pt x="1479" y="518" on="0"/>
        <pt x="1393" y="444" on="0"/>
        <pt x="1319" y="444" on="1"/>
        <pt x="1319" y="591" on="0"/>
        <pt x="1209" y="727" on="0"/>
        <pt x="1083" y="727" on="1"/>
        <pt x="1067" y="727" on="1"/>
        <pt x="1067" y="457" on="1"/>
        <pt x="1067" y="222" on="0"/>
        <pt x="824" y="-20" on="0"/>
        <pt x="588" y="-20" on="1"/>
        <pt x="353" y="-20" on="0"/>
        <pt x="92" y="232" on="0"/>
        <pt x="92" y="463" on="1"/>
      </contour>
    </TTGlyph>
    <TTGlyph name="uni10B1" xMin="31" yMin="-20" xMax="1200" yMax="1462">
      <contour>
        <pt x="1200" y="463" on="1"/>
        <pt x="1200" y="233" on="0"/>
        <pt x="941" y="-20" on="0"/>
        <pt x="705" y="-20" on="1"/>
        <pt x="461" y="-20" on="0"/>
        <pt x="225" y="231" on="0"/>
        <pt x="225" y="489" on="1"/>
        <pt x="225" y="1237" on="1"/>
        <pt x="225" y="1287" on="0"/>
        <pt x="190" y="1348" on="0"/>
        <pt x="123" y="1376" on="0"/>
        <pt x="57" y="1376" on="1"/>
        <pt x="31" y="1376" on="1"/>
        <pt x="31" y="1462" on="1"/>
        <pt x="432" y="1462" on="1"/>
        <pt x="432" y="475" on="1"/>
        <pt x="432" y="282" on="0"/>
        <pt x="569" y="90" on="0"/>
        <pt x="713" y="90" on="1"/>
        <pt x="861" y="90" on="0"/>
        <pt x="993" y="274" on="0"/>
        <pt x="993" y="475" on="1"/>
        <pt x="993" y="651" on="1"/>
        <pt x="1200" y="651" on="1"/>
      </contour>
    </TTGlyph>
    <TTGlyph name="uni10B2" xMin="31" yMin="-195" xMax="1110" yMax="1462">
      <contour>
        <pt x="432" y="666" on="1"/>
        <pt x="541" y="666" on="1"/>
        <pt x="730" y="666" on="0"/>
        <pt x="889" y="834" on="0"/>
        <pt x="889" y="1026" on="1"/>
        <pt x="889" y="1206" on="0"/>
        <pt x="738" y="1364" on="0"/>
        <pt x="571" y="1364" on="1"/>
        <pt x="432" y="1364" on="1"/>
      </contour>
      <contour>
        <pt x="788" y="111" on="1"/>
        <pt x="1077" y="111" on="0"/>
        <pt x="1077" y="-70" on="1"/>
        <pt x="1077" y="-130" on="0"/>
        <pt x="995" y="-195" on="0"/>
        <pt x="918" y="-195" on="1"/>
        <pt x="918" y="-114" on="0"/>
        <pt x="874" y="-35" on="0"/>
        <pt x="773" y="0" on="0"/>
        <pt x="678" y="0" on="1"/>
        <pt x="225" y="0" on="1"/>
        <pt x="225" y="1237" on="1"/>
        <pt x="225" y="1287" on="0"/>
        <pt x="190" y="1348" on="0"/>
        <pt x="123" y="1376" on="0"/>
        <pt x="57" y="1376" on="1"/>
        <pt x="31" y="1376" on="1"/>
        <pt x="31" y="1462" on="1"/>
        <pt x="606" y="1462" on="1"/>
        <pt x="854" y="1462" on="0"/>
        <pt x="1110" y="1242" on="0"/>
        <pt x="1110" y="1034" on="1"/>
        <pt x="1110" y="812" on="0"/>
        <pt x="823" y="569" on="0"/>
        <pt x="561" y="569" on="1"/>
        <pt x="432" y="569" on="1"/>
        <pt x="432" y="111" on="1"/>
      </contour>
    </TTGlyph>
    <TTGlyph name="uni10B3" xMin="115" yMin="-356" xMax="1460" yMax="1485">
      <contour>
        <pt x="1403" y="733" on="1"/>
        <pt x="1403" y="392" on="0"/>
        <pt x="1239" y="188" on="1"/>
        <pt x="1347" y="162" on="0"/>
        <pt x="1460" y="17" on="0"/>
        <pt x="1460" y="-82" on="1"/>
        <pt x="1460" y="-157" on="0"/>
        <pt x="1385" y="-284" on="0"/>
        <pt x="1247" y="-356" on="0"/>
        <pt x="1161" y="-356" on="1"/>
        <pt x="1071" y="-356" on="0"/>
        <pt x="956" y="-286" on="0"/>
        <pt x="956" y="-233" on="1"/>
        <pt x="956" y="-207" on="0"/>
        <pt x="979" y="-160" on="0"/>
        <pt x="997" y="-152" on="1"/>
        <pt x="1052" y="-233" on="0"/>
        <pt x="1143" y="-233" on="1"/>
        <pt x="1205" y="-233" on="0"/>
        <pt x="1274" y="-159" on="0"/>
        <pt x="1274" y="-94" on="1"/>
        <pt x="1274" y="-17" on="0"/>
        <pt x="1205" y="83" on="0"/>
        <pt x="1145" y="98" on="1"/>
        <pt x="992" y="-20" on="0"/>
        <pt x="760" y="-20" on="1"/>
        <pt x="451" y="-20" on="0"/>
        <pt x="115" y="373" on="0"/>
        <pt x="115" y="735" on="1"/>
        <pt x="115" y="1092" on="0"/>
        <pt x="449" y="1485" on="0"/>
        <pt x="762" y="1485" on="1"/>
        <pt x="1061" y="1485" on="0"/>
        <pt x="1403" y="1086" on="0"/>
      </contour>
      <contour>
        <pt x="342" y="733" on="1"/>
        <pt x="342" y="403" on="0"/>
        <pt x="549" y="90" on="0"/>
        <pt x="760" y="90" on="1"/>
        <pt x="971" y="90" on="0"/>
        <pt x="1176" y="401" on="0"/>
        <pt x="1176" y="733" on="1"/>
        <pt x="1176" y="1065" on="0"/>
        <pt x="972" y="1374" on="0"/>
        <pt x="762" y="1374" on="1"/>
        <pt x="550" y="1374" on="0"/>
        <pt x="342" y="1066" on="0"/>
      </contour>
    </TTGlyph>
    <TTGlyph name="uni10B4" xMin="115" yMin="0" xMax="1505" yMax="1483">
      <contour>
        <pt x="1505" y="946" on="1"/>
        <pt x="1505" y="709" on="0"/>
        <pt x="1187" y="419" on="0"/>
        <pt x="899" y="397" on="1"/>
        <pt x="899" y="0" on="1"/>
        <pt x="702" y="0" on="1"/>
        <pt x="702" y="397" on="1"/>
        <pt x="418" y="420" on="0"/>
        <pt x="115" y="708" on="0"/>
        <pt x="115" y="948" on="1"/>
        <pt x="115" y="1206" on="0"/>
        <pt x="475" y="1483" on="0"/>
        <pt x="813" y="1483" on="1"/>
        <pt x="1139" y="1483" on="0"/>
        <pt x="1505" y="1199" on="0"/>
      </contour>
      <contour>
        <pt x="1278" y="946" on="1"/>
        <pt x="1278" y="1149" on="0"/>
        <pt x="1088" y="1357" on="0"/>
        <pt x="899" y="1372" on="1"/>
        <pt x="899" y="510" on="1"/>
        <pt x="1090" y="529" on="0"/>
        <pt x="1278" y="741" on="0"/>
      </contour>
      <contour>
        <pt x="342" y="946" on="1"/>
        <pt x="342" y="547" on="0"/>
        <pt x="702" y="510" on="1"/>
        <pt x="702" y="1372" on="1"/>
        <pt x="342" y="1346" on="0"/>
      </contour>
    </TTGlyph>
    <TTGlyph name="uni10B5" xMin="41" yMin="0" xMax="1245" yMax="1462">
      <contour>
        <pt x="522" y="1237" on="1"/>
        <pt x="522" y="1297" on="0"/>
        <pt x="462" y="1376" on="0"/>
        <pt x="395" y="1376" on="1"/>
        <pt x="379" y="1376" on="1"/>
        <pt x="379" y="1462" on="1"/>
        <pt x="729" y="1462" on="1"/>
        <pt x="729" y="924" on="1"/>
        <pt x="958" y="969" on="0"/>
        <pt x="1044" y="969" on="1"/>
        <pt x="1245" y="969" on="0"/>
        <pt x="1245" y="801" on="1"/>
        <pt x="1245" y="745" on="0"/>
        <pt x="1172" y="661" on="0"/>
        <pt x="1106" y="641" on="1"/>
        <pt x="1095" y="751" on="0"/>
        <pt x="1021" y="846" on="0"/>
        <pt x="946" y="846" on="1"/>
        <pt x="858" y="846" on="0"/>
        <pt x="729" y="821" on="1"/>
        <pt x="729" y="0" on="1"/>
        <pt x="522" y="0" on="1"/>
        <pt x="522" y="780" on="1"/>
        <pt x="330" y="737" on="0"/>
        <pt x="244" y="737" on="1"/>
        <pt x="41" y="737" on="0"/>
        <pt x="41" y="881" on="1"/>
        <pt x="41" y="926" on="0"/>
        <pt x="117" y="996" on="0"/>
        <pt x="182" y="1012" on="1"/>
        <pt x="194" y="930" on="0"/>
        <pt x="270" y="862" on="0"/>
        <pt x="342" y="862" on="1"/>
        <pt x="421" y="862" on="0"/>
        <pt x="522" y="881" on="1"/>
      </contour>
    </TTGlyph>
    <TTGlyph name="uni10B6" xMin="205" yMin="0" xMax="1262" yMax="1483">
      <contour>
        <pt x="1055" y="0" on="1"/>
        <pt x="1055" y="1040" on="1"/>
        <pt x="1055" y="1194" on="0"/>
        <pt x="884" y="1372" on="0"/>
        <pt x="733" y="1372" on="1"/>
        <pt x="578" y="1372" on="0"/>
        <pt x="412" y="1195" on="0"/>
        <pt x="412" y="1032" on="1"/>
        <pt x="412" y="0" on="1"/>
        <pt x="205" y="0" on="1"/>
        <pt x="205" y="1020" on="1"/>
        <pt x="205" y="1253" on="0"/>
        <pt x="469" y="1483" on="0"/>
        <pt x="741" y="1483" on="1"/>
        <pt x="991" y="1483" on="0"/>
        <pt x="1262" y="1253" on="0"/>
        <pt x="1262" y="1044" on="1"/>
        <pt x="1262" y="0" on="1"/>
      </contour>
    </TTGlyph>
    <TTGlyph name="uni10B7" xMin="41" yMin="0" xMax="1159" yMax="1462">
      <contour>
        <pt x="391" y="928" on="1"/>
        <pt x="391" y="761" on="0"/>
        <pt x="528" y="598" on="0"/>
        <pt x="653" y="598" on="1"/>
        <pt x="952" y="598" on="0"/>
        <pt x="952" y="928" on="1"/>
        <pt x="952" y="1237" on="1"/>
        <pt x="952" y="1287" on="0"/>
        <pt x="917" y="1348" on="0"/>
        <pt x="850" y="1376" on="0"/>
        <pt x="784" y="1376" on="1"/>
        <pt x="758" y="1376" on="1"/>
        <pt x="758" y="1462" on="1"/>
        <pt x="1159" y="1462" on="1"/>
        <pt x="1159" y="0" on="1"/>
        <pt x="952" y="0" on="1"/>
        <pt x="952" y="459" on="1"/>
        <pt x="952" y="543" on="0"/>
        <pt x="961" y="633" on="1"/>
        <pt x="950" y="633" on="1"/>
        <pt x="917" y="569" on="0"/>
        <pt x="730" y="487" on="0"/>
        <pt x="621" y="487" on="1"/>
        <pt x="414" y="487" on="0"/>
        <pt x="184" y="719" on="0"/>
        <pt x="184" y="928" on="1"/>
        <pt x="184" y="1237" on="1"/>
        <pt x="184" y="1297" on="0"/>
        <pt x="124" y="1376" on="0"/>
        <pt x="57" y="1376" on="1"/>
        <pt x="41" y="1376" on="1"/>
        <pt x="41" y="1462" on="1"/>
        <pt x="391" y="1462" on="1"/>
      </contour>
    </TTGlyph>
    <TTGlyph name="uni10B8" xMin="41" yMin="-20" xMax="1159" yMax="1462">
      <contour>
        <pt x="391" y="410" on="1"/>
        <pt x="391" y="242" on="0"/>
        <pt x="530" y="90" on="0"/>
        <pt x="672" y="90" on="1"/>
        <pt x="808" y="90" on="0"/>
        <pt x="952" y="283" on="0"/>
        <pt x="952" y="463" on="1"/>
        <pt x="952" y="623" on="1"/>
        <pt x="952" y="707" on="0"/>
        <pt x="961" y="797" on="1"/>
        <pt x="950" y="797" on="1"/>
        <pt x="854" y="651" on="0"/>
        <pt x="621" y="651" on="1"/>
        <pt x="414" y="651" on="0"/>
        <pt x="184" y="883" on="0"/>
        <pt x="184" y="1092" on="1"/>
        <pt x="184" y="1237" on="1"/>
        <pt x="184" y="1297" on="0"/>
        <pt x="124" y="1376" on="0"/>
        <pt x="57" y="1376" on="1"/>
        <pt x="41" y="1376" on="1"/>
        <pt x="41" y="1462" on="1"/>
        <pt x="391" y="1462" on="1"/>
        <pt x="391" y="1092" on="1"/>
        <pt x="391" y="925" on="0"/>
        <pt x="528" y="762" on="0"/>
        <pt x="653" y="762" on="1"/>
        <pt x="803" y="762" on="0"/>
        <pt x="952" y="924" on="0"/>
        <pt x="952" y="1092" on="1"/>
        <pt x="952" y="1237" on="1"/>
        <pt x="952" y="1287" on="0"/>
        <pt x="917" y="1348" on="0"/>
        <pt x="850" y="1376" on="0"/>
        <pt x="784" y="1376" on="1"/>
        <pt x="758" y="1376" on="1"/>
        <pt x="758" y="1462" on="1"/>
        <pt x="1159" y="1462" on="1"/>
        <pt x="1159" y="457" on="1"/>
        <pt x="1159" y="222" on="0"/>
        <pt x="916" y="-20" on="0"/>
        <pt x="680" y="-20" on="1"/>
        <pt x="444" y="-20" on="0"/>
        <pt x="184" y="192" on="0"/>
        <pt x="184" y="383" on="1"/>
        <pt x="184" y="489" on="1"/>
        <pt x="391" y="489" on="1"/>
      </contour>
    </TTGlyph>
    <TTGlyph name="uni10B9" xMin="31" yMin="0" xMax="1200" yMax="1462">
      <contour>
        <pt x="432" y="1147" on="1"/>
        <pt x="432" y="1089" on="0"/>
        <pt x="424" y="973" on="1"/>
        <pt x="434" y="973" on="1"/>
        <pt x="469" y="1041" on="0"/>
        <pt x="643" y="1118" on="0"/>
        <pt x="764" y="1118" on="1"/>
        <pt x="970" y="1118" on="0"/>
        <pt x="1200" y="886" on="0"/>
        <pt x="1200" y="678" on="1"/>
        <pt x="1200" y="0" on="1"/>
        <pt x="993" y="0" on="1"/>
        <pt x="993" y="678" on="1"/>
        <pt x="993" y="845" on="0"/>
        <pt x="856" y="1008" on="0"/>
        <pt x="731" y="1008" on="1"/>
        <pt x="432" y="1008" on="0"/>
        <pt x="432" y="678" on="1"/>
        <pt x="432" y="0" on="1"/>
        <pt x="225" y="0" on="1"/>
        <pt x="225" y="1237" on="1"/>
        <pt x="225" y="1287" on="0"/>
        <pt x="190" y="1348" on="0"/>
        <pt x="123" y="1376" on="0"/>
        <pt x="57" y="1376" on="1"/>
        <pt x="31" y="1376" on="1"/>
        <pt x="31" y="1462" on="1"/>
        <pt x="432" y="1462" on="1"/>
      </contour>
    </TTGlyph>
    <TTGlyph name="uni10BA" xMin="117" yMin="-362" xMax="1188" yMax="1483">
      <contour>
        <pt x="1180" y="209" on="1"/>
        <pt x="1180" y="157" on="0"/>
        <pt x="1114" y="2" on="0"/>
        <pt x="982" y="-201" on="0"/>
        <pt x="879" y="-312" on="0"/>
        <pt x="795" y="-362" on="0"/>
        <pt x="743" y="-362" on="1"/>
        <pt x="699" y="-362" on="0"/>
        <pt x="631" y="-292" on="0"/>
        <pt x="631" y="-238" on="1"/>
        <pt x="631" y="-181" on="0"/>
        <pt x="659" y="-125" on="1"/>
        <pt x="713" y="-160" on="0"/>
        <pt x="758" y="-160" on="1"/>
        <pt x="816" y="-160" on="0"/>
        <pt x="940" y="-68" on="0"/>
        <pt x="999" y="20" on="1"/>
        <pt x="886" y="-20" on="0"/>
        <pt x="739" y="-20" on="1"/>
        <pt x="445" y="-20" on="0"/>
        <pt x="117" y="380" on="0"/>
        <pt x="117" y="733" on="1"/>
        <pt x="117" y="962" on="0"/>
        <pt x="273" y="1302" on="0"/>
        <pt x="570" y="1483" on="0"/>
        <pt x="774" y="1483" on="1"/>
        <pt x="969" y="1483" on="0"/>
        <pt x="1188" y="1359" on="0"/>
        <pt x="1188" y="1253" on="1"/>
        <pt x="1188" y="1190" on="0"/>
        <pt x="1088" y="1110" on="0"/>
        <pt x="1010" y="1110" on="1"/>
        <pt x="1010" y="1232" on="0"/>
        <pt x="881" y="1374" on="0"/>
        <pt x="770" y="1374" on="1"/>
        <pt x="553" y="1374" on="0"/>
        <pt x="344" y="1063" on="0"/>
        <pt x="344" y="733" on="1"/>
        <pt x="344" y="426" on="0"/>
        <pt x="565" y="102" on="0"/>
        <pt x="770" y="102" on="1"/>
        <pt x="884" y="102" on="0"/>
        <pt x="1068" y="190" on="0"/>
        <pt x="1141" y="289" on="1"/>
        <pt x="1180" y="264" on="0"/>
      </contour>
    </TTGlyph>
    <TTGlyph name="uni10BB" xMin="78" yMin="-20" xMax="1479" yMax="1462">
      <contour>
        <pt x="860" y="1237" on="1"/>
        <pt x="860" y="1287" on="0"/>
        <pt x="825" y="1348" on="0"/>
        <pt x="758" y="1376" on="0"/>
        <pt x="692" y="1376" on="1"/>
        <pt x="666" y="1376" on="1"/>
        <pt x="666" y="1462" on="1"/>
        <pt x="1067" y="1462" on="1"/>
        <pt x="1067" y="909" on="1"/>
        <pt x="1081" y="909" on="1"/>
        <pt x="1282" y="909" on="0"/>
        <pt x="1479" y="788" on="0"/>
        <pt x="1479" y="657" on="1"/>
        <pt x="1479" y="589" on="0"/>
        <pt x="1392" y="516" on="0"/>
        <pt x="1319" y="516" on="1"/>
        <pt x="1319" y="663" on="0"/>
        <pt x="1209" y="799" on="0"/>
        <pt x="1083" y="799" on="1"/>
        <pt x="1067" y="799" on="1"/>
        <pt x="1067" y="461" on="1"/>
        <pt x="1067" y="-20" on="0"/>
        <pt x="588" y="-20" on="1"/>
        <pt x="343" y="-20" on="0"/>
        <pt x="78" y="223" on="0"/>
        <pt x="78" y="451" on="1"/>
        <pt x="78" y="685" on="0"/>
        <pt x="318" y="909" on="0"/>
        <pt x="588" y="909" on="1"/>
        <pt x="860" y="909" on="1"/>
      </contour>
      <contour>
        <pt x="299" y="438" on="1"/>
        <pt x="299" y="264" on="0"/>
        <pt x="437" y="90" on="0"/>
        <pt x="580" y="90" on="1"/>
        <pt x="860" y="90" on="0"/>
        <pt x="860" y="461" on="1"/>
        <pt x="860" y="799" on="1"/>
        <pt x="580" y="799" on="1"/>
        <pt x="299" y="799" on="0"/>
      </contour>
    </TTGlyph>
    <TTGlyph name="uni10BC" xMin="78" yMin="0" xMax="1157" yMax="1462">
      <contour>
        <pt x="479" y="373" on="1"/>
        <pt x="479" y="0" on="1"/>
        <pt x="272" y="0" on="1"/>
        <pt x="272" y="1237" on="1"/>
        <pt x="272" y="1287" on="0"/>
        <pt x="237" y="1348" on="0"/>
        <pt x="170" y="1376" on="0"/>
        <pt x="104" y="1376" on="1"/>
        <pt x="78" y="1376" on="1"/>
        <pt x="78" y="1462" on="1"/>
        <pt x="653" y="1462" on="1"/>
        <pt x="901" y="1462" on="0"/>
        <pt x="1157" y="1264" on="0"/>
        <pt x="1157" y="1075" on="1"/>
        <pt x="1157" y="874" on="0"/>
        <pt x="868" y="655" on="0"/>
        <pt x="608" y="655" on="1"/>
        <pt x="479" y="655" on="1"/>
        <pt x="479" y="483" on="1"/>
        <pt x="494" y="483" on="1"/>
        <pt x="694" y="483" on="0"/>
        <pt x="891" y="362" on="0"/>
        <pt x="891" y="231" on="1"/>
        <pt x="891" y="163" on="0"/>
        <pt x="804" y="90" on="0"/>
        <pt x="731" y="90" on="1"/>
        <pt x="731" y="237" on="0"/>
        <pt x="621" y="373" on="0"/>
        <pt x="496" y="373" on="1"/>
      </contour>
      <contour>
        <pt x="479" y="752" on="1"/>
        <pt x="588" y="752" on="1"/>
        <pt x="774" y="752" on="0"/>
        <pt x="936" y="897" on="0"/>
        <pt x="936" y="1067" on="1"/>
        <pt x="936" y="1226" on="0"/>
        <pt x="785" y="1364" on="0"/>
        <pt x="618" y="1364" on="1"/>
        <pt x="479" y="1364" on="1"/>
      </contour>
    </TTGlyph>
    <TTGlyph name="uni10BD" xMin="98" yMin="-20" xMax="1010" yMax="1483">
      <contour>
        <pt x="506" y="-20" on="1"/>
        <pt x="316" y="-20" on="0"/>
        <pt x="98" y="132" on="0"/>
        <pt x="98" y="268" on="1"/>
        <pt x="98" y="330" on="0"/>
        <pt x="175" y="406" on="0"/>
        <pt x="246" y="406" on="1"/>
        <pt x="253" y="251" on="0"/>
        <pt x="398" y="80" on="0"/>
        <pt x="522" y="80" on="1"/>
        <pt x="660" y="80" on="0"/>
        <pt x="815" y="213" on="0"/>
        <pt x="815" y="338" on="1"/>
        <pt x="815" y="447" on="0"/>
        <pt x="681" y="582" on="0"/>
        <pt x="498" y="657" on="1"/>
        <pt x="296" y="740" on="0"/>
        <pt x="121" y="952" on="0"/>
        <pt x="121" y="1112" on="1"/>
        <pt x="121" y="1282" on="0"/>
        <pt x="368" y="1483" on="0"/>
        <pt x="569" y="1483" on="1"/>
        <pt x="680" y="1483" on="0"/>
        <pt x="854" y="1424" on="0"/>
        <pt x="952" y="1318" on="0"/>
        <pt x="952" y="1253" on="1"/>
        <pt x="952" y="1187" on="0"/>
        <pt x="865" y="1120" on="0"/>
        <pt x="791" y="1120" on="1"/>
        <pt x="791" y="1241" on="0"/>
        <pt x="668" y="1380" on="0"/>
        <pt x="561" y="1380" on="1"/>
        <pt x="444" y="1380" on="0"/>
        <pt x="311" y="1253" on="0"/>
        <pt x="311" y="1147" on="1"/>
        <pt x="311" y="1028" on="0"/>
        <pt x="442" y="891" on="0"/>
        <pt x="629" y="815" on="1"/>
        <pt x="836" y="730" on="0"/>
        <pt x="1010" y="531" on="0"/>
        <pt x="1010" y="391" on="1"/>
        <pt x="1010" y="200" on="0"/>
        <pt x="741" y="-20" on="0"/>
      </contour>
    </TTGlyph>
    <TTGlyph name="uni10BE" xMin="31" yMin="-195" xMax="1200" yMax="1462">
      <contour>
        <pt x="225" y="1237" on="1"/>
        <pt x="225" y="1287" on="0"/>
        <pt x="190" y="1348" on="0"/>
        <pt x="123" y="1376" on="0"/>
        <pt x="57" y="1376" on="1"/>
        <pt x="31" y="1376" on="1"/>
        <pt x="31" y="1462" on="1"/>
        <pt x="432" y="1462" on="1"/>
        <pt x="432" y="936" on="1"/>
        <pt x="432" y="770" on="0"/>
        <pt x="582" y="618" on="0"/>
        <pt x="731" y="618" on="1"/>
        <pt x="993" y="618" on="0"/>
        <pt x="993" y="936" on="1"/>
        <pt x="993" y="1237" on="1"/>
        <pt x="993" y="1287" on="0"/>
        <pt x="958" y="1348" on="0"/>
        <pt x="891" y="1376" on="0"/>
        <pt x="825" y="1376" on="1"/>
        <pt x="799" y="1376" on="1"/>
        <pt x="799" y="1462" on="1"/>
        <pt x="1200" y="1462" on="1"/>
        <pt x="1200" y="954" on="1"/>
        <pt x="1200" y="742" on="0"/>
        <pt x="970" y="508" on="0"/>
        <pt x="764" y="508" on="1"/>
        <pt x="641" y="508" on="0"/>
        <pt x="469" y="585" on="0"/>
        <pt x="434" y="653" on="1"/>
        <pt x="424" y="653" on="1"/>
        <pt x="432" y="537" on="0"/>
        <pt x="432" y="479" on="1"/>
        <pt x="432" y="111" on="1"/>
        <pt x="891" y="111" on="1"/>
        <pt x="1180" y="111" on="0"/>
        <pt x="1180" y="-70" on="1"/>
        <pt x="1180" y="-130" on="0"/>
        <pt x="1098" y="-195" on="0"/>
        <pt x="1020" y="-195" on="1"/>
        <pt x="1020" y="-114" on="0"/>
        <pt x="976" y="-35" on="0"/>
        <pt x="875" y="0" on="0"/>
        <pt x="780" y="0" on="1"/>
        <pt x="225" y="0" on="1"/>
      </contour>
    </TTGlyph>
    <TTGlyph name="uni10BF" xMin="72" yMin="0" xMax="1247" yMax="1462">
      <contour>
        <pt x="666" y="719" on="1"/>
        <pt x="268" y="1366" on="1"/>
        <pt x="90" y="1366" on="1"/>
        <pt x="90" y="1462" on="1"/>
        <pt x="1247" y="1462" on="1"/>
        <pt x="1247" y="1378" on="1"/>
        <pt x="850" y="801" on="1"/>
        <pt x="1190" y="258" on="1"/>
        <pt x="1022" y="147" on="1"/>
        <pt x="727" y="621" on="1"/>
        <pt x="500" y="285" on="1"/>
        <pt x="395" y="130" on="0"/>
        <pt x="300" y="40" on="0"/>
        <pt x="191" y="0" on="0"/>
        <pt x="115" y="0" on="1"/>
        <pt x="72" y="0" on="1"/>
        <pt x="72" y="98" on="1"/>
        <pt x="80" y="98" on="1"/>
        <pt x="155" y="98" on="0"/>
        <pt x="271" y="171" on="0"/>
        <pt x="324" y="244" on="1"/>
      </contour>
      <contour>
        <pt x="791" y="897" on="1"/>
        <pt x="975" y="1182" on="1"/>
        <pt x="1026" y="1260" on="0"/>
        <pt x="1026" y="1307" on="1"/>
        <pt x="1026" y="1337" on="0"/>
        <pt x="976" y="1366" on="0"/>
        <pt x="915" y="1366" on="1"/>
        <pt x="502" y="1366" on="1"/>
      </contour>
    </TTGlyph>
    <TTGlyph name="uni10C0" xMin="41" yMin="-20" xMax="1485" yMax="1462">
      <contour>
        <pt x="1485" y="463" on="1"/>
        <pt x="1485" y="233" on="0"/>
        <pt x="1225" y="-20" on="0"/>
        <pt x="989" y="-20" on="1"/>
        <pt x="753" y="-20" on="0"/>
        <pt x="510" y="222" on="0"/>
        <pt x="510" y="457" on="1"/>
        <pt x="510" y="1352" on="1"/>
        <pt x="451" y="1352" on="1"/>
        <pt x="300" y="1352" on="0"/>
        <pt x="135" y="1128" on="0"/>
        <pt x="135" y="901" on="1"/>
        <pt x="41" y="901" on="1"/>
        <pt x="41" y="1462" on="1"/>
        <pt x="717" y="1462" on="1"/>
        <pt x="717" y="451" on="1"/>
        <pt x="717" y="280" on="0"/>
        <pt x="854" y="90" on="0"/>
        <pt x="997" y="90" on="1"/>
        <pt x="1144" y="90" on="0"/>
        <pt x="1278" y="273" on="0"/>
        <pt x="1278" y="475" on="1"/>
        <pt x="1278" y="612" on="1"/>
        <pt x="1485" y="612" on="1"/>
      </contour>
    </TTGlyph>
    <TTGlyph name="uni10C1" xMin="31" yMin="0" xMax="1409" yMax="1462">
      <contour>
        <pt x="1409" y="643" on="1"/>
        <pt x="1409" y="532" on="1"/>
        <pt x="920" y="532" on="1"/>
        <pt x="920" y="678" on="1"/>
        <pt x="920" y="844" on="0"/>
        <pt x="800" y="1008" on="0"/>
        <pt x="692" y="1008" on="1"/>
        <pt x="432" y="1008" on="0"/>
        <pt x="432" y="678" on="1"/>
        <pt x="432" y="0" on="1"/>
        <pt x="225" y="0" on="1"/>
        <pt x="225" y="1237" on="1"/>
        <pt x="225" y="1287" on="0"/>
        <pt x="190" y="1348" on="0"/>
        <pt x="123" y="1376" on="0"/>
        <pt x="57" y="1376" on="1"/>
        <pt x="31" y="1376" on="1"/>
        <pt x="31" y="1462" on="1"/>
        <pt x="432" y="1462" on="1"/>
        <pt x="432" y="1147" on="1"/>
        <pt x="432" y="1089" on="0"/>
        <pt x="424" y="973" on="1"/>
        <pt x="434" y="973" on="1"/>
        <pt x="464" y="1040" on="0"/>
        <pt x="623" y="1118" on="0"/>
        <pt x="733" y="1118" on="1"/>
        <pt x="917" y="1118" on="0"/>
        <pt x="1126" y="888" on="0"/>
        <pt x="1126" y="678" on="1"/>
        <pt x="1126" y="643" on="1"/>
      </contour>
    </TTGlyph>
    <TTGlyph name="uni10C2" xMin="31" yMin="-20" xMax="1178" yMax="1462">
      <contour>
        <pt x="537" y="1300" on="1"/>
        <pt x="735" y="1300" on="0"/>
        <pt x="1026" y="1141" on="0"/>
        <pt x="1178" y="842" on="0"/>
        <pt x="1178" y="639" on="1"/>
        <pt x="1178" y="334" on="0"/>
        <pt x="836" y="-20" on="0"/>
        <pt x="535" y="-20" on="1"/>
        <pt x="394" y="-20" on="0"/>
        <pt x="196" y="44" on="0"/>
        <pt x="92" y="155" on="0"/>
        <pt x="92" y="231" on="1"/>
        <pt x="92" y="307" on="0"/>
        <pt x="184" y="383" on="0"/>
        <pt x="264" y="383" on="1"/>
        <pt x="264" y="251" on="0"/>
        <pt x="409" y="90" on="0"/>
        <pt x="535" y="90" on="1"/>
        <pt x="747" y="90" on="0"/>
        <pt x="950" y="356" on="0"/>
        <pt x="950" y="639" on="1"/>
        <pt x="950" y="923" on="0"/>
        <pt x="748" y="1190" on="0"/>
        <pt x="537" y="1190" on="1"/>
        <pt x="225" y="1190" on="1"/>
        <pt x="225" y="1237" on="1"/>
        <pt x="225" y="1287" on="0"/>
        <pt x="190" y="1348" on="0"/>
        <pt x="123" y="1376" on="0"/>
        <pt x="57" y="1376" on="1"/>
        <pt x="31" y="1376" on="1"/>
        <pt x="31" y="1462" on="1"/>
        <pt x="432" y="1462" on="1"/>
        <pt x="432" y="1300" on="1"/>
      </contour>
    </TTGlyph>
    <TTGlyph name="uni10C3" xMin="43" yMin="0" xMax="1108" yMax="1462">
      <contour>
        <pt x="434" y="1163" on="1"/>
        <pt x="349" y="1140" on="0"/>
        <pt x="270" y="989" on="0"/>
        <pt x="270" y="858" on="1"/>
        <pt x="270" y="557" on="0"/>
        <pt x="565" y="557" on="1"/>
        <pt x="733" y="557" on="0"/>
        <pt x="901" y="722" on="0"/>
        <pt x="901" y="893" on="1"/>
        <pt x="901" y="1237" on="1"/>
        <pt x="901" y="1307" on="0"/>
        <pt x="828" y="1376" on="0"/>
        <pt x="735" y="1376" on="1"/>
        <pt x="727" y="1376" on="1"/>
        <pt x="727" y="1462" on="1"/>
        <pt x="1108" y="1462" on="1"/>
        <pt x="1108" y="0" on="1"/>
        <pt x="901" y="0" on="1"/>
        <pt x="901" y="418" on="1"/>
        <pt x="901" y="476" on="0"/>
        <pt x="909" y="592" on="1"/>
        <pt x="899" y="592" on="1"/>
        <pt x="782" y="446" on="0"/>
        <pt x="541" y="446" on="1"/>
        <pt x="300" y="446" on="0"/>
        <pt x="43" y="666" on="0"/>
        <pt x="43" y="866" on="1"/>
        <pt x="43" y="971" on="0"/>
        <pt x="141" y="1145" on="0"/>
        <pt x="306" y="1249" on="0"/>
        <pt x="401" y="1255" on="1"/>
      </contour>
    </TTGlyph>
    <TTGlyph name="uni10C4" xMin="31" yMin="0" xMax="1282" yMax="1462">
      <contour>
        <pt x="647" y="510" on="1"/>
        <pt x="428" y="532" on="0"/>
        <pt x="225" y="751" on="0"/>
        <pt x="225" y="954" on="1"/>
        <pt x="225" y="1237" on="1"/>
        <pt x="225" y="1287" on="0"/>
        <pt x="190" y="1348" on="0"/>
        <pt x="123" y="1376" on="0"/>
        <pt x="57" y="1376" on="1"/>
        <pt x="31" y="1376" on="1"/>
        <pt x="31" y="1462" on="1"/>
        <pt x="432" y="1462" on="1"/>
        <pt x="432" y="942" on="1"/>
        <pt x="432" y="781" on="0"/>
        <pt x="596" y="614" on="0"/>
        <pt x="754" y="614" on="1"/>
        <pt x="907" y="614" on="0"/>
        <pt x="1075" y="784" on="0"/>
        <pt x="1075" y="934" on="1"/>
        <pt x="1075" y="1237" on="1"/>
        <pt x="1075" y="1287" on="0"/>
        <pt x="1040" y="1348" on="0"/>
        <pt x="973" y="1376" on="0"/>
        <pt x="907" y="1376" on="1"/>
        <pt x="881" y="1376" on="1"/>
        <pt x="881" y="1462" on="1"/>
        <pt x="1282" y="1462" on="1"/>
        <pt x="1282" y="930" on="1"/>
        <pt x="1282" y="743" on="0"/>
        <pt x="1066" y="530" on="0"/>
        <pt x="854" y="508" on="1"/>
        <pt x="854" y="0" on="1"/>
        <pt x="647" y="0" on="1"/>
      </contour>
    </TTGlyph>
    <TTGlyph name="uni10C5" xMin="37" yMin="-20" xMax="1415" yMax="1462">
      <contour>
        <pt x="737" y="559" on="1"/>
        <pt x="1200" y="559" on="1"/>
        <pt x="1200" y="461" on="1"/>
        <pt x="737" y="461" on="1"/>
        <pt x="737" y="412" on="1"/>
        <pt x="737" y="191" on="0"/>
        <pt x="555" y="-20" on="0"/>
        <pt x="367" y="-20" on="1"/>
        <pt x="196" y="-20" on="0"/>
        <pt x="37" y="130" on="0"/>
        <pt x="37" y="262" on="1"/>
        <pt x="37" y="408" on="0"/>
        <pt x="290" y="559" on="0"/>
        <pt x="530" y="559" on="1"/>
        <pt x="530" y="1237" on="1"/>
        <pt x="530" y="1287" on="0"/>
        <pt x="495" y="1348" on="0"/>
        <pt x="428" y="1376" on="0"/>
        <pt x="362" y="1376" on="1"/>
        <pt x="336" y="1376" on="1"/>
        <pt x="336" y="1462" on="1"/>
        <pt x="911" y="1462" on="1"/>
        <pt x="1158" y="1462" on="0"/>
        <pt x="1415" y="1273" on="0"/>
        <pt x="1415" y="1094" on="1"/>
        <pt x="1415" y="901" on="0"/>
        <pt x="1127" y="692" on="0"/>
        <pt x="866" y="692" on="1"/>
        <pt x="737" y="692" on="1"/>
      </contour>
      <contour>
        <pt x="737" y="788" on="1"/>
        <pt x="846" y="788" on="1"/>
        <pt x="1035" y="788" on="0"/>
        <pt x="1194" y="926" on="0"/>
        <pt x="1194" y="1085" on="1"/>
        <pt x="1194" y="1233" on="0"/>
        <pt x="1043" y="1364" on="0"/>
        <pt x="877" y="1364" on="1"/>
        <pt x="737" y="1364" on="1"/>
      </contour>
      <contour>
        <pt x="365" y="76" on="1"/>
        <pt x="453" y="76" on="0"/>
        <pt x="530" y="237" on="0"/>
        <pt x="530" y="406" on="1"/>
        <pt x="530" y="461" on="1"/>
        <pt x="380" y="461" on="0"/>
        <pt x="223" y="354" on="0"/>
        <pt x="223" y="258" on="1"/>
        <pt x="223" y="172" on="0"/>
        <pt x="297" y="76" on="0"/>
      </contour>
    </TTGlyph>
    <TTGlyph name="uni10D0" xMin="82" yMin="-23" xMax="969" yMax="1118">
      <contour>
        <pt x="969" y="397" on="1"/>
        <pt x="969" y="192" on="0"/>
        <pt x="738" y="-23" on="0"/>
        <pt x="518" y="-23" on="1"/>
        <pt x="389" y="-23" on="0"/>
        <pt x="189" y="72" on="0"/>
        <pt x="82" y="242" on="0"/>
        <pt x="82" y="346" on="1"/>
        <pt x="82" y="460" on="0"/>
        <pt x="208" y="578" on="0"/>
        <pt x="328" y="578" on="1"/>
        <pt x="276" y="480" on="0"/>
        <pt x="276" y="365" on="1"/>
        <pt x="276" y="233" on="0"/>
        <pt x="407" y="86" on="0"/>
        <pt x="518" y="86" on="1"/>
        <pt x="639" y="86" on="0"/>
        <pt x="768" y="245" on="0"/>
        <pt x="768" y="403" on="1"/>
        <pt x="768" y="500" on="0"/>
        <pt x="735" y="601" on="0"/>
        <pt x="660" y="682" on="0"/>
        <pt x="590" y="723" on="1"/>
        <pt x="461" y="796" on="0"/>
        <pt x="369" y="916" on="0"/>
        <pt x="369" y="995" on="1"/>
        <pt x="369" y="1118" on="0"/>
        <pt x="494" y="1118" on="1"/>
        <pt x="520" y="1118" on="0"/>
        <pt x="567" y="1096" on="0"/>
        <pt x="575" y="1077" on="1"/>
        <pt x="554" y="1064" on="0"/>
        <pt x="537" y="1026" on="0"/>
        <pt x="537" y="995" on="1"/>
        <pt x="537" y="936" on="0"/>
        <pt x="589" y="857" on="0"/>
        <pt x="643" y="823" on="1"/>
        <pt x="725" y="775" on="1"/>
        <pt x="824" y="717" on="0"/>
        <pt x="922" y="616" on="0"/>
        <pt x="969" y="484" on="0"/>
      </contour>
    </TTGlyph>
    <TTGlyph name="uni10D1" xMin="113" yMin="-20" xMax="1069" yMax="1583">
      <contour>
        <pt x="1069" y="551" on="1"/>
        <pt x="1069" y="-20" on="0"/>
        <pt x="588" y="-20" on="1"/>
        <pt x="357" y="-20" on="0"/>
        <pt x="113" y="273" on="0"/>
        <pt x="113" y="551" on="1"/>
        <pt x="113" y="1069" on="0"/>
        <pt x="520" y="1114" on="1"/>
        <pt x="635" y="1187" on="0"/>
        <pt x="635" y="1313" on="1"/>
        <pt x="635" y="1354" on="0"/>
        <pt x="585" y="1411" on="0"/>
        <pt x="545" y="1411" on="1"/>
        <pt x="513" y="1411" on="0"/>
        <pt x="459" y="1389" on="0"/>
        <pt x="409" y="1363" on="0"/>
        <pt x="358" y="1341" on="0"/>
        <pt x="328" y="1341" on="1"/>
        <pt x="267" y="1341" on="0"/>
        <pt x="201" y="1412" on="0"/>
        <pt x="201" y="1475" on="1"/>
        <pt x="201" y="1520" on="0"/>
        <pt x="265" y="1574" on="0"/>
        <pt x="311" y="1583" on="1"/>
        <pt x="335" y="1495" on="0"/>
        <pt x="410" y="1495" on="1"/>
        <pt x="437" y="1495" on="0"/>
        <pt x="498" y="1507" on="1"/>
        <pt x="558" y="1518" on="0"/>
        <pt x="610" y="1518" on="1"/>
        <pt x="700" y="1518" on="0"/>
        <pt x="817" y="1417" on="0"/>
        <pt x="817" y="1333" on="1"/>
        <pt x="817" y="1201" on="0"/>
        <pt x="674" y="1112" on="1"/>
        <pt x="867" y="1087" on="0"/>
        <pt x="1069" y="801" on="0"/>
      </contour>
      <contour>
        <pt x="311" y="551" on="1"/>
        <pt x="311" y="308" on="0"/>
        <pt x="447" y="86" on="0"/>
        <pt x="592" y="86" on="1"/>
        <pt x="735" y="86" on="0"/>
        <pt x="870" y="305" on="0"/>
        <pt x="870" y="551" on="1"/>
        <pt x="870" y="791" on="0"/>
        <pt x="737" y="1012" on="0"/>
        <pt x="590" y="1012" on="1"/>
        <pt x="444" y="1012" on="0"/>
        <pt x="311" y="792" on="0"/>
      </contour>
    </TTGlyph>
    <TTGlyph name="uni10D2" xMin="113" yMin="-492" xMax="1069" yMax="1118">
      <contour>
        <pt x="705" y="858" on="1"/>
        <pt x="705" y="925" on="0"/>
        <pt x="633" y="1008" on="0"/>
        <pt x="573" y="1008" on="1"/>
        <pt x="420" y="1008" on="0"/>
        <pt x="420" y="784" on="1"/>
        <pt x="349" y="784" on="0"/>
        <pt x="272" y="852" on="0"/>
        <pt x="272" y="907" on="1"/>
        <pt x="272" y="996" on="0"/>
        <pt x="439" y="1118" on="0"/>
        <pt x="571" y="1118" on="1"/>
        <pt x="710" y="1118" on="0"/>
        <pt x="877" y="981" on="0"/>
        <pt x="877" y="870" on="1"/>
        <pt x="877" y="702" on="0"/>
        <pt x="698" y="637" on="1"/>
        <pt x="878" y="610" on="0"/>
        <pt x="1069" y="325" on="0"/>
        <pt x="1069" y="80" on="1"/>
        <pt x="1069" y="-492" on="0"/>
        <pt x="588" y="-492" on="1"/>
        <pt x="357" y="-492" on="0"/>
        <pt x="113" y="-199" on="0"/>
        <pt x="113" y="80" on="1"/>
        <pt x="113" y="574" on="0"/>
        <pt x="473" y="637" on="1"/>
        <pt x="705" y="676" on="0"/>
      </contour>
      <contour>
        <pt x="311" y="80" on="1"/>
        <pt x="311" y="-163" on="0"/>
        <pt x="447" y="-385" on="0"/>
        <pt x="592" y="-385" on="1"/>
        <pt x="735" y="-385" on="0"/>
        <pt x="870" y="-166" on="0"/>
        <pt x="870" y="80" on="1"/>
        <pt x="870" y="320" on="0"/>
        <pt x="737" y="541" on="0"/>
        <pt x="590" y="541" on="1"/>
        <pt x="444" y="541" on="0"/>
        <pt x="311" y="321" on="0"/>
      </contour>
    </TTGlyph>
    <TTGlyph name="uni10D3" xMin="113" yMin="-492" xMax="1618" yMax="1118">
      <contour>
        <pt x="113" y="551" on="1"/>
        <pt x="113" y="828" on="0"/>
        <pt x="323" y="1118" on="0"/>
        <pt x="528" y="1118" on="1"/>
        <pt x="754" y="1118" on="0"/>
        <pt x="846" y="926" on="1"/>
        <pt x="957" y="1118" on="0"/>
        <pt x="1190" y="1118" on="1"/>
        <pt x="1618" y="1118" on="0"/>
        <pt x="1618" y="551" on="1"/>
        <pt x="1618" y="274" on="0"/>
        <pt x="1399" y="-20" on="0"/>
        <pt x="1192" y="-20" on="1"/>
        <pt x="760" y="-20" on="0"/>
        <pt x="760" y="551" on="1"/>
        <pt x="760" y="1012" on="0"/>
        <pt x="537" y="1012" on="1"/>
        <pt x="424" y="1012" on="0"/>
        <pt x="311" y="787" on="0"/>
        <pt x="311" y="551" on="1"/>
        <pt x="311" y="334" on="0"/>
        <pt x="460" y="5" on="0"/>
        <pt x="739" y="-174" on="0"/>
        <pt x="924" y="-174" on="1"/>
        <pt x="961" y="-174" on="0"/>
        <pt x="1019" y="-169" on="1"/>
        <pt x="1076" y="-164" on="0"/>
        <pt x="1141" y="-164" on="1"/>
        <pt x="1214" y="-164" on="0"/>
        <pt x="1296" y="-244" on="0"/>
        <pt x="1296" y="-309" on="1"/>
        <pt x="1296" y="-359" on="0"/>
        <pt x="1227" y="-425" on="0"/>
        <pt x="1176" y="-434" on="1"/>
        <pt x="1156" y="-352" on="0"/>
        <pt x="917" y="-276" on="0"/>
        <pt x="705" y="-276" on="1"/>
        <pt x="612" y="-276" on="0"/>
        <pt x="482" y="-299" on="0"/>
        <pt x="388" y="-337" on="0"/>
        <pt x="328" y="-385" on="1"/>
        <pt x="279" y="-332" on="1"/>
        <pt x="325" y="-258" on="0"/>
        <pt x="473" y="-174" on="0"/>
        <pt x="553" y="-170" on="1"/>
        <pt x="332" y="-71" on="0"/>
        <pt x="113" y="281" on="0"/>
      </contour>
      <contour>
        <pt x="1419" y="551" on="1"/>
        <pt x="1419" y="795" on="0"/>
        <pt x="1309" y="1012" on="0"/>
        <pt x="1190" y="1012" on="1"/>
        <pt x="1064" y="1012" on="0"/>
        <pt x="958" y="780" on="0"/>
        <pt x="958" y="551" on="1"/>
        <pt x="958" y="310" on="0"/>
        <pt x="1068" y="86" on="0"/>
        <pt x="1188" y="86" on="1"/>
        <pt x="1307" y="86" on="0"/>
        <pt x="1419" y="309" on="0"/>
      </contour>
      <contour>
        <pt x="1332" y="-492" on="1"/>
      </contour>
    </TTGlyph>
    <TTGlyph name="uni10D4" xMin="92" yMin="-502" xMax="1032" yMax="1118">
      <contour>
        <pt x="549" y="-502" on="1"/>
        <pt x="340" y="-502" on="0"/>
        <pt x="92" y="-249" on="0"/>
        <pt x="92" y="-33" on="1"/>
        <pt x="92" y="81" on="0"/>
        <pt x="219" y="199" on="0"/>
        <pt x="338" y="199" on="1"/>
        <pt x="291" y="111" on="0"/>
        <pt x="291" y="-14" on="1"/>
        <pt x="291" y="-199" on="0"/>
        <pt x="422" y="-393" on="0"/>
        <pt x="545" y="-393" on="1"/>
        <pt x="692" y="-393" on="0"/>
        <pt x="840" y="-101" on="0"/>
        <pt x="840" y="182" on="1"/>
        <pt x="840" y="440" on="1"/>
        <pt x="840" y="722" on="0"/>
        <pt x="703" y="1012" on="0"/>
        <pt x="575" y="1012" on="1"/>
        <pt x="434" y="1012" on="0"/>
        <pt x="301" y="776" on="0"/>
        <pt x="293" y="506" on="1"/>
        <pt x="214" y="506" on="0"/>
        <pt x="125" y="584" on="0"/>
        <pt x="125" y="657" on="1"/>
        <pt x="126" y="781" on="0"/>
        <pt x="241" y="995" on="0"/>
        <pt x="446" y="1118" on="0"/>
        <pt x="575" y="1118" on="1"/>
        <pt x="789" y="1118" on="0"/>
        <pt x="1032" y="757" on="0"/>
        <pt x="1032" y="442" on="1"/>
        <pt x="1032" y="180" on="1"/>
        <pt x="1032" y="-31" on="0"/>
        <pt x="912" y="-345" on="0"/>
        <pt x="695" y="-502" on="0"/>
      </contour>
    </TTGlyph>
    <TTGlyph name="uni10D5" xMin="51" yMin="-502" xMax="981" yMax="1118">
      <contour>
        <pt x="508" y="-502" on="1"/>
        <pt x="371" y="-502" on="0"/>
        <pt x="162" y="-408" on="0"/>
        <pt x="51" y="-238" on="0"/>
        <pt x="51" y="-133" on="1"/>
        <pt x="51" y="-19" on="0"/>
        <pt x="177" y="98" on="0"/>
        <pt x="297" y="98" on="1"/>
        <pt x="246" y="4" on="0"/>
        <pt x="246" y="-115" on="1"/>
        <pt x="246" y="-250" on="0"/>
        <pt x="380" y="-393" on="0"/>
        <pt x="504" y="-393" on="1"/>
        <pt x="645" y="-393" on="0"/>
        <pt x="782" y="-219" on="0"/>
        <pt x="782" y="-33" on="1"/>
        <pt x="782" y="148" on="0"/>
        <pt x="601" y="340" on="0"/>
        <pt x="430" y="340" on="1"/>
        <pt x="338" y="340" on="1"/>
        <pt x="338" y="451" on="1"/>
        <pt x="430" y="451" on="1"/>
        <pt x="567" y="451" on="0"/>
        <pt x="752" y="612" on="0"/>
        <pt x="752" y="739" on="1"/>
        <pt x="752" y="1024" on="0"/>
        <pt x="508" y="1024" on="1"/>
        <pt x="264" y="1024" on="0"/>
        <pt x="264" y="739" on="1"/>
        <pt x="183" y="739" on="0"/>
        <pt x="102" y="797" on="0"/>
        <pt x="102" y="862" on="1"/>
        <pt x="102" y="927" on="0"/>
        <pt x="204" y="1046" on="0"/>
        <pt x="386" y="1118" on="0"/>
        <pt x="508" y="1118" on="1"/>
        <pt x="722" y="1118" on="0"/>
        <pt x="946" y="933" on="0"/>
        <pt x="946" y="750" on="1"/>
        <pt x="946" y="628" on="0"/>
        <pt x="778" y="443" on="0"/>
        <pt x="637" y="410" on="1"/>
        <pt x="637" y="399" on="1"/>
        <pt x="798" y="379" on="0"/>
        <pt x="981" y="155" on="0"/>
        <pt x="981" y="-23" on="1"/>
        <pt x="981" y="-247" on="0"/>
        <pt x="726" y="-502" on="0"/>
      </contour>
    </TTGlyph>
    <TTGlyph name="uni10D6" xMin="-41" yMin="-20" xMax="1223" yMax="1567">
      <contour>
        <pt x="1223" y="551" on="1"/>
        <pt x="1223" y="-20" on="0"/>
        <pt x="741" y="-20" on="1"/>
        <pt x="510" y="-20" on="0"/>
        <pt x="266" y="273" on="0"/>
        <pt x="266" y="551" on="1"/>
        <pt x="266" y="731" on="0"/>
        <pt x="315" y="860" on="1"/>
        <pt x="293" y="860" on="1"/>
        <pt x="135" y="860" on="0"/>
        <pt x="-41" y="1036" on="0"/>
        <pt x="-41" y="1214" on="1"/>
        <pt x="-41" y="1567" on="0"/>
        <pt x="297" y="1567" on="1"/>
        <pt x="459" y="1567" on="0"/>
        <pt x="629" y="1384" on="0"/>
        <pt x="629" y="1214" on="1"/>
        <pt x="629" y="1158" on="0"/>
        <pt x="618" y="1106" on="1"/>
        <pt x="680" y="1118" on="0"/>
        <pt x="748" y="1118" on="1"/>
        <pt x="979" y="1118" on="0"/>
        <pt x="1223" y="826" on="0"/>
      </contour>
      <contour>
        <pt x="465" y="551" on="1"/>
        <pt x="465" y="308" on="0"/>
        <pt x="601" y="86" on="0"/>
        <pt x="745" y="86" on="1"/>
        <pt x="890" y="86" on="0"/>
        <pt x="1024" y="310" on="0"/>
        <pt x="1024" y="551" on="1"/>
        <pt x="1024" y="792" on="0"/>
        <pt x="890" y="1012" on="0"/>
        <pt x="743" y="1012" on="1"/>
        <pt x="597" y="1012" on="0"/>
        <pt x="465" y="794" on="0"/>
      </contour>
      <contour>
        <pt x="137" y="1214" on="1"/>
        <pt x="137" y="1084" on="0"/>
        <pt x="207" y="954" on="0"/>
        <pt x="295" y="954" on="1"/>
        <pt x="381" y="954" on="0"/>
        <pt x="453" y="1085" on="0"/>
        <pt x="453" y="1214" on="1"/>
        <pt x="453" y="1342" on="0"/>
        <pt x="380" y="1468" on="0"/>
        <pt x="293" y="1468" on="1"/>
        <pt x="207" y="1468" on="0"/>
        <pt x="137" y="1341" on="0"/>
      </contour>
    </TTGlyph>
    <TTGlyph name="uni10D7" xMin="113" yMin="-20" xMax="1618" yMax="1118">
      <contour>
        <pt x="541" y="1118" on="1"/>
        <pt x="776" y="1118" on="0"/>
        <pt x="887" y="926" on="1"/>
        <pt x="978" y="1118" on="0"/>
        <pt x="1204" y="1118" on="1"/>
        <pt x="1408" y="1118" on="0"/>
        <pt x="1618" y="828" on="0"/>
        <pt x="1618" y="541" on="1"/>
        <pt x="1618" y="395" on="0"/>
        <pt x="1516" y="139" on="0"/>
        <pt x="1348" y="-20" on="0"/>
        <pt x="1268" y="-20" on="1"/>
        <pt x="1223" y="-20" on="0"/>
        <pt x="1192" y="20" on="0"/>
        <pt x="1192" y="61" on="1"/>
        <pt x="1303" y="69" on="0"/>
        <pt x="1419" y="324" on="0"/>
        <pt x="1419" y="551" on="1"/>
        <pt x="1419" y="786" on="0"/>
        <pt x="1311" y="1014" on="0"/>
        <pt x="1196" y="1014" on="1"/>
        <pt x="971" y="1014" on="0"/>
        <pt x="971" y="553" on="1"/>
        <pt x="971" y="-18" on="0"/>
        <pt x="539" y="-18" on="1"/>
        <pt x="332" y="-18" on="0"/>
        <pt x="113" y="276" on="0"/>
        <pt x="113" y="551" on="1"/>
        <pt x="113" y="1118" on="0"/>
      </contour>
      <contour>
        <pt x="311" y="551" on="1"/>
        <pt x="311" y="322" on="0"/>
        <pt x="417" y="86" on="0"/>
        <pt x="543" y="86" on="1"/>
        <pt x="660" y="86" on="0"/>
        <pt x="772" y="305" on="0"/>
        <pt x="772" y="553" on="1"/>
        <pt x="772" y="780" on="0"/>
        <pt x="667" y="1012" on="0"/>
        <pt x="541" y="1012" on="1"/>
        <pt x="415" y="1012" on="0"/>
        <pt x="311" y="780" on="0"/>
      </contour>
    </TTGlyph>
    <TTGlyph name="uni10D8" xMin="113" yMin="-20" xMax="1069" yMax="1118">
      <contour>
        <pt x="870" y="539" on="1"/>
        <pt x="870" y="1012" on="0"/>
        <pt x="590" y="1012" on="1"/>
        <pt x="451" y="1012" on="0"/>
        <pt x="311" y="772" on="0"/>
        <pt x="311" y="539" on="1"/>
        <pt x="311" y="319" on="0"/>
        <pt x="386" y="74" on="0"/>
        <pt x="465" y="35" on="1"/>
        <pt x="465" y="12" on="0"/>
        <pt x="429" y="-20" on="0"/>
        <pt x="403" y="-20" on="1"/>
        <pt x="326" y="-20" on="0"/>
        <pt x="190" y="133" on="0"/>
        <pt x="113" y="391" on="0"/>
        <pt x="113" y="541" on="1"/>
        <pt x="113" y="824" on="0"/>
        <pt x="362" y="1118" on="0"/>
        <pt x="594" y="1118" on="1"/>
        <pt x="829" y="1118" on="0"/>
        <pt x="1069" y="826" on="0"/>
        <pt x="1069" y="541" on="1"/>
        <pt x="1069" y="393" on="0"/>
        <pt x="990" y="130" on="0"/>
        <pt x="855" y="-20" on="0"/>
        <pt x="778" y="-20" on="1"/>
        <pt x="752" y="-20" on="0"/>
        <pt x="717" y="12" on="0"/>
        <pt x="717" y="35" on="1"/>
        <pt x="797" y="75" on="0"/>
        <pt x="870" y="324" on="0"/>
      </contour>
    </TTGlyph>
    <TTGlyph name="uni10D9" xMin="10" yMin="-502" xMax="940" yMax="1118">
      <contour>
        <pt x="373" y="991" on="1"/>
        <pt x="367" y="1004" on="0"/>
        <pt x="358" y="1043" on="0"/>
        <pt x="358" y="1051" on="1"/>
        <pt x="358" y="1118" on="0"/>
        <pt x="489" y="1118" on="1"/>
        <pt x="691" y="1118" on="0"/>
        <pt x="905" y="927" on="0"/>
        <pt x="905" y="750" on="1"/>
        <pt x="905" y="628" on="0"/>
        <pt x="737" y="443" on="0"/>
        <pt x="596" y="410" on="1"/>
        <pt x="596" y="399" on="1"/>
        <pt x="757" y="379" on="0"/>
        <pt x="940" y="155" on="0"/>
        <pt x="940" y="-23" on="1"/>
        <pt x="940" y="-248" on="0"/>
        <pt x="679" y="-502" on="0"/>
        <pt x="446" y="-502" on="1"/>
        <pt x="317" y="-502" on="0"/>
        <pt x="117" y="-407" on="0"/>
        <pt x="10" y="-237" on="0"/>
        <pt x="10" y="-133" on="1"/>
        <pt x="10" y="-19" on="0"/>
        <pt x="136" y="98" on="0"/>
        <pt x="256" y="98" on="1"/>
        <pt x="205" y="4" on="0"/>
        <pt x="205" y="-115" on="1"/>
        <pt x="205" y="-244" on="0"/>
        <pt x="330" y="-393" on="0"/>
        <pt x="442" y="-393" on="1"/>
        <pt x="595" y="-393" on="0"/>
        <pt x="741" y="-221" on="0"/>
        <pt x="741" y="-33" on="1"/>
        <pt x="741" y="150" on="0"/>
        <pt x="557" y="342" on="0"/>
        <pt x="389" y="342" on="1"/>
        <pt x="358" y="342" on="1"/>
        <pt x="358" y="451" on="1"/>
        <pt x="389" y="451" on="1"/>
        <pt x="526" y="451" on="0"/>
        <pt x="711" y="612" on="0"/>
        <pt x="711" y="739" on="1"/>
        <pt x="711" y="877" on="0"/>
        <pt x="594" y="1010" on="0"/>
        <pt x="467" y="1010" on="1"/>
        <pt x="411" y="1010" on="0"/>
      </contour>
    </TTGlyph>
    <TTGlyph name="uni10DA" xMin="113" yMin="-492" xMax="2062" yMax="1118">
      <contour>
        <pt x="311" y="539" on="1"/>
        <pt x="311" y="321" on="0"/>
        <pt x="505" y="1" on="0"/>
        <pt x="865" y="-170" on="0"/>
        <pt x="1100" y="-170" on="1"/>
        <pt x="1168" y="-170" on="0"/>
        <pt x="1337" y="-160" on="0"/>
        <pt x="1436" y="-160" on="1"/>
        <pt x="1523" y="-160" on="0"/>
        <pt x="1622" y="-239" on="0"/>
        <pt x="1622" y="-305" on="1"/>
        <pt x="1622" y="-352" on="0"/>
        <pt x="1554" y="-426" on="0"/>
        <pt x="1501" y="-434" on="1"/>
        <pt x="1487" y="-388" on="0"/>
        <pt x="1287" y="-310" on="0"/>
        <pt x="949" y="-266" on="0"/>
        <pt x="756" y="-266" on="1"/>
        <pt x="488" y="-266" on="0"/>
        <pt x="338" y="-385" on="1"/>
        <pt x="289" y="-332" on="1"/>
        <pt x="330" y="-265" on="0"/>
        <pt x="513" y="-170" on="0"/>
        <pt x="604" y="-166" on="1"/>
        <pt x="363" y="-59" on="0"/>
        <pt x="113" y="285" on="0"/>
        <pt x="113" y="537" on="1"/>
        <pt x="113" y="719" on="0"/>
        <pt x="210" y="983" on="0"/>
        <pt x="388" y="1118" on="0"/>
        <pt x="506" y="1118" on="1"/>
        <pt x="698" y="1118" on="0"/>
        <pt x="793" y="928" on="1"/>
        <pt x="801" y="928" on="1"/>
        <pt x="889" y="1118" on="0"/>
        <pt x="1090" y="1118" on="1"/>
        <pt x="1284" y="1118" on="0"/>
        <pt x="1374" y="928" on="1"/>
        <pt x="1382" y="928" on="1"/>
        <pt x="1473" y="1118" on="0"/>
        <pt x="1673" y="1118" on="1"/>
        <pt x="1790" y="1118" on="0"/>
        <pt x="1967" y="976" on="0"/>
        <pt x="2062" y="710" on="0"/>
        <pt x="2062" y="526" on="1"/>
        <pt x="2062" y="382" on="0"/>
        <pt x="1986" y="129" on="0"/>
        <pt x="1857" y="-20" on="0"/>
        <pt x="1786" y="-20" on="1"/>
        <pt x="1763" y="-20" on="0"/>
        <pt x="1731" y="12" on="0"/>
        <pt x="1731" y="35" on="1"/>
        <pt x="1864" y="124" on="0"/>
        <pt x="1864" y="526" on="1"/>
        <pt x="1864" y="762" on="0"/>
        <pt x="1763" y="1008" on="0"/>
        <pt x="1665" y="1008" on="1"/>
        <pt x="1573" y="1008" on="0"/>
        <pt x="1475" y="812" on="0"/>
        <pt x="1475" y="639" on="1"/>
        <pt x="1475" y="512" on="1"/>
        <pt x="1282" y="512" on="1"/>
        <pt x="1282" y="635" on="1"/>
        <pt x="1282" y="1008" on="0"/>
        <pt x="1087" y="1008" on="1"/>
        <pt x="995" y="1008" on="0"/>
        <pt x="893" y="814" on="0"/>
        <pt x="893" y="639" on="1"/>
        <pt x="893" y="512" on="1"/>
        <pt x="700" y="512" on="1"/>
        <pt x="700" y="635" on="1"/>
        <pt x="700" y="820" on="0"/>
        <pt x="609" y="1008" on="0"/>
        <pt x="512" y="1008" on="1"/>
        <pt x="404" y="1008" on="0"/>
        <pt x="311" y="782" on="0"/>
      </contour>
      <contour>
        <pt x="1898" y="-492" on="1"/>
      </contour>
    </TTGlyph>
    <TTGlyph name="uni10DB" xMin="113" yMin="-20" xMax="1069" yMax="1567">
      <contour>
        <pt x="537" y="1460" on="1"/>
        <pt x="383" y="1460" on="0"/>
        <pt x="313" y="1350" on="1"/>
        <pt x="279" y="1374" on="0"/>
        <pt x="279" y="1423" on="1"/>
        <pt x="279" y="1461" on="0"/>
        <pt x="345" y="1528" on="0"/>
        <pt x="468" y="1567" on="0"/>
        <pt x="553" y="1567" on="1"/>
        <pt x="1069" y="1567" on="0"/>
        <pt x="1069" y="700" on="1"/>
        <pt x="1069" y="336" on="0"/>
        <pt x="832" y="-20" on="0"/>
        <pt x="588" y="-20" on="1"/>
        <pt x="357" y="-20" on="0"/>
        <pt x="113" y="273" on="0"/>
        <pt x="113" y="551" on="1"/>
        <pt x="113" y="1118" on="0"/>
        <pt x="594" y="1118" on="1"/>
        <pt x="675" y="1118" on="0"/>
        <pt x="817" y="1060" on="0"/>
        <pt x="870" y="1004" on="1"/>
        <pt x="854" y="1228" on="0"/>
        <pt x="684" y="1460" on="0"/>
      </contour>
      <contour>
        <pt x="311" y="551" on="1"/>
        <pt x="311" y="308" on="0"/>
        <pt x="447" y="86" on="0"/>
        <pt x="592" y="86" on="1"/>
        <pt x="740" y="86" on="0"/>
        <pt x="870" y="339" on="0"/>
        <pt x="870" y="614" on="1"/>
        <pt x="870" y="815" on="0"/>
        <pt x="731" y="1012" on="0"/>
        <pt x="590" y="1012" on="1"/>
        <pt x="444" y="1012" on="0"/>
        <pt x="311" y="792" on="0"/>
      </contour>
    </TTGlyph>
    <TTGlyph name="uni10DC" xMin="113" yMin="-20" xMax="1067" yMax="1595">
      <contour>
        <pt x="870" y="541" on="1"/>
        <pt x="870" y="781" on="0"/>
        <pt x="735" y="993" on="0"/>
        <pt x="584" y="993" on="1"/>
        <pt x="436" y="993" on="0"/>
        <pt x="309" y="791" on="0"/>
        <pt x="309" y="541" on="1"/>
        <pt x="309" y="318" on="0"/>
        <pt x="439" y="86" on="0"/>
        <pt x="584" y="86" on="1"/>
        <pt x="733" y="86" on="0"/>
        <pt x="870" y="298" on="0"/>
      </contour>
      <contour>
        <pt x="315" y="981" on="1"/>
        <pt x="368" y="1037" on="0"/>
        <pt x="528" y="1098" on="0"/>
        <pt x="618" y="1098" on="1"/>
        <pt x="838" y="1098" on="0"/>
        <pt x="1067" y="817" on="0"/>
        <pt x="1067" y="541" on="1"/>
        <pt x="1067" y="-20" on="0"/>
        <pt x="584" y="-20" on="1"/>
        <pt x="406" y="-20" on="0"/>
        <pt x="205" y="148" on="0"/>
        <pt x="113" y="506" on="0"/>
        <pt x="113" y="784" on="1"/>
        <pt x="113" y="1163" on="0"/>
        <pt x="333" y="1567" on="0"/>
        <pt x="537" y="1567" on="1"/>
        <pt x="582" y="1567" on="0"/>
        <pt x="673" y="1538" on="1"/>
        <pt x="763" y="1509" on="0"/>
        <pt x="821" y="1509" on="1"/>
        <pt x="875" y="1509" on="0"/>
        <pt x="925" y="1558" on="0"/>
        <pt x="936" y="1595" on="1"/>
        <pt x="982" y="1586" on="0"/>
        <pt x="1047" y="1532" on="0"/>
        <pt x="1047" y="1487" on="1"/>
        <pt x="1047" y="1424" on="0"/>
        <pt x="966" y="1354" on="0"/>
        <pt x="895" y="1354" on="1"/>
        <pt x="836" y="1354" on="0"/>
        <pt x="738" y="1387" on="0"/>
        <pt x="648" y="1427" on="0"/>
        <pt x="564" y="1460" on="0"/>
        <pt x="520" y="1460" on="1"/>
        <pt x="307" y="1460" on="0"/>
        <pt x="307" y="981" on="1"/>
      </contour>
    </TTGlyph>
    <TTGlyph name="uni10DD" xMin="113" yMin="-20" xMax="1595" yMax="1118">
      <contour>
        <pt x="950" y="471" on="1"/>
        <pt x="758" y="471" on="1"/>
        <pt x="758" y="635" on="1"/>
        <pt x="758" y="819" on="0"/>
        <pt x="654" y="1008" on="0"/>
        <pt x="541" y="1008" on="1"/>
        <pt x="424" y="1008" on="0"/>
        <pt x="311" y="769" on="0"/>
        <pt x="311" y="526" on="1"/>
        <pt x="311" y="311" on="0"/>
        <pt x="385" y="75" on="0"/>
        <pt x="465" y="35" on="1"/>
        <pt x="465" y="12" on="0"/>
        <pt x="429" y="-20" on="0"/>
        <pt x="403" y="-20" on="1"/>
        <pt x="325" y="-20" on="0"/>
        <pt x="190" y="128" on="0"/>
        <pt x="113" y="378" on="0"/>
        <pt x="113" y="526" on="1"/>
        <pt x="113" y="804" on="0"/>
        <pt x="339" y="1118" on="0"/>
        <pt x="539" y="1118" on="1"/>
        <pt x="750" y="1118" on="0"/>
        <pt x="850" y="928" on="1"/>
        <pt x="858" y="928" on="1"/>
        <pt x="901" y="1014" on="0"/>
        <pt x="1058" y="1118" on="0"/>
        <pt x="1174" y="1118" on="1"/>
        <pt x="1301" y="1118" on="0"/>
        <pt x="1492" y="978" on="0"/>
        <pt x="1595" y="711" on="0"/>
        <pt x="1595" y="526" on="1"/>
        <pt x="1595" y="378" on="0"/>
        <pt x="1518" y="127" on="0"/>
        <pt x="1382" y="-20" on="0"/>
        <pt x="1305" y="-20" on="1"/>
        <pt x="1279" y="-20" on="0"/>
        <pt x="1243" y="12" on="0"/>
        <pt x="1243" y="35" on="1"/>
        <pt x="1324" y="75" on="0"/>
        <pt x="1397" y="311" on="0"/>
        <pt x="1397" y="526" on="1"/>
        <pt x="1397" y="759" on="0"/>
        <pt x="1283" y="1008" on="0"/>
        <pt x="1169" y="1008" on="1"/>
        <pt x="1064" y="1008" on="0"/>
        <pt x="950" y="816" on="0"/>
        <pt x="950" y="639" on="1"/>
      </contour>
    </TTGlyph>
    <TTGlyph name="uni10DE" xMin="82" yMin="-29" xMax="1012" yMax="1567">
      <contour>
        <pt x="584" y="1483" on="1"/>
        <pt x="771" y="1483" on="0"/>
        <pt x="977" y="1301" on="0"/>
        <pt x="977" y="1126" on="1"/>
        <pt x="977" y="1013" on="0"/>
        <pt x="812" y="833" on="0"/>
        <pt x="668" y="799" on="1"/>
        <pt x="668" y="788" on="1"/>
        <pt x="827" y="771" on="0"/>
        <pt x="1012" y="569" on="0"/>
        <pt x="1012" y="406" on="1"/>
        <pt x="1012" y="202" on="0"/>
        <pt x="749" y="-29" on="0"/>
        <pt x="518" y="-29" on="1"/>
        <pt x="389" y="-29" on="0"/>
        <pt x="189" y="66" on="0"/>
        <pt x="82" y="236" on="0"/>
        <pt x="82" y="340" on="1"/>
        <pt x="82" y="454" on="0"/>
        <pt x="207" y="571" on="0"/>
        <pt x="328" y="571" on="1"/>
        <pt x="276" y="475" on="0"/>
        <pt x="276" y="358" on="1"/>
        <pt x="276" y="228" on="0"/>
        <pt x="403" y="80" on="0"/>
        <pt x="514" y="80" on="1"/>
        <pt x="666" y="80" on="0"/>
        <pt x="813" y="231" on="0"/>
        <pt x="813" y="399" on="1"/>
        <pt x="813" y="560" on="0"/>
        <pt x="632" y="729" on="0"/>
        <pt x="461" y="729" on="1"/>
        <pt x="369" y="729" on="1"/>
        <pt x="369" y="840" on="1"/>
        <pt x="461" y="840" on="1"/>
        <pt x="601" y="840" on="0"/>
        <pt x="782" y="997" on="0"/>
        <pt x="782" y="1116" on="1"/>
        <pt x="782" y="1389" on="0"/>
        <pt x="561" y="1389" on="1"/>
        <pt x="520" y="1389" on="0"/>
        <pt x="457" y="1369" on="0"/>
        <pt x="400" y="1345" on="0"/>
        <pt x="342" y="1325" on="0"/>
        <pt x="307" y="1325" on="1"/>
        <pt x="258" y="1325" on="0"/>
        <pt x="201" y="1388" on="0"/>
        <pt x="201" y="1434" on="1"/>
        <pt x="201" y="1543" on="0"/>
        <pt x="301" y="1567" on="1"/>
        <pt x="310" y="1523" on="0"/>
        <pt x="350" y="1466" on="0"/>
        <pt x="391" y="1466" on="1"/>
        <pt x="424" y="1466" on="0"/>
        <pt x="480" y="1475" on="1"/>
        <pt x="536" y="1483" on="0"/>
      </contour>
      <contour>
        <pt x="516" y="1556" on="1"/>
      </contour>
    </TTGlyph>
    <TTGlyph name="uni10DF" xMin="59" yMin="-502" xMax="1001" yMax="1098">
      <contour>
        <pt x="428" y="963" on="1"/>
        <pt x="453" y="950" on="0"/>
        <pt x="552" y="930" on="0"/>
        <pt x="608" y="930" on="1"/>
        <pt x="701" y="930" on="0"/>
        <pt x="809" y="1018" on="0"/>
        <pt x="809" y="1098" on="1"/>
        <pt x="1001" y="1098" on="1"/>
        <pt x="1001" y="4" on="1"/>
        <pt x="1001" y="-239" on="0"/>
        <pt x="752" y="-502" on="0"/>
        <pt x="528" y="-502" on="1"/>
        <pt x="391" y="-502" on="0"/>
        <pt x="182" y="-408" on="0"/>
        <pt x="72" y="-240" on="0"/>
        <pt x="72" y="-133" on="1"/>
        <pt x="72" y="-19" on="0"/>
        <pt x="197" y="98" on="0"/>
        <pt x="317" y="98" on="1"/>
        <pt x="266" y="0" on="0"/>
        <pt x="266" y="-115" on="1"/>
        <pt x="266" y="-247" on="0"/>
        <pt x="399" y="-393" on="0"/>
        <pt x="524" y="-393" on="1"/>
        <pt x="667" y="-393" on="0"/>
        <pt x="809" y="-216" on="0"/>
        <pt x="809" y="-33" on="1"/>
        <pt x="809" y="713" on="1"/>
        <pt x="809" y="742" on="0"/>
        <pt x="821" y="918" on="1"/>
        <pt x="809" y="918" on="1"/>
        <pt x="760" y="864" on="0"/>
        <pt x="650" y="822" on="0"/>
        <pt x="573" y="821" on="1"/>
        <pt x="645" y="756" on="0"/>
        <pt x="645" y="651" on="1"/>
        <pt x="645" y="540" on="0"/>
        <pt x="487" y="410" on="0"/>
        <pt x="350" y="410" on="1"/>
        <pt x="222" y="410" on="0"/>
        <pt x="59" y="532" on="0"/>
        <pt x="59" y="621" on="1"/>
        <pt x="59" y="676" on="0"/>
        <pt x="136" y="743" on="0"/>
        <pt x="207" y="743" on="1"/>
        <pt x="207" y="628" on="0"/>
        <pt x="277" y="518" on="0"/>
        <pt x="352" y="518" on="1"/>
        <pt x="479" y="518" on="0"/>
        <pt x="479" y="676" on="1"/>
        <pt x="479" y="727" on="0"/>
        <pt x="434" y="823" on="0"/>
        <pt x="387" y="854" on="1"/>
      </contour>
    </TTGlyph>
    <TTGlyph name="uni10E0" xMin="113" yMin="-20" xMax="1595" yMax="1556">
      <contour>
        <pt x="539" y="1118" on="1"/>
        <pt x="750" y="1118" on="0"/>
        <pt x="850" y="928" on="1"/>
        <pt x="858" y="928" on="1"/>
        <pt x="901" y="1014" on="0"/>
        <pt x="1058" y="1118" on="0"/>
        <pt x="1174" y="1118" on="1"/>
        <pt x="1301" y="1118" on="0"/>
        <pt x="1492" y="978" on="0"/>
        <pt x="1595" y="711" on="0"/>
        <pt x="1595" y="526" on="1"/>
        <pt x="1595" y="378" on="0"/>
        <pt x="1518" y="127" on="0"/>
        <pt x="1382" y="-20" on="0"/>
        <pt x="1305" y="-20" on="1"/>
        <pt x="1279" y="-20" on="0"/>
        <pt x="1243" y="12" on="0"/>
        <pt x="1243" y="35" on="1"/>
        <pt x="1324" y="75" on="0"/>
        <pt x="1397" y="311" on="0"/>
        <pt x="1397" y="526" on="1"/>
        <pt x="1397" y="759" on="0"/>
        <pt x="1283" y="1008" on="0"/>
        <pt x="1169" y="1008" on="1"/>
        <pt x="1064" y="1008" on="0"/>
        <pt x="950" y="816" on="0"/>
        <pt x="950" y="639" on="1"/>
        <pt x="950" y="471" on="1"/>
        <pt x="758" y="471" on="1"/>
        <pt x="758" y="635" on="1"/>
        <pt x="758" y="819" on="0"/>
        <pt x="654" y="1008" on="0"/>
        <pt x="541" y="1008" on="1"/>
        <pt x="424" y="1008" on="0"/>
        <pt x="311" y="769" on="0"/>
        <pt x="311" y="526" on="1"/>
        <pt x="311" y="311" on="0"/>
        <pt x="385" y="75" on="0"/>
        <pt x="465" y="35" on="1"/>
        <pt x="465" y="12" on="0"/>
        <pt x="429" y="-20" on="0"/>
        <pt x="403" y="-20" on="1"/>
        <pt x="325" y="-20" on="0"/>
        <pt x="190" y="128" on="0"/>
        <pt x="113" y="378" on="0"/>
        <pt x="113" y="526" on="1"/>
        <pt x="113" y="807" on="0"/>
        <pt x="356" y="1282" on="0"/>
        <pt x="777" y="1540" on="0"/>
        <pt x="1042" y="1540" on="1"/>
        <pt x="1135" y="1540" on="0"/>
        <pt x="1243" y="1469" on="0"/>
        <pt x="1243" y="1405" on="1"/>
        <pt x="1243" y="1355" on="0"/>
        <pt x="1173" y="1293" on="0"/>
        <pt x="1122" y="1284" on="1"/>
        <pt x="1103" y="1349" on="0"/>
        <pt x="1006" y="1401" on="0"/>
        <pt x="926" y="1401" on="1"/>
        <pt x="755" y="1401" on="0"/>
        <pt x="480" y="1244" on="0"/>
        <pt x="391" y="1092" on="1"/>
        <pt x="452" y="1118" on="0"/>
      </contour>
      <contour>
        <pt x="1146" y="1556" on="1"/>
      </contour>
    </TTGlyph>
    <TTGlyph name="uni10E1" xMin="47" yMin="-20" xMax="1153" yMax="1556">
      <contour>
        <pt x="670" y="-20" on="1"/>
        <pt x="436" y="-20" on="0"/>
        <pt x="221" y="212" on="0"/>
        <pt x="221" y="471" on="1"/>
        <pt x="221" y="1331" on="1"/>
        <pt x="221" y="1401" on="0"/>
        <pt x="148" y="1470" on="0"/>
        <pt x="55" y="1470" on="1"/>
        <pt x="47" y="1470" on="1"/>
        <pt x="47" y="1556" on="1"/>
        <pt x="414" y="1556" on="1"/>
        <pt x="414" y="477" on="1"/>
        <pt x="414" y="270" on="0"/>
        <pt x="528" y="106" on="0"/>
        <pt x="670" y="106" on="1"/>
        <pt x="806" y="106" on="0"/>
        <pt x="954" y="314" on="0"/>
        <pt x="954" y="506" on="1"/>
        <pt x="954" y="610" on="0"/>
        <pt x="925" y="784" on="0"/>
        <pt x="869" y="937" on="0"/>
        <pt x="805" y="1051" on="1"/>
        <pt x="891" y="1118" on="1"/>
        <pt x="1020" y="994" on="0"/>
        <pt x="1153" y="680" on="0"/>
        <pt x="1153" y="500" on="1"/>
        <pt x="1153" y="263" on="0"/>
        <pt x="894" y="-20" on="0"/>
      </contour>
    </TTGlyph>
    <TTGlyph name="uni10E2" xMin="113" yMin="-502" xMax="1423" yMax="1567">
      <contour>
        <pt x="1423" y="301" on="1"/>
        <pt x="1423" y="-74" on="0"/>
        <pt x="1079" y="-502" on="0"/>
        <pt x="770" y="-502" on="1"/>
        <pt x="453" y="-502" on="0"/>
        <pt x="113" y="-86" on="0"/>
        <pt x="113" y="303" on="1"/>
        <pt x="113" y="644" on="0"/>
        <pt x="383" y="1041" on="0"/>
        <pt x="635" y="1081" on="1"/>
        <pt x="561" y="1135" on="0"/>
        <pt x="498" y="1248" on="0"/>
        <pt x="498" y="1323" on="1"/>
        <pt x="498" y="1434" on="0"/>
        <pt x="642" y="1567" on="0"/>
        <pt x="766" y="1567" on="1"/>
        <pt x="891" y="1567" on="0"/>
        <pt x="1038" y="1433" on="0"/>
        <pt x="1038" y="1317" on="1"/>
        <pt x="1038" y="1187" on="0"/>
        <pt x="899" y="1083" on="1"/>
        <pt x="1150" y="1042" on="0"/>
        <pt x="1423" y="630" on="0"/>
      </contour>
      <contour>
        <pt x="311" y="301" on="1"/>
        <pt x="311" y="-59" on="0"/>
        <pt x="537" y="-395" on="0"/>
        <pt x="770" y="-395" on="1"/>
        <pt x="1003" y="-395" on="0"/>
        <pt x="1225" y="-59" on="0"/>
        <pt x="1225" y="301" on="1"/>
        <pt x="1225" y="598" on="0"/>
        <pt x="1076" y="923" on="0"/>
        <pt x="926" y="973" on="1"/>
        <pt x="992" y="917" on="0"/>
        <pt x="1049" y="800" on="0"/>
        <pt x="1049" y="727" on="1"/>
        <pt x="1049" y="608" on="0"/>
        <pt x="895" y="455" on="0"/>
        <pt x="768" y="455" on="1"/>
        <pt x="640" y="455" on="0"/>
        <pt x="487" y="606" on="0"/>
        <pt x="487" y="733" on="1"/>
        <pt x="487" y="790" on="0"/>
        <pt x="541" y="911" on="0"/>
        <pt x="594" y="965" on="1"/>
        <pt x="451" y="911" on="0"/>
        <pt x="311" y="587" on="0"/>
      </contour>
      <contour>
        <pt x="901" y="723" on="1"/>
        <pt x="901" y="899" on="0"/>
        <pt x="770" y="995" on="1"/>
        <pt x="691" y="941" on="0"/>
        <pt x="631" y="817" on="0"/>
        <pt x="631" y="725" on="1"/>
        <pt x="631" y="647" on="0"/>
        <pt x="704" y="561" on="0"/>
        <pt x="766" y="561" on="1"/>
        <pt x="825" y="561" on="0"/>
        <pt x="901" y="651" on="0"/>
      </contour>
      <contour>
        <pt x="641" y="1321" on="1"/>
        <pt x="641" y="1185" on="0"/>
        <pt x="760" y="1094" on="1"/>
        <pt x="823" y="1138" on="0"/>
        <pt x="871" y="1197" on="0"/>
        <pt x="891" y="1270" on="0"/>
        <pt x="891" y="1319" on="1"/>
        <pt x="891" y="1385" on="0"/>
        <pt x="824" y="1460" on="0"/>
        <pt x="764" y="1460" on="1"/>
        <pt x="710" y="1460" on="0"/>
        <pt x="641" y="1386" on="0"/>
      </contour>
    </TTGlyph>
    <TTGlyph name="uni10E3" xMin="31" yMin="-502" xMax="1104" yMax="1118">
      <contour>
        <pt x="442" y="614" on="1"/>
        <pt x="442" y="635" on="1"/>
        <pt x="442" y="820" on="0"/>
        <pt x="370" y="1008" on="0"/>
        <pt x="289" y="1008" on="1"/>
        <pt x="218" y="1008" on="0"/>
        <pt x="154" y="909" on="0"/>
        <pt x="154" y="801" on="1"/>
        <pt x="95" y="801" on="0"/>
        <pt x="31" y="847" on="0"/>
        <pt x="31" y="903" on="1"/>
        <pt x="31" y="958" on="0"/>
        <pt x="95" y="1058" on="0"/>
        <pt x="209" y="1118" on="0"/>
        <pt x="291" y="1118" on="1"/>
        <pt x="385" y="1118" on="0"/>
        <pt x="506" y="1019" on="0"/>
        <pt x="532" y="928" on="1"/>
        <pt x="541" y="928" on="1"/>
        <pt x="578" y="1021" on="0"/>
        <pt x="702" y="1118" on="0"/>
        <pt x="784" y="1118" on="1"/>
        <pt x="948" y="1118" on="0"/>
        <pt x="1104" y="891" on="0"/>
        <pt x="1104" y="664" on="1"/>
        <pt x="1104" y="4" on="1"/>
        <pt x="1104" y="-238" on="0"/>
        <pt x="833" y="-502" on="0"/>
        <pt x="592" y="-502" on="1"/>
        <pt x="443" y="-502" on="0"/>
        <pt x="217" y="-408" on="0"/>
        <pt x="96" y="-240" on="0"/>
        <pt x="96" y="-133" on="1"/>
        <pt x="96" y="-19" on="0"/>
        <pt x="222" y="98" on="0"/>
        <pt x="342" y="98" on="1"/>
        <pt x="289" y="0" on="0"/>
        <pt x="289" y="-115" on="1"/>
        <pt x="289" y="-247" on="0"/>
        <pt x="443" y="-393" on="0"/>
        <pt x="586" y="-393" on="1"/>
        <pt x="749" y="-393" on="0"/>
        <pt x="911" y="-217" on="0"/>
        <pt x="911" y="-33" on="1"/>
        <pt x="911" y="670" on="1"/>
        <pt x="911" y="846" on="0"/>
        <pt x="852" y="1008" on="0"/>
        <pt x="778" y="1008" on="1"/>
        <pt x="722" y="1008" on="0"/>
        <pt x="665" y="935" on="0"/>
        <pt x="635" y="776" on="0"/>
        <pt x="635" y="639" on="1"/>
        <pt x="635" y="614" on="1"/>
      </contour>
    </TTGlyph>
    <TTGlyph name="uni10E4" xMin="92" yMin="-502" xMax="1710" yMax="1118">
      <contour>
        <pt x="1057" y="-502" on="1"/>
        <pt x="868" y="-502" on="0"/>
        <pt x="579" y="-415" on="0"/>
        <pt x="424" y="-260" on="0"/>
        <pt x="424" y="-160" on="1"/>
        <pt x="424" y="-60" on="0"/>
        <pt x="551" y="49" on="0"/>
        <pt x="670" y="49" on="1"/>
        <pt x="618" y="-47" on="0"/>
        <pt x="618" y="-143" on="1"/>
        <pt x="618" y="-263" on="0"/>
        <pt x="840" y="-393" on="0"/>
        <pt x="1049" y="-393" on="1"/>
        <pt x="1283" y="-393" on="0"/>
        <pt x="1511" y="-220" on="0"/>
        <pt x="1511" y="-33" on="1"/>
        <pt x="1511" y="146" on="0"/>
        <pt x="1305" y="340" on="0"/>
        <pt x="1106" y="340" on="1"/>
        <pt x="1085" y="340" on="1"/>
        <pt x="1085" y="451" on="1"/>
        <pt x="1106" y="451" on="1"/>
        <pt x="1244" y="451" on="0"/>
        <pt x="1427" y="612" on="0"/>
        <pt x="1427" y="739" on="1"/>
        <pt x="1427" y="1024" on="0"/>
        <pt x="1184" y="1024" on="1"/>
        <pt x="1109" y="1024" on="0"/>
        <pt x="976" y="965" on="0"/>
        <pt x="936" y="911" on="1"/>
        <pt x="999" y="795" on="0"/>
        <pt x="999" y="639" on="1"/>
        <pt x="999" y="413" on="0"/>
        <pt x="755" y="156" on="0"/>
        <pt x="543" y="156" on="1"/>
        <pt x="333" y="156" on="0"/>
        <pt x="92" y="416" on="0"/>
        <pt x="92" y="639" on="1"/>
        <pt x="92" y="864" on="0"/>
        <pt x="330" y="1118" on="0"/>
        <pt x="549" y="1118" on="1"/>
        <pt x="742" y="1118" on="0"/>
        <pt x="860" y="1010" on="1"/>
        <pt x="984" y="1118" on="0"/>
        <pt x="1184" y="1118" on="1"/>
        <pt x="1398" y="1118" on="0"/>
        <pt x="1622" y="933" on="0"/>
        <pt x="1622" y="750" on="1"/>
        <pt x="1622" y="628" on="0"/>
        <pt x="1454" y="443" on="0"/>
        <pt x="1313" y="410" on="1"/>
        <pt x="1313" y="399" on="1"/>
        <pt x="1498" y="379" on="0"/>
        <pt x="1710" y="155" on="0"/>
        <pt x="1710" y="-23" on="1"/>
        <pt x="1710" y="-168" on="0"/>
        <pt x="1554" y="-385" on="0"/>
        <pt x="1256" y="-502" on="0"/>
      </contour>
      <contour>
        <pt x="281" y="639" on="1"/>
        <pt x="281" y="462" on="0"/>
        <pt x="423" y="262" on="0"/>
        <pt x="547" y="262" on="1"/>
        <pt x="674" y="262" on="0"/>
        <pt x="811" y="459" on="0"/>
        <pt x="811" y="639" on="1"/>
        <pt x="811" y="817" on="0"/>
        <pt x="671" y="1012" on="0"/>
        <pt x="545" y="1012" on="1"/>
        <pt x="416" y="1012" on="0"/>
        <pt x="281" y="822" on="0"/>
      </contour>
    </TTGlyph>
    <TTGlyph name="uni10E5" xMin="72" yMin="-502" xMax="1001" yMax="1556">
      <contour>
        <pt x="809" y="1331" on="1"/>
        <pt x="809" y="1381" on="0"/>
        <pt x="774" y="1442" on="0"/>
        <pt x="707" y="1470" on="0"/>
        <pt x="641" y="1470" on="1"/>
        <pt x="614" y="1470" on="1"/>
        <pt x="614" y="1556" on="1"/>
        <pt x="1001" y="1556" on="1"/>
        <pt x="1001" y="4" on="1"/>
        <pt x="1001" y="-239" on="0"/>
        <pt x="752" y="-502" on="0"/>
        <pt x="528" y="-502" on="1"/>
        <pt x="391" y="-502" on="0"/>
        <pt x="182" y="-408" on="0"/>
        <pt x="72" y="-240" on="0"/>
        <pt x="72" y="-133" on="1"/>
        <pt x="72" y="-19" on="0"/>
        <pt x="197" y="98" on="0"/>
        <pt x="317" y="98" on="1"/>
        <pt x="266" y="0" on="0"/>
        <pt x="266" y="-115" on="1"/>
        <pt x="266" y="-247" on="0"/>
        <pt x="399" y="-393" on="0"/>
        <pt x="524" y="-393" on="1"/>
        <pt x="667" y="-393" on="0"/>
        <pt x="809" y="-216" on="0"/>
        <pt x="809" y="-33" on="1"/>
        <pt x="809" y="690" on="1"/>
        <pt x="809" y="818" on="0"/>
        <pt x="762" y="946" on="0"/>
        <pt x="660" y="1010" on="0"/>
        <pt x="573" y="1010" on="1"/>
        <pt x="483" y="1010" on="0"/>
        <pt x="377" y="908" on="0"/>
        <pt x="377" y="817" on="1"/>
        <pt x="377" y="733" on="0"/>
        <pt x="428" y="670" on="1"/>
        <pt x="308" y="670" on="0"/>
        <pt x="182" y="758" on="0"/>
        <pt x="182" y="842" on="1"/>
        <pt x="182" y="960" on="0"/>
        <pt x="390" y="1118" on="0"/>
        <pt x="555" y="1118" on="1"/>
        <pt x="634" y="1118" on="0"/>
        <pt x="766" y="1070" on="0"/>
        <pt x="809" y="1022" on="1"/>
        <pt x="821" y="1022" on="1"/>
        <pt x="809" y="1198" on="0"/>
        <pt x="809" y="1227" on="1"/>
      </contour>
    </TTGlyph>
    <TTGlyph name="uni10E6" xMin="113" yMin="-492" xMax="1595" yMax="1118">
      <contour>
        <pt x="113" y="551" on="1"/>
        <pt x="113" y="822" on="0"/>
        <pt x="334" y="1118" on="0"/>
        <pt x="539" y="1118" on="1"/>
        <pt x="748" y="1118" on="0"/>
        <pt x="848" y="928" on="1"/>
        <pt x="858" y="928" on="1"/>
        <pt x="901" y="1014" on="0"/>
        <pt x="1057" y="1118" on="0"/>
        <pt x="1171" y="1118" on="1"/>
        <pt x="1298" y="1118" on="0"/>
        <pt x="1490" y="978" on="0"/>
        <pt x="1595" y="712" on="0"/>
        <pt x="1595" y="526" on="1"/>
        <pt x="1595" y="378" on="0"/>
        <pt x="1517" y="125" on="0"/>
        <pt x="1383" y="-20" on="0"/>
        <pt x="1305" y="-20" on="1"/>
        <pt x="1279" y="-20" on="0"/>
        <pt x="1243" y="12" on="0"/>
        <pt x="1243" y="35" on="1"/>
        <pt x="1325" y="75" on="0"/>
        <pt x="1397" y="312" on="0"/>
        <pt x="1397" y="526" on="1"/>
        <pt x="1397" y="763" on="0"/>
        <pt x="1279" y="1008" on="0"/>
        <pt x="1167" y="1008" on="1"/>
        <pt x="1064" y="1008" on="0"/>
        <pt x="950" y="815" on="0"/>
        <pt x="950" y="639" on="1"/>
        <pt x="950" y="471" on="1"/>
        <pt x="758" y="471" on="1"/>
        <pt x="758" y="635" on="1"/>
        <pt x="758" y="819" on="0"/>
        <pt x="654" y="1008" on="0"/>
        <pt x="541" y="1008" on="1"/>
        <pt x="418" y="1008" on="0"/>
        <pt x="311" y="783" on="0"/>
        <pt x="311" y="551" on="1"/>
        <pt x="311" y="341" on="0"/>
        <pt x="444" y="9" on="0"/>
        <pt x="691" y="-174" on="0"/>
        <pt x="856" y="-174" on="1"/>
        <pt x="955" y="-169" on="1"/>
        <pt x="1018" y="-164" on="0"/>
        <pt x="1075" y="-164" on="1"/>
        <pt x="1139" y="-164" on="0"/>
        <pt x="1212" y="-243" on="0"/>
        <pt x="1212" y="-309" on="1"/>
        <pt x="1212" y="-356" on="0"/>
        <pt x="1143" y="-428" on="0"/>
        <pt x="1092" y="-436" on="1"/>
        <pt x="1077" y="-363" on="0"/>
        <pt x="849" y="-279" on="0"/>
        <pt x="653" y="-279" on="1"/>
        <pt x="561" y="-279" on="0"/>
        <pt x="430" y="-301" on="0"/>
        <pt x="335" y="-340" on="0"/>
        <pt x="276" y="-387" on="1"/>
        <pt x="227" y="-334" on="1"/>
        <pt x="272" y="-262" on="0"/>
        <pt x="423" y="-169" on="0"/>
        <pt x="502" y="-166" on="1"/>
        <pt x="325" y="-88" on="0"/>
        <pt x="113" y="300" on="0"/>
      </contour>
      <contour>
        <pt x="1290" y="-492" on="1"/>
      </contour>
    </TTGlyph>
    <TTGlyph name="uni10E7" xMin="72" yMin="-502" xMax="1001" yMax="1118">
      <contour>
        <pt x="1001" y="1098" on="1"/>
        <pt x="1001" y="4" on="1"/>
        <pt x="1001" y="-239" on="0"/>
        <pt x="752" y="-502" on="0"/>
        <pt x="528" y="-502" on="1"/>
        <pt x="391" y="-502" on="0"/>
        <pt x="182" y="-408" on="0"/>
        <pt x="72" y="-240" on="0"/>
        <pt x="72" y="-133" on="1"/>
        <pt x="72" y="-19" on="0"/>
        <pt x="197" y="98" on="0"/>
        <pt x="317" y="98" on="1"/>
        <pt x="266" y="0" on="0"/>
        <pt x="266" y="-115" on="1"/>
        <pt x="266" y="-247" on="0"/>
        <pt x="399" y="-393" on="0"/>
        <pt x="524" y="-393" on="1"/>
        <pt x="667" y="-393" on="0"/>
        <pt x="809" y="-216" on="0"/>
        <pt x="809" y="-33" on="1"/>
        <pt x="809" y="397" on="1"/>
        <pt x="809" y="426" on="0"/>
        <pt x="821" y="602" on="1"/>
        <pt x="809" y="602" on="1"/>
        <pt x="765" y="556" on="0"/>
        <pt x="623" y="506" on="0"/>
        <pt x="535" y="506" on="1"/>
        <pt x="358" y="506" on="0"/>
        <pt x="129" y="690" on="0"/>
        <pt x="129" y="834" on="1"/>
        <pt x="129" y="964" on="0"/>
        <pt x="267" y="1118" on="0"/>
        <pt x="375" y="1118" on="1"/>
        <pt x="324" y="1043" on="0"/>
        <pt x="324" y="864" on="1"/>
        <pt x="324" y="744" on="0"/>
        <pt x="450" y="614" on="0"/>
        <pt x="565" y="614" on="1"/>
        <pt x="653" y="614" on="0"/>
        <pt x="759" y="678" on="0"/>
        <pt x="809" y="804" on="0"/>
        <pt x="809" y="934" on="1"/>
        <pt x="809" y="1098" on="1"/>
      </contour>
    </TTGlyph>
    <TTGlyph name="uni10E8" xMin="51" yMin="-20" xMax="1067" yMax="1567">
      <contour>
        <pt x="309" y="492" on="1"/>
        <pt x="309" y="283" on="0"/>
        <pt x="446" y="86" on="0"/>
        <pt x="596" y="86" on="1"/>
        <pt x="870" y="86" on="0"/>
        <pt x="870" y="551" on="1"/>
        <pt x="870" y="717" on="0"/>
        <pt x="729" y="897" on="0"/>
        <pt x="596" y="897" on="1"/>
        <pt x="446" y="897" on="0"/>
        <pt x="309" y="708" on="0"/>
      </contour>
      <contour>
        <pt x="299" y="1460" on="1"/>
        <pt x="174" y="1460" on="0"/>
        <pt x="174" y="1249" on="1"/>
        <pt x="51" y="1249" on="0"/>
        <pt x="51" y="1352" on="1"/>
        <pt x="51" y="1449" on="0"/>
        <pt x="188" y="1567" on="0"/>
        <pt x="297" y="1567" on="1"/>
        <pt x="462" y="1567" on="0"/>
        <pt x="512" y="1401" on="1"/>
        <pt x="520" y="1401" on="1"/>
        <pt x="587" y="1567" on="0"/>
        <pt x="756" y="1567" on="1"/>
        <pt x="919" y="1567" on="0"/>
        <pt x="1067" y="1193" on="0"/>
        <pt x="1067" y="819" on="1"/>
        <pt x="1067" y="531" on="0"/>
        <pt x="971" y="161" on="0"/>
        <pt x="769" y="-20" on="0"/>
        <pt x="596" y="-20" on="1"/>
        <pt x="358" y="-20" on="0"/>
        <pt x="113" y="244" on="0"/>
        <pt x="113" y="492" on="1"/>
        <pt x="113" y="740" on="0"/>
        <pt x="353" y="1001" on="0"/>
        <pt x="578" y="1001" on="1"/>
        <pt x="774" y="1001" on="0"/>
        <pt x="862" y="885" on="1"/>
        <pt x="870" y="885" on="1"/>
        <pt x="870" y="1106" on="0"/>
        <pt x="842" y="1354" on="0"/>
        <pt x="787" y="1460" on="0"/>
        <pt x="729" y="1460" on="1"/>
        <pt x="659" y="1460" on="0"/>
        <pt x="598" y="1305" on="0"/>
        <pt x="598" y="1163" on="1"/>
        <pt x="426" y="1163" on="1"/>
        <pt x="426" y="1320" on="0"/>
        <pt x="371" y="1460" on="0"/>
      </contour>
    </TTGlyph>
    <TTGlyph name="uni10E9" xMin="37" yMin="-20" xMax="1161" yMax="1567">
      <contour>
        <pt x="414" y="1092" on="1"/>
        <pt x="414" y="946" on="1"/>
        <pt x="414" y="888" on="0"/>
        <pt x="406" y="772" on="1"/>
        <pt x="416" y="772" on="1"/>
        <pt x="458" y="854" on="0"/>
        <pt x="624" y="958" on="0"/>
        <pt x="721" y="958" on="1"/>
        <pt x="934" y="958" on="0"/>
        <pt x="1161" y="714" on="0"/>
        <pt x="1161" y="485" on="1"/>
        <pt x="1161" y="337" on="0"/>
        <pt x="1035" y="90" on="0"/>
        <pt x="899" y="-20" on="1"/>
        <pt x="813" y="47" on="1"/>
        <pt x="902" y="173" on="0"/>
        <pt x="963" y="362" on="0"/>
        <pt x="963" y="481" on="1"/>
        <pt x="963" y="654" on="0"/>
        <pt x="826" y="827" on="0"/>
        <pt x="672" y="827" on="1"/>
        <pt x="552" y="827" on="0"/>
        <pt x="414" y="673" on="0"/>
        <pt x="414" y="541" on="1"/>
        <pt x="414" y="223" on="1"/>
        <pt x="414" y="152" on="0"/>
        <pt x="484" y="86" on="0"/>
        <pt x="578" y="86" on="1"/>
        <pt x="588" y="86" on="1"/>
        <pt x="588" y="0" on="1"/>
        <pt x="37" y="0" on="1"/>
        <pt x="37" y="86" on="1"/>
        <pt x="53" y="86" on="1"/>
        <pt x="148" y="86" on="0"/>
        <pt x="221" y="159" on="0"/>
        <pt x="221" y="233" on="1"/>
        <pt x="221" y="1184" on="1"/>
        <pt x="221" y="1363" on="0"/>
        <pt x="375" y="1567" on="0"/>
        <pt x="512" y="1567" on="1"/>
        <pt x="632" y="1567" on="0"/>
        <pt x="766" y="1448" on="0"/>
        <pt x="766" y="1325" on="1"/>
        <pt x="766" y="1092" on="0"/>
        <pt x="459" y="1092" on="1"/>
      </contour>
      <contour>
        <pt x="414" y="1190" on="1"/>
        <pt x="451" y="1190" on="1"/>
        <pt x="555" y="1190" on="0"/>
        <pt x="655" y="1257" on="0"/>
        <pt x="655" y="1331" on="1"/>
        <pt x="655" y="1460" on="0"/>
        <pt x="537" y="1460" on="1"/>
        <pt x="414" y="1460" on="0"/>
        <pt x="414" y="1241" on="1"/>
      </contour>
    </TTGlyph>
    <TTGlyph name="uni10EA" xMin="113" yMin="-502" xMax="1194" yMax="1118">
      <contour>
        <pt x="410" y="1030" on="1"/>
        <pt x="354" y="944" on="0"/>
        <pt x="301" y="592" on="0"/>
        <pt x="301" y="303" on="1"/>
        <pt x="301" y="40" on="0"/>
        <pt x="375" y="-260" on="0"/>
        <pt x="537" y="-395" on="0"/>
        <pt x="686" y="-395" on="1"/>
        <pt x="834" y="-395" on="0"/>
        <pt x="995" y="-236" on="0"/>
        <pt x="995" y="-86" on="1"/>
        <pt x="995" y="67" on="0"/>
        <pt x="811" y="227" on="0"/>
        <pt x="643" y="227" on="1"/>
        <pt x="551" y="227" on="1"/>
        <pt x="551" y="338" on="1"/>
        <pt x="643" y="338" on="1"/>
        <pt x="795" y="338" on="0"/>
        <pt x="965" y="481" on="0"/>
        <pt x="965" y="602" on="1"/>
        <pt x="965" y="728" on="0"/>
        <pt x="854" y="864" on="0"/>
        <pt x="750" y="864" on="1"/>
        <pt x="638" y="864" on="0"/>
        <pt x="514" y="937" on="0"/>
        <pt x="514" y="1008" on="1"/>
        <pt x="514" y="1054" on="0"/>
        <pt x="593" y="1118" on="0"/>
        <pt x="641" y="1118" on="1"/>
        <pt x="682" y="1114" on="1"/>
        <pt x="676" y="1087" on="0"/>
        <pt x="676" y="1065" on="1"/>
        <pt x="676" y="1006" on="0"/>
        <pt x="728" y="958" on="0"/>
        <pt x="797" y="958" on="1"/>
        <pt x="963" y="958" on="0"/>
        <pt x="1159" y="774" on="0"/>
        <pt x="1159" y="612" on="1"/>
        <pt x="1159" y="484" on="0"/>
        <pt x="1003" y="320" on="0"/>
        <pt x="850" y="297" on="1"/>
        <pt x="850" y="287" on="1"/>
        <pt x="1009" y="270" on="0"/>
        <pt x="1194" y="74" on="0"/>
        <pt x="1194" y="-82" on="1"/>
        <pt x="1194" y="-281" on="0"/>
        <pt x="915" y="-502" on="0"/>
        <pt x="662" y="-502" on="1"/>
        <pt x="389" y="-502" on="0"/>
        <pt x="113" y="-97" on="0"/>
        <pt x="113" y="303" on="1"/>
        <pt x="113" y="544" on="0"/>
        <pt x="225" y="975" on="0"/>
        <pt x="324" y="1098" on="1"/>
      </contour>
    </TTGlyph>
    <TTGlyph name="uni10EB" xMin="113" yMin="-20" xMax="1067" yMax="1567">
      <contour>
        <pt x="868" y="985" on="1"/>
        <pt x="860" y="1163" on="0"/>
        <pt x="776" y="1438" on="0"/>
        <pt x="713" y="1497" on="1"/>
        <pt x="784" y="1567" on="1"/>
        <pt x="940" y="1428" on="0"/>
        <pt x="1067" y="1035" on="0"/>
        <pt x="1067" y="698" on="1"/>
        <pt x="1067" y="333" on="0"/>
        <pt x="834" y="-20" on="0"/>
        <pt x="588" y="-20" on="1"/>
        <pt x="357" y="-20" on="0"/>
        <pt x="113" y="273" on="0"/>
        <pt x="113" y="551" on="1"/>
        <pt x="113" y="838" on="0"/>
        <pt x="348" y="1118" on="0"/>
        <pt x="565" y="1118" on="1"/>
        <pt x="673" y="1118" on="0"/>
        <pt x="813" y="1049" on="0"/>
        <pt x="860" y="985" on="1"/>
      </contour>
      <contour>
        <pt x="311" y="551" on="1"/>
        <pt x="311" y="308" on="0"/>
        <pt x="447" y="86" on="0"/>
        <pt x="592" y="86" on="1"/>
        <pt x="870" y="86" on="0"/>
        <pt x="870" y="612" on="1"/>
        <pt x="870" y="812" on="0"/>
        <pt x="733" y="1012" on="0"/>
        <pt x="590" y="1012" on="1"/>
        <pt x="444" y="1012" on="0"/>
        <pt x="311" y="792" on="0"/>
      </contour>
    </TTGlyph>
    <TTGlyph name="uni10EC" xMin="113" yMin="-20" xMax="1128" yMax="1567">
      <contour>
        <pt x="870" y="492" on="1"/>
        <pt x="870" y="707" on="0"/>
        <pt x="736" y="897" on="0"/>
        <pt x="584" y="897" on="1"/>
        <pt x="450" y="897" on="0"/>
        <pt x="309" y="717" on="0"/>
        <pt x="309" y="551" on="1"/>
        <pt x="309" y="86" on="0"/>
        <pt x="584" y="86" on="1"/>
        <pt x="733" y="86" on="0"/>
        <pt x="870" y="282" on="0"/>
      </contour>
      <contour>
        <pt x="879" y="1460" on="1"/>
        <pt x="811" y="1460" on="0"/>
        <pt x="754" y="1325" on="0"/>
        <pt x="754" y="1163" on="1"/>
        <pt x="582" y="1163" on="1"/>
        <pt x="582" y="1307" on="0"/>
        <pt x="520" y="1460" on="0"/>
        <pt x="451" y="1460" on="1"/>
        <pt x="392" y="1460" on="0"/>
        <pt x="336" y="1349" on="0"/>
        <pt x="309" y="1102" on="0"/>
        <pt x="309" y="885" on="1"/>
        <pt x="317" y="885" on="1"/>
        <pt x="405" y="1001" on="0"/>
        <pt x="602" y="1001" on="1"/>
        <pt x="826" y="1001" on="0"/>
        <pt x="1067" y="741" on="0"/>
        <pt x="1067" y="492" on="1"/>
        <pt x="1067" y="243" on="0"/>
        <pt x="819" y="-20" on="0"/>
        <pt x="584" y="-20" on="1"/>
        <pt x="408" y="-20" on="0"/>
        <pt x="206" y="166" on="0"/>
        <pt x="113" y="538" on="0"/>
        <pt x="113" y="819" on="1"/>
        <pt x="113" y="1196" on="0"/>
        <pt x="262" y="1567" on="0"/>
        <pt x="424" y="1567" on="1"/>
        <pt x="592" y="1567" on="0"/>
        <pt x="659" y="1401" on="1"/>
        <pt x="668" y="1401" on="1"/>
        <pt x="716" y="1567" on="0"/>
        <pt x="883" y="1567" on="1"/>
        <pt x="990" y="1567" on="0"/>
        <pt x="1128" y="1448" on="0"/>
        <pt x="1128" y="1352" on="1"/>
        <pt x="1128" y="1249" on="0"/>
        <pt x="1006" y="1249" on="1"/>
        <pt x="1006" y="1460" on="0"/>
      </contour>
    </TTGlyph>
    <TTGlyph name="uni10ED" xMin="61" yMin="-502" xMax="1032" yMax="1556">
      <contour>
        <pt x="694" y="891" on="1"/>
        <pt x="934" y="771" on="0"/>
        <pt x="934" y="649" on="1"/>
        <pt x="934" y="609" on="0"/>
        <pt x="903" y="565" on="1"/>
        <pt x="846" y="683" on="0"/>
        <pt x="694" y="768" on="1"/>
        <pt x="694" y="516" on="1"/>
        <pt x="694" y="451" on="0"/>
        <pt x="734" y="376" on="0"/>
        <pt x="776" y="344" on="1"/>
        <pt x="890" y="256" on="0"/>
        <pt x="990" y="138" on="0"/>
        <pt x="1032" y="9" on="0"/>
        <pt x="1032" y="-82" on="1"/>
        <pt x="1032" y="-287" on="0"/>
        <pt x="780" y="-502" on="0"/>
        <pt x="543" y="-502" on="1"/>
        <pt x="404" y="-502" on="0"/>
        <pt x="187" y="-407" on="0"/>
        <pt x="70" y="-238" on="0"/>
        <pt x="70" y="-133" on="1"/>
        <pt x="70" y="-19" on="0"/>
        <pt x="195" y="98" on="0"/>
        <pt x="315" y="98" on="1"/>
        <pt x="264" y="0" on="0"/>
        <pt x="264" y="-115" on="1"/>
        <pt x="264" y="-247" on="0"/>
        <pt x="416" y="-403" on="0"/>
        <pt x="543" y="-403" on="1"/>
        <pt x="682" y="-403" on="0"/>
        <pt x="831" y="-235" on="0"/>
        <pt x="831" y="-76" on="1"/>
        <pt x="831" y="34" on="0"/>
        <pt x="764" y="189" on="0"/>
        <pt x="690" y="244" on="1"/>
        <pt x="603" y="306" on="0"/>
        <pt x="537" y="379" on="0"/>
        <pt x="502" y="461" on="0"/>
        <pt x="502" y="516" on="1"/>
        <pt x="502" y="662" on="1"/>
        <pt x="468" y="603" on="0"/>
        <pt x="365" y="545" on="0"/>
        <pt x="305" y="545" on="1"/>
        <pt x="198" y="545" on="0"/>
        <pt x="61" y="674" on="0"/>
        <pt x="61" y="774" on="1"/>
        <pt x="61" y="875" on="0"/>
        <pt x="200" y="1004" on="0"/>
        <pt x="311" y="1004" on="1"/>
        <pt x="414" y="1004" on="0"/>
        <pt x="502" y="969" on="1"/>
        <pt x="502" y="1331" on="1"/>
        <pt x="502" y="1381" on="0"/>
        <pt x="467" y="1442" on="0"/>
        <pt x="400" y="1470" on="0"/>
        <pt x="334" y="1470" on="1"/>
        <pt x="307" y="1470" on="1"/>
        <pt x="307" y="1556" on="1"/>
        <pt x="694" y="1556" on="1"/>
      </contour>
      <contour>
        <pt x="346" y="672" on="1"/>
        <pt x="376" y="672" on="0"/>
        <pt x="446" y="719" on="0"/>
        <pt x="498" y="802" on="0"/>
        <pt x="502" y="846" on="1"/>
        <pt x="437" y="877" on="0"/>
        <pt x="354" y="877" on="1"/>
        <pt x="310" y="877" on="0"/>
        <pt x="250" y="816" on="0"/>
        <pt x="250" y="774" on="1"/>
        <pt x="250" y="728" on="0"/>
        <pt x="298" y="672" on="0"/>
      </contour>
    </TTGlyph>
    <TTGlyph name="uni10EE" xMin="27" yMin="-20" xMax="1161" yMax="1556">
      <contour>
        <pt x="682" y="967" on="1"/>
        <pt x="529" y="967" on="0"/>
        <pt x="403" y="769" on="0"/>
        <pt x="403" y="551" on="1"/>
        <pt x="403" y="308" on="0"/>
        <pt x="539" y="86" on="0"/>
        <pt x="684" y="86" on="1"/>
        <pt x="829" y="86" on="0"/>
        <pt x="963" y="310" on="0"/>
        <pt x="963" y="551" on="1"/>
        <pt x="963" y="772" on="0"/>
        <pt x="826" y="967" on="0"/>
      </contour>
      <contour>
        <pt x="403" y="936" on="1"/>
        <pt x="467" y="1018" on="0"/>
        <pt x="620" y="1098" on="0"/>
        <pt x="717" y="1098" on="1"/>
        <pt x="946" y="1098" on="0"/>
        <pt x="1161" y="828" on="0"/>
        <pt x="1161" y="551" on="1"/>
        <pt x="1161" y="-20" on="0"/>
        <pt x="680" y="-20" on="1"/>
        <pt x="449" y="-20" on="0"/>
        <pt x="211" y="274" on="0"/>
        <pt x="211" y="551" on="1"/>
        <pt x="211" y="1331" on="1"/>
        <pt x="211" y="1381" on="0"/>
        <pt x="176" y="1442" on="0"/>
        <pt x="109" y="1470" on="0"/>
        <pt x="43" y="1470" on="1"/>
        <pt x="27" y="1470" on="1"/>
        <pt x="27" y="1556" on="1"/>
        <pt x="403" y="1556" on="1"/>
        <pt x="403" y="1284" on="1"/>
        <pt x="403" y="1224" on="0"/>
        <pt x="395" y="936" on="1"/>
      </contour>
    </TTGlyph>
    <TTGlyph name="uni10EF" xMin="70" yMin="-502" xMax="1032" yMax="1098">
      <contour>
        <pt x="694" y="551" on="1"/>
        <pt x="694" y="418" on="1"/>
        <pt x="694" y="359" on="0"/>
        <pt x="732" y="293" on="0"/>
        <pt x="776" y="262" on="1"/>
        <pt x="928" y="157" on="0"/>
        <pt x="1032" y="2" on="0"/>
        <pt x="1032" y="-123" on="1"/>
        <pt x="1032" y="-308" on="0"/>
        <pt x="781" y="-502" on="0"/>
        <pt x="543" y="-502" on="1"/>
        <pt x="404" y="-502" on="0"/>
        <pt x="187" y="-407" on="0"/>
        <pt x="70" y="-238" on="0"/>
        <pt x="70" y="-133" on="1"/>
        <pt x="70" y="-19" on="0"/>
        <pt x="195" y="98" on="0"/>
        <pt x="315" y="98" on="1"/>
        <pt x="264" y="0" on="0"/>
        <pt x="264" y="-115" on="1"/>
        <pt x="264" y="-247" on="0"/>
        <pt x="416" y="-403" on="0"/>
        <pt x="543" y="-403" on="1"/>
        <pt x="682" y="-403" on="0"/>
        <pt x="834" y="-253" on="0"/>
        <pt x="834" y="-111" on="1"/>
        <pt x="834" y="85" on="0"/>
        <pt x="690" y="174" on="1"/>
        <pt x="574" y="248" on="0"/>
        <pt x="502" y="352" on="0"/>
        <pt x="502" y="418" on="1"/>
        <pt x="502" y="645" on="1"/>
        <pt x="215" y="786" on="1"/>
        <pt x="215" y="903" on="1"/>
        <pt x="502" y="762" on="1"/>
        <pt x="502" y="872" on="1"/>
        <pt x="502" y="943" on="0"/>
        <pt x="426" y="1012" on="0"/>
        <pt x="334" y="1012" on="1"/>
        <pt x="307" y="1012" on="1"/>
        <pt x="307" y="1098" on="1"/>
        <pt x="694" y="1098" on="1"/>
        <pt x="694" y="668" on="1"/>
        <pt x="981" y="526" on="1"/>
        <pt x="981" y="412" on="1"/>
      </contour>
    </TTGlyph>
    <TTGlyph name="uni10F0" xMin="66" yMin="-20" xMax="872" yMax="1567">
      <contour>
        <pt x="463" y="1483" on="1"/>
        <pt x="637" y="1483" on="0"/>
        <pt x="838" y="1344" on="0"/>
        <pt x="838" y="1225" on="1"/>
        <pt x="838" y="1132" on="0"/>
        <pt x="724" y="999" on="0"/>
        <pt x="631" y="971" on="1"/>
        <pt x="631" y="961" on="1"/>
        <pt x="750" y="934" on="0"/>
        <pt x="852" y="833" on="0"/>
        <pt x="852" y="739" on="1"/>
        <pt x="852" y="661" on="0"/>
        <pt x="745" y="552" on="0"/>
        <pt x="631" y="518" on="1"/>
        <pt x="631" y="508" on="1"/>
        <pt x="872" y="453" on="0"/>
        <pt x="872" y="268" on="1"/>
        <pt x="872" y="-20" on="0"/>
        <pt x="432" y="-20" on="1"/>
        <pt x="311" y="-20" on="0"/>
        <pt x="149" y="35" on="0"/>
        <pt x="66" y="134" on="0"/>
        <pt x="66" y="201" on="1"/>
        <pt x="66" y="332" on="0"/>
        <pt x="217" y="332" on="1"/>
        <pt x="217" y="215" on="0"/>
        <pt x="336" y="78" on="0"/>
        <pt x="442" y="78" on="1"/>
        <pt x="561" y="78" on="0"/>
        <pt x="674" y="169" on="0"/>
        <pt x="674" y="272" on="1"/>
        <pt x="674" y="366" on="0"/>
        <pt x="547" y="457" on="0"/>
        <pt x="434" y="457" on="1"/>
        <pt x="305" y="457" on="1"/>
        <pt x="305" y="567" on="1"/>
        <pt x="436" y="567" on="1"/>
        <pt x="657" y="567" on="0"/>
        <pt x="657" y="739" on="1"/>
        <pt x="657" y="834" on="0"/>
        <pt x="544" y="909" on="0"/>
        <pt x="424" y="909" on="1"/>
        <pt x="305" y="909" on="1"/>
        <pt x="305" y="1020" on="1"/>
        <pt x="426" y="1020" on="1"/>
        <pt x="529" y="1020" on="0"/>
        <pt x="643" y="1121" on="0"/>
        <pt x="643" y="1204" on="1"/>
        <pt x="643" y="1294" on="0"/>
        <pt x="549" y="1389" on="0"/>
        <pt x="459" y="1389" on="1"/>
        <pt x="418" y="1389" on="0"/>
        <pt x="358" y="1369" on="0"/>
        <pt x="305" y="1345" on="0"/>
        <pt x="250" y="1325" on="0"/>
        <pt x="215" y="1325" on="1"/>
        <pt x="166" y="1325" on="0"/>
        <pt x="109" y="1388" on="0"/>
        <pt x="109" y="1434" on="1"/>
        <pt x="109" y="1543" on="0"/>
        <pt x="209" y="1567" on="1"/>
        <pt x="218" y="1523" on="0"/>
        <pt x="258" y="1466" on="0"/>
        <pt x="299" y="1466" on="1"/>
        <pt x="329" y="1466" on="0"/>
        <pt x="373" y="1475" on="1"/>
        <pt x="417" y="1483" on="0"/>
      </contour>
      <contour>
        <pt x="589" y="1556" on="1"/>
      </contour>
    </TTGlyph>
    <TTGlyph name="uni10F1" xMin="113" yMin="-20" xMax="1102" yMax="1567">
      <contour>
        <pt x="610" y="1178" on="1"/>
        <pt x="610" y="979" on="0"/>
        <pt x="447" y="701" on="0"/>
        <pt x="301" y="649" on="1"/>
        <pt x="306" y="435" on="0"/>
        <pt x="375" y="190" on="0"/>
        <pt x="517" y="78" on="0"/>
        <pt x="645" y="78" on="1"/>
        <pt x="903" y="78" on="0"/>
        <pt x="903" y="266" on="1"/>
        <pt x="903" y="446" on="0"/>
        <pt x="664" y="446" on="1"/>
        <pt x="616" y="446" on="1"/>
        <pt x="616" y="557" on="1"/>
        <pt x="666" y="557" on="1"/>
        <pt x="783" y="557" on="0"/>
        <pt x="887" y="642" on="0"/>
        <pt x="887" y="723" on="1"/>
        <pt x="887" y="814" on="0"/>
        <pt x="780" y="889" on="0"/>
        <pt x="653" y="889" on="1"/>
        <pt x="645" y="889" on="1"/>
        <pt x="645" y="999" on="1"/>
        <pt x="655" y="999" on="1"/>
        <pt x="756" y="999" on="0"/>
        <pt x="872" y="1096" on="0"/>
        <pt x="872" y="1182" on="1"/>
        <pt x="872" y="1238" on="0"/>
        <pt x="834" y="1304" on="0"/>
        <pt x="772" y="1343" on="0"/>
        <pt x="716" y="1365" on="1"/>
        <pt x="637" y="1394" on="0"/>
        <pt x="637" y="1462" on="1"/>
        <pt x="637" y="1513" on="0"/>
        <pt x="698" y="1567" on="0"/>
        <pt x="741" y="1567" on="1"/>
        <pt x="778" y="1567" on="0"/>
        <pt x="803" y="1556" on="1"/>
        <pt x="778" y="1515" on="0"/>
        <pt x="778" y="1475" on="1"/>
        <pt x="778" y="1448" on="0"/>
        <pt x="830" y="1413" on="0"/>
        <pt x="923" y="1376" on="1"/>
        <pt x="1067" y="1318" on="0"/>
        <pt x="1067" y="1182" on="1"/>
        <pt x="1067" y="1013" on="0"/>
        <pt x="860" y="950" on="1"/>
        <pt x="860" y="940" on="1"/>
        <pt x="981" y="913" on="0"/>
        <pt x="1081" y="815" on="0"/>
        <pt x="1081" y="723" on="1"/>
        <pt x="1081" y="648" on="0"/>
        <pt x="981" y="545" on="0"/>
        <pt x="860" y="508" on="1"/>
        <pt x="860" y="498" on="1"/>
        <pt x="984" y="470" on="0"/>
        <pt x="1102" y="354" on="0"/>
        <pt x="1102" y="262" on="1"/>
        <pt x="1102" y="-20" on="0"/>
        <pt x="616" y="-20" on="1"/>
        <pt x="355" y="-20" on="0"/>
        <pt x="113" y="349" on="0"/>
        <pt x="113" y="762" on="1"/>
        <pt x="113" y="1011" on="0"/>
        <pt x="184" y="1364" on="0"/>
        <pt x="312" y="1546" on="0"/>
        <pt x="397" y="1546" on="1"/>
        <pt x="492" y="1546" on="0"/>
        <pt x="610" y="1348" on="0"/>
      </contour>
      <contour>
        <pt x="403" y="1448" on="1"/>
        <pt x="350" y="1448" on="0"/>
        <pt x="303" y="1126" on="0"/>
        <pt x="301" y="760" on="1"/>
        <pt x="389" y="808" on="0"/>
        <pt x="483" y="1022" on="0"/>
        <pt x="483" y="1180" on="1"/>
        <pt x="483" y="1304" on="0"/>
        <pt x="438" y="1448" on="0"/>
      </contour>
    </TTGlyph>
    <TTGlyph name="uni10F2" xMin="57" yMin="-152" xMax="1124" yMax="1118">
      <contour>
        <pt x="1069" y="633" on="1"/>
        <pt x="1069" y="444" on="0"/>
        <pt x="897" y="161" on="0"/>
        <pt x="719" y="53" on="1"/>
        <pt x="840" y="3" on="0"/>
        <pt x="996" y="-23" on="0"/>
        <pt x="1124" y="-23" on="1"/>
        <pt x="1122" y="-76" on="0"/>
        <pt x="1060" y="-152" on="0"/>
        <pt x="1022" y="-152" on="1"/>
        <pt x="944" y="-152" on="0"/>
        <pt x="689" y="-64" on="0"/>
        <pt x="590" y="-16" on="1"/>
        <pt x="489" y="-65" on="0"/>
        <pt x="238" y="-152" on="0"/>
        <pt x="160" y="-152" on="1"/>
        <pt x="121" y="-152" on="0"/>
        <pt x="59" y="-75" on="0"/>
        <pt x="57" y="-23" on="1"/>
        <pt x="192" y="-23" on="0"/>
        <pt x="351" y="6" on="0"/>
        <pt x="461" y="53" on="1"/>
        <pt x="281" y="164" on="0"/>
        <pt x="113" y="448" on="0"/>
        <pt x="113" y="633" on="1"/>
        <pt x="113" y="859" on="0"/>
        <pt x="367" y="1118" on="0"/>
        <pt x="594" y="1118" on="1"/>
        <pt x="817" y="1118" on="0"/>
        <pt x="1069" y="862" on="0"/>
      </contour>
      <contour>
        <pt x="311" y="633" on="1"/>
        <pt x="311" y="451" on="0"/>
        <pt x="450" y="201" on="0"/>
        <pt x="590" y="117" on="1"/>
        <pt x="732" y="204" on="0"/>
        <pt x="870" y="454" on="0"/>
        <pt x="870" y="633" on="1"/>
        <pt x="870" y="831" on="0"/>
        <pt x="737" y="1012" on="0"/>
        <pt x="590" y="1012" on="1"/>
        <pt x="444" y="1012" on="0"/>
        <pt x="311" y="830" on="0"/>
      </contour>
    </TTGlyph>
    <TTGlyph name="uni10F3" xMin="29" yMin="-492" xMax="1036" yMax="1098">
      <contour>
        <pt x="506" y="-492" on="1"/>
        <pt x="362" y="-492" on="0"/>
        <pt x="145" y="-402" on="0"/>
        <pt x="29" y="-237" on="0"/>
        <pt x="29" y="-133" on="1"/>
        <pt x="29" y="-19" on="0"/>
        <pt x="154" y="98" on="0"/>
        <pt x="274" y="98" on="1"/>
        <pt x="223" y="0" on="0"/>
        <pt x="223" y="-115" on="1"/>
        <pt x="223" y="-244" on="0"/>
        <pt x="371" y="-393" on="0"/>
        <pt x="506" y="-393" on="1"/>
        <pt x="659" y="-393" on="0"/>
        <pt x="838" y="-185" on="0"/>
        <pt x="838" y="0" on="1"/>
        <pt x="838" y="362" on="0"/>
        <pt x="399" y="362" on="1"/>
        <pt x="352" y="362" on="1"/>
        <pt x="352" y="461" on="1"/>
        <pt x="564" y="470" on="0"/>
        <pt x="762" y="701" on="0"/>
        <pt x="762" y="934" on="1"/>
        <pt x="385" y="934" on="1"/>
        <pt x="340" y="934" on="0"/>
        <pt x="289" y="912" on="0"/>
        <pt x="260" y="861" on="0"/>
        <pt x="248" y="776" on="1"/>
        <pt x="147" y="776" on="1"/>
        <pt x="160" y="1098" on="1"/>
        <pt x="954" y="1098" on="1"/>
        <pt x="954" y="944" on="1"/>
        <pt x="954" y="761" on="0"/>
        <pt x="774" y="492" on="0"/>
        <pt x="616" y="440" on="1"/>
        <pt x="733" y="431" on="0"/>
        <pt x="935" y="306" on="0"/>
        <pt x="1036" y="122" on="0"/>
        <pt x="1036" y="6" on="1"/>
        <pt x="1036" y="-149" on="0"/>
        <pt x="904" y="-373" on="0"/>
        <pt x="665" y="-492" on="0"/>
      </contour>
    </TTGlyph>
    <TTGlyph name="uni10F4" xMin="82" yMin="-502" xMax="1012" yMax="1567">
      <contour>
        <pt x="213" y="1245" on="1"/>
        <pt x="213" y="1396" on="0"/>
        <pt x="419" y="1567" on="0"/>
        <pt x="594" y="1567" on="1"/>
        <pt x="764" y="1567" on="0"/>
        <pt x="954" y="1457" on="0"/>
        <pt x="954" y="1350" on="1"/>
        <pt x="954" y="1287" on="0"/>
        <pt x="882" y="1208" on="0"/>
        <pt x="825" y="1208" on="1"/>
        <pt x="825" y="1468" on="0"/>
        <pt x="584" y="1468" on="1"/>
        <pt x="490" y="1468" on="0"/>
        <pt x="379" y="1365" on="0"/>
        <pt x="379" y="1282" on="1"/>
        <pt x="379" y="1204" on="0"/>
        <pt x="419" y="1128" on="0"/>
        <pt x="512" y="1068" on="0"/>
        <pt x="596" y="1042" on="1"/>
        <pt x="766" y="990" on="0"/>
        <pt x="904" y="895" on="0"/>
        <pt x="977" y="757" on="0"/>
        <pt x="977" y="653" on="1"/>
        <pt x="977" y="540" on="0"/>
        <pt x="812" y="360" on="0"/>
        <pt x="668" y="326" on="1"/>
        <pt x="668" y="315" on="1"/>
        <pt x="828" y="298" on="0"/>
        <pt x="1012" y="95" on="0"/>
        <pt x="1012" y="-68" on="1"/>
        <pt x="1012" y="-271" on="0"/>
        <pt x="748" y="-502" on="0"/>
        <pt x="518" y="-502" on="1"/>
        <pt x="389" y="-502" on="0"/>
        <pt x="189" y="-407" on="0"/>
        <pt x="82" y="-237" on="0"/>
        <pt x="82" y="-133" on="1"/>
        <pt x="82" y="-19" on="0"/>
        <pt x="207" y="98" on="0"/>
        <pt x="328" y="98" on="1"/>
        <pt x="276" y="2" on="0"/>
        <pt x="276" y="-115" on="1"/>
        <pt x="276" y="-245" on="0"/>
        <pt x="403" y="-393" on="0"/>
        <pt x="514" y="-393" on="1"/>
        <pt x="666" y="-393" on="0"/>
        <pt x="813" y="-242" on="0"/>
        <pt x="813" y="-74" on="1"/>
        <pt x="813" y="87" on="0"/>
        <pt x="632" y="256" on="0"/>
        <pt x="461" y="256" on="1"/>
        <pt x="369" y="256" on="1"/>
        <pt x="369" y="367" on="1"/>
        <pt x="461" y="367" on="1"/>
        <pt x="601" y="367" on="0"/>
        <pt x="782" y="524" on="0"/>
        <pt x="782" y="643" on="1"/>
        <pt x="782" y="767" on="0"/>
        <pt x="678" y="902" on="0"/>
        <pt x="549" y="938" on="1"/>
        <pt x="363" y="990" on="0"/>
        <pt x="213" y="1131" on="0"/>
      </contour>
    </TTGlyph>
    <TTGlyph name="uni10F5" xMin="113" yMin="-20" xMax="1190" yMax="1567">
      <contour>
        <pt x="979" y="1004" on="1"/>
        <pt x="1190" y="1004" on="1"/>
        <pt x="1190" y="887" on="1"/>
        <pt x="979" y="887" on="1"/>
        <pt x="979" y="713" on="1"/>
        <pt x="1190" y="713" on="1"/>
        <pt x="1190" y="596" on="1"/>
        <pt x="979" y="596" on="1"/>
        <pt x="979" y="428" on="1"/>
        <pt x="979" y="201" on="0"/>
        <pt x="769" y="-20" on="0"/>
        <pt x="545" y="-20" on="1"/>
        <pt x="113" y="-20" on="0"/>
        <pt x="113" y="352" on="1"/>
        <pt x="113" y="542" on="0"/>
        <pt x="366" y="713" on="0"/>
        <pt x="637" y="713" on="1"/>
        <pt x="786" y="713" on="1"/>
        <pt x="786" y="887" on="1"/>
        <pt x="637" y="887" on="1"/>
        <pt x="369" y="887" on="0"/>
        <pt x="113" y="1045" on="0"/>
        <pt x="113" y="1221" on="1"/>
        <pt x="113" y="1567" on="0"/>
        <pt x="545" y="1567" on="1"/>
        <pt x="767" y="1567" on="0"/>
        <pt x="979" y="1347" on="0"/>
        <pt x="979" y="1118" on="1"/>
      </contour>
      <contour>
        <pt x="539" y="86" on="1"/>
        <pt x="666" y="86" on="0"/>
        <pt x="786" y="233" on="0"/>
        <pt x="786" y="403" on="1"/>
        <pt x="786" y="596" on="1"/>
        <pt x="643" y="596" on="1"/>
        <pt x="456" y="596" on="0"/>
        <pt x="311" y="484" on="0"/>
        <pt x="311" y="348" on="1"/>
        <pt x="311" y="214" on="0"/>
        <pt x="424" y="86" on="0"/>
      </contour>
      <contour>
        <pt x="311" y="1225" on="1"/>
        <pt x="311" y="1102" on="0"/>
        <pt x="457" y="1004" on="0"/>
        <pt x="643" y="1004" on="1"/>
        <pt x="786" y="1004" on="1"/>
        <pt x="786" y="1143" on="1"/>
        <pt x="786" y="1313" on="0"/>
        <pt x="667" y="1460" on="0"/>
        <pt x="539" y="1460" on="1"/>
        <pt x="416" y="1460" on="0"/>
        <pt x="311" y="1337" on="0"/>
      </contour>
    </TTGlyph>
    <TTGlyph name="uni10F6" xMin="113" yMin="-492" xMax="1767" yMax="1118">
      <contour>
        <pt x="844" y="-492" on="1"/>
        <pt x="844" y="-82" on="1"/>
        <pt x="844" y="-16" on="0"/>
        <pt x="852" y="168" on="1"/>
        <pt x="844" y="168" on="1"/>
        <pt x="797" y="71" on="0"/>
        <pt x="646" y="-20" on="0"/>
        <pt x="530" y="-20" on="1"/>
        <pt x="113" y="-20" on="0"/>
        <pt x="113" y="547" on="1"/>
        <pt x="113" y="825" on="0"/>
        <pt x="346" y="1118" on="0"/>
        <pt x="565" y="1118" on="1"/>
        <pt x="689" y="1118" on="0"/>
        <pt x="875" y="1018" on="0"/>
        <pt x="938" y="905" on="1"/>
        <pt x="997" y="1005" on="0"/>
        <pt x="1196" y="1118" on="0"/>
        <pt x="1317" y="1118" on="1"/>
        <pt x="1537" y="1118" on="0"/>
        <pt x="1767" y="833" on="0"/>
        <pt x="1767" y="551" on="1"/>
        <pt x="1767" y="263" on="0"/>
        <pt x="1560" y="-20" on="0"/>
        <pt x="1350" y="-20" on="1"/>
        <pt x="1139" y="-20" on="0"/>
        <pt x="1036" y="168" on="1"/>
        <pt x="1028" y="168" on="1"/>
        <pt x="1036" y="-72" on="1"/>
        <pt x="1036" y="-492" on="1"/>
      </contour>
      <contour>
        <pt x="565" y="111" on="1"/>
        <pt x="714" y="111" on="0"/>
        <pt x="844" y="309" on="0"/>
        <pt x="844" y="547" on="1"/>
        <pt x="844" y="785" on="0"/>
        <pt x="709" y="987" on="0"/>
        <pt x="563" y="987" on="1"/>
        <pt x="435" y="987" on="0"/>
        <pt x="311" y="771" on="0"/>
        <pt x="311" y="545" on="1"/>
        <pt x="311" y="318" on="0"/>
        <pt x="433" y="111" on="0"/>
      </contour>
      <contour>
        <pt x="1315" y="987" on="1"/>
        <pt x="1166" y="987" on="0"/>
        <pt x="1036" y="789" on="0"/>
        <pt x="1036" y="551" on="1"/>
        <pt x="1036" y="324" on="0"/>
        <pt x="1169" y="111" on="0"/>
        <pt x="1317" y="111" on="1"/>
        <pt x="1446" y="111" on="0"/>
        <pt x="1569" y="327" on="0"/>
        <pt x="1569" y="553" on="1"/>
        <pt x="1569" y="771" on="0"/>
        <pt x="1451" y="987" on="0"/>
      </contour>
    </TTGlyph>
    <TTGlyph name="uni10F7" xMin="82" yMin="-502" xMax="967" yMax="1118">
      <contour>
        <pt x="82" y="-113" on="1"/>
        <pt x="82" y="39" on="0"/>
        <pt x="241" y="269" on="0"/>
        <pt x="426" y="391" on="1"/>
        <pt x="607" y="512" on="0"/>
        <pt x="725" y="672" on="0"/>
        <pt x="725" y="791" on="1"/>
        <pt x="725" y="898" on="0"/>
        <pt x="613" y="1024" on="0"/>
        <pt x="516" y="1024" on="1"/>
        <pt x="409" y="1024" on="0"/>
        <pt x="291" y="870" on="0"/>
        <pt x="291" y="721" on="1"/>
        <pt x="209" y="721" on="0"/>
        <pt x="143" y="785" on="0"/>
        <pt x="143" y="844" on="1"/>
        <pt x="143" y="914" on="0"/>
        <pt x="242" y="1043" on="0"/>
        <pt x="414" y="1118" on="0"/>
        <pt x="518" y="1118" on="1"/>
        <pt x="697" y="1118" on="0"/>
        <pt x="899" y="932" on="0"/>
        <pt x="899" y="772" on="1"/>
        <pt x="899" y="608" on="0"/>
        <pt x="736" y="368" on="0"/>
        <pt x="557" y="254" on="1"/>
        <pt x="385" y="144" on="0"/>
        <pt x="260" y="-22" on="0"/>
        <pt x="260" y="-139" on="1"/>
        <pt x="260" y="-263" on="0"/>
        <pt x="407" y="-403" on="0"/>
        <pt x="530" y="-403" on="1"/>
        <pt x="665" y="-403" on="0"/>
        <pt x="825" y="-199" on="0"/>
        <pt x="825" y="-35" on="1"/>
        <pt x="889" y="-35" on="0"/>
        <pt x="967" y="-128" on="0"/>
        <pt x="967" y="-197" on="1"/>
        <pt x="967" y="-284" on="0"/>
        <pt x="855" y="-428" on="0"/>
        <pt x="661" y="-502" on="0"/>
        <pt x="528" y="-502" on="1"/>
        <pt x="328" y="-502" on="0"/>
        <pt x="82" y="-289" on="0"/>
      </contour>
    </TTGlyph>
    <TTGlyph name="uni10F8" xMin="201" yMin="-502" xMax="1130" yMax="1118">
      <contour>
        <pt x="393" y="1098" on="1"/>
        <pt x="393" y="934" on="1"/>
        <pt x="393" y="807" on="0"/>
        <pt x="443" y="678" on="0"/>
        <pt x="550" y="614" on="0"/>
        <pt x="637" y="614" on="1"/>
        <pt x="753" y="614" on="0"/>
        <pt x="879" y="746" on="0"/>
        <pt x="879" y="864" on="1"/>
        <pt x="879" y="1041" on="0"/>
        <pt x="827" y="1118" on="1"/>
        <pt x="936" y="1118" on="0"/>
        <pt x="1073" y="963" on="0"/>
        <pt x="1073" y="834" on="1"/>
        <pt x="1073" y="690" on="0"/>
        <pt x="844" y="506" on="0"/>
        <pt x="668" y="506" on="1"/>
        <pt x="582" y="506" on="0"/>
        <pt x="438" y="555" on="0"/>
        <pt x="393" y="602" on="1"/>
        <pt x="381" y="602" on="1"/>
        <pt x="393" y="426" on="0"/>
        <pt x="393" y="397" on="1"/>
        <pt x="393" y="-33" on="1"/>
        <pt x="393" y="-217" on="0"/>
        <pt x="535" y="-393" on="0"/>
        <pt x="678" y="-393" on="1"/>
        <pt x="802" y="-393" on="0"/>
        <pt x="936" y="-247" on="0"/>
        <pt x="936" y="-115" on="1"/>
        <pt x="936" y="4" on="0"/>
        <pt x="885" y="98" on="1"/>
        <pt x="1007" y="98" on="0"/>
        <pt x="1130" y="-20" on="0"/>
        <pt x="1130" y="-133" on="1"/>
        <pt x="1130" y="-240" on="0"/>
        <pt x="1020" y="-408" on="0"/>
        <pt x="812" y="-502" on="0"/>
        <pt x="674" y="-502" on="1"/>
        <pt x="450" y="-502" on="0"/>
        <pt x="201" y="-238" on="0"/>
        <pt x="201" y="4" on="1"/>
        <pt x="201" y="1098" on="1"/>
      </contour>
    </TTGlyph>
    <TTGlyph name="uni10F9" xMin="113" yMin="-492" xMax="1069" yMax="1118">
      <contour>
        <pt x="477" y="-231" on="1"/>
        <pt x="477" y="-300" on="0"/>
        <pt x="550" y="-385" on="0"/>
        <pt x="608" y="-385" on="1"/>
        <pt x="762" y="-385" on="0"/>
        <pt x="762" y="-158" on="1"/>
        <pt x="833" y="-158" on="0"/>
        <pt x="909" y="-225" on="0"/>
        <pt x="909" y="-281" on="1"/>
        <pt x="909" y="-338" on="0"/>
        <pt x="833" y="-437" on="0"/>
        <pt x="696" y="-492" on="0"/>
        <pt x="610" y="-492" on="1"/>
        <pt x="470" y="-492" on="0"/>
        <pt x="305" y="-355" on="0"/>
        <pt x="305" y="-244" on="1"/>
        <pt x="305" y="-159" on="0"/>
        <pt x="398" y="-36" on="0"/>
        <pt x="483" y="-10" on="1"/>
        <pt x="305" y="17" on="0"/>
        <pt x="113" y="300" on="0"/>
        <pt x="113" y="547" on="1"/>
        <pt x="113" y="1118" on="0"/>
        <pt x="594" y="1118" on="1"/>
        <pt x="825" y="1118" on="0"/>
        <pt x="1069" y="825" on="0"/>
        <pt x="1069" y="547" on="1"/>
        <pt x="1069" y="53" on="0"/>
        <pt x="709" y="-10" on="1"/>
        <pt x="585" y="-32" on="0"/>
        <pt x="477" y="-135" on="0"/>
      </contour>
      <contour>
        <pt x="870" y="547" on="1"/>
        <pt x="870" y="789" on="0"/>
        <pt x="736" y="1012" on="0"/>
        <pt x="590" y="1012" on="1"/>
        <pt x="445" y="1012" on="0"/>
        <pt x="311" y="788" on="0"/>
        <pt x="311" y="547" on="1"/>
        <pt x="311" y="306" on="0"/>
        <pt x="445" y="86" on="0"/>
        <pt x="592" y="86" on="1"/>
        <pt x="738" y="86" on="0"/>
        <pt x="870" y="304" on="0"/>
      </contour>
    </TTGlyph>
    <TTGlyph name="uni10FA" xMin="113" yMin="-229" xMax="1063" yMax="1118">
      <contour>
        <pt x="870" y="621" on="1"/>
        <pt x="870" y="820" on="0"/>
        <pt x="733" y="1012" on="0"/>
        <pt x="590" y="1012" on="1"/>
        <pt x="444" y="1012" on="0"/>
        <pt x="311" y="815" on="0"/>
        <pt x="311" y="600" on="1"/>
        <pt x="311" y="444" on="0"/>
        <pt x="374" y="256" on="0"/>
        <pt x="516" y="141" on="0"/>
        <pt x="676" y="94" on="1"/>
        <pt x="733" y="81" on="1"/>
        <pt x="871" y="54" on="0"/>
        <pt x="1001" y="-38" on="0"/>
        <pt x="1001" y="-109" on="1"/>
        <pt x="1001" y="-167" on="0"/>
        <pt x="923" y="-229" on="0"/>
        <pt x="852" y="-229" on="1"/>
        <pt x="845" y="-132" on="0"/>
        <pt x="763" y="-34" on="0"/>
        <pt x="589" y="10" on="0"/>
        <pt x="438" y="10" on="1"/>
        <pt x="297" y="10" on="0"/>
        <pt x="193" y="-74" on="1"/>
        <pt x="143" y="-20" on="1"/>
        <pt x="176" y="26" on="0"/>
        <pt x="348" y="104" on="0"/>
        <pt x="428" y="104" on="1"/>
        <pt x="302" y="156" on="0"/>
        <pt x="177" y="279" on="0"/>
        <pt x="113" y="464" on="0"/>
        <pt x="113" y="600" on="1"/>
        <pt x="113" y="853" on="0"/>
        <pt x="361" y="1118" on="0"/>
        <pt x="594" y="1118" on="1"/>
        <pt x="811" y="1118" on="0"/>
        <pt x="1063" y="869" on="0"/>
        <pt x="1063" y="657" on="1"/>
        <pt x="1063" y="397" on="0"/>
        <pt x="829" y="397" on="1"/>
        <pt x="870" y="485" on="0"/>
      </contour>
    </TTGlyph>
    <TTGlyph name="uni10FB" xMin="166" yMin="-14" xMax="997" yMax="1108">
      <contour>
        <pt x="166" y="125" on="1"/>
        <pt x="166" y="264" on="0"/>
        <pt x="295" y="264" on="1"/>
        <pt x="358" y="264" on="0"/>
        <pt x="424" y="192" on="0"/>
        <pt x="424" y="125" on="1"/>
        <pt x="424" y="58" on="0"/>
        <pt x="359" y="-14" on="0"/>
        <pt x="295" y="-14" on="1"/>
        <pt x="166" y="-14" on="0"/>
      </contour>
      <contour>
        <pt x="166" y="969" on="1"/>
        <pt x="166" y="1108" on="0"/>
        <pt x="295" y="1108" on="1"/>
        <pt x="358" y="1108" on="0"/>
        <pt x="424" y="1036" on="0"/>
        <pt x="424" y="969" on="1"/>
        <pt x="424" y="902" on="0"/>
        <pt x="359" y="829" on="0"/>
        <pt x="295" y="829" on="1"/>
        <pt x="166" y="829" on="0"/>
      </contour>
      <contour>
        <pt x="739" y="547" on="1"/>
        <pt x="739" y="686" on="0"/>
        <pt x="868" y="686" on="1"/>
        <pt x="931" y="686" on="0"/>
        <pt x="997" y="614" on="0"/>
        <pt x="997" y="547" on="1"/>
        <pt x="997" y="480" on="0"/>
        <pt x="932" y="408" on="0"/>
        <pt x="868" y="408" on="1"/>
        <pt x="739" y="408" on="0"/>
      </contour>
    </TTGlyph>
    <TTGlyph name="uni10FC" xMin="102" yMin="901" xMax="770" yMax="1898">
      <contour>
        <pt x="598" y="1249" on="1"/>
        <pt x="598" y="1394" on="0"/>
        <pt x="518" y="1516" on="0"/>
        <pt x="432" y="1516" on="1"/>
        <pt x="346" y="1516" on="0"/>
        <pt x="270" y="1402" on="0"/>
        <pt x="270" y="1249" on="1"/>
        <pt x="270" y="1118" on="0"/>
        <pt x="344" y="983" on="0"/>
        <pt x="432" y="983" on="1"/>
        <pt x="519" y="983" on="0"/>
        <pt x="598" y="1105" on="0"/>
      </contour>
      <contour>
        <pt x="391" y="1798" on="1"/>
        <pt x="329" y="1798" on="0"/>
        <pt x="270" y="1673" on="0"/>
        <pt x="268" y="1540" on="1"/>
        <pt x="349" y="1595" on="0"/>
        <pt x="455" y="1595" on="1"/>
        <pt x="770" y="1595" on="0"/>
        <pt x="770" y="1249" on="1"/>
        <pt x="770" y="901" on="0"/>
        <pt x="432" y="901" on="1"/>
        <pt x="308" y="901" on="0"/>
        <pt x="170" y="1000" on="0"/>
        <pt x="102" y="1214" on="0"/>
        <pt x="102" y="1397" on="1"/>
        <pt x="102" y="1630" on="0"/>
        <pt x="257" y="1878" on="0"/>
        <pt x="401" y="1878" on="1"/>
        <pt x="433" y="1878" on="0"/>
        <pt x="492" y="1862" on="1"/>
        <pt x="549" y="1843" on="0"/>
        <pt x="590" y="1843" on="1"/>
        <pt x="637" y="1843" on="0"/>
        <pt x="655" y="1898" on="1"/>
        <pt x="756" y="1878" on="0"/>
        <pt x="756" y="1823" on="1"/>
        <pt x="756" y="1786" on="0"/>
        <pt x="703" y="1733" on="0"/>
        <pt x="639" y="1733" on="1"/>
        <pt x="577" y="1733" on="0"/>
        <pt x="489" y="1767" on="1"/>
        <pt x="463" y="1778" on="0"/>
        <pt x="413" y="1798" on="0"/>
      </contour>
    </TTGlyph>
    <TTGlyph name="uni2D00" xMin="31" yMin="-23" xMax="971" yMax="1098">
      <contour>
        <pt x="180" y="989" on="1"/>
        <pt x="77" y="989" on="0"/>
        <pt x="31" y="975" on="1"/>
        <pt x="31" y="1065" on="1"/>
        <pt x="125" y="1098" on="0"/>
        <pt x="233" y="1098" on="1"/>
        <pt x="971" y="1098" on="1"/>
        <pt x="971" y="989" on="1"/>
        <pt x="539" y="989" on="1"/>
        <pt x="539" y="358" on="1"/>
        <pt x="539" y="210" on="0"/>
        <pt x="632" y="86" on="0"/>
        <pt x="739" y="86" on="1"/>
        <pt x="833" y="86" on="0"/>
        <pt x="926" y="117" on="1"/>
        <pt x="926" y="27" on="1"/>
        <pt x="884" y="4" on="0"/>
        <pt x="759" y="-23" on="0"/>
        <pt x="694" y="-23" on="1"/>
        <pt x="518" y="-23" on="0"/>
        <pt x="346" y="160" on="0"/>
        <pt x="346" y="330" on="1"/>
        <pt x="346" y="989" on="1"/>
      </contour>
    </TTGlyph>
    <TTGlyph name="uni2D01" xMin="47" yMin="-492" xMax="1186" yMax="1098">
      <contour>
        <pt x="993" y="-90" on="1"/>
        <pt x="993" y="-40" on="0"/>
        <pt x="972" y="39" on="0"/>
        <pt x="945" y="103" on="0"/>
        <pt x="920" y="155" on="0"/>
        <pt x="915" y="178" on="1"/>
        <pt x="905" y="178" on="1"/>
        <pt x="847" y="73" on="0"/>
        <pt x="688" y="-20" on="0"/>
        <pt x="559" y="-20" on="1"/>
        <pt x="221" y="-20" on="0"/>
        <pt x="221" y="381" on="1"/>
        <pt x="221" y="872" on="1"/>
        <pt x="221" y="942" on="0"/>
        <pt x="147" y="1012" on="0"/>
        <pt x="55" y="1012" on="1"/>
        <pt x="47" y="1012" on="1"/>
        <pt x="47" y="1098" on="1"/>
        <pt x="414" y="1098" on="1"/>
        <pt x="414" y="391" on="1"/>
        <pt x="414" y="240" on="0"/>
        <pt x="516" y="111" on="0"/>
        <pt x="629" y="111" on="1"/>
        <pt x="754" y="111" on="0"/>
        <pt x="887" y="280" on="0"/>
        <pt x="887" y="442" on="1"/>
        <pt x="887" y="864" on="1"/>
        <pt x="887" y="940" on="0"/>
        <pt x="815" y="1012" on="0"/>
        <pt x="721" y="1012" on="1"/>
        <pt x="713" y="1012" on="1"/>
        <pt x="713" y="1098" on="1"/>
        <pt x="1079" y="1098" on="1"/>
        <pt x="1079" y="342" on="1"/>
        <pt x="1079" y="290" on="0"/>
        <pt x="1104" y="193" on="0"/>
        <pt x="1133" y="130" on="1"/>
        <pt x="1161" y="65" on="0"/>
        <pt x="1186" y="-34" on="0"/>
        <pt x="1186" y="-90" on="1"/>
        <pt x="1186" y="-204" on="0"/>
        <pt x="1056" y="-389" on="0"/>
        <pt x="820" y="-492" on="0"/>
        <pt x="672" y="-492" on="1"/>
        <pt x="528" y="-492" on="0"/>
        <pt x="306" y="-429" on="0"/>
        <pt x="178" y="-304" on="0"/>
        <pt x="178" y="-233" on="1"/>
        <pt x="178" y="-170" on="0"/>
        <pt x="254" y="-102" on="0"/>
        <pt x="326" y="-102" on="1"/>
        <pt x="326" y="-253" on="0"/>
        <pt x="499" y="-397" on="0"/>
        <pt x="672" y="-397" on="1"/>
        <pt x="836" y="-397" on="0"/>
        <pt x="993" y="-236" on="0"/>
      </contour>
    </TTGlyph>
    <TTGlyph name="uni2D02" xMin="-12" yMin="-492" xMax="1235" yMax="1118">
      <contour>
        <pt x="455" y="926" on="1"/>
        <pt x="508" y="1024" on="0"/>
        <pt x="665" y="1118" on="0"/>
        <pt x="784" y="1118" on="1"/>
        <pt x="1128" y="1118" on="0"/>
        <pt x="1128" y="717" on="1"/>
        <pt x="1128" y="342" on="1"/>
        <pt x="1128" y="290" on="0"/>
        <pt x="1153" y="193" on="0"/>
        <pt x="1182" y="130" on="1"/>
        <pt x="1210" y="65" on="0"/>
        <pt x="1235" y="-34" on="0"/>
        <pt x="1235" y="-90" on="1"/>
        <pt x="1235" y="-204" on="0"/>
        <pt x="1105" y="-389" on="0"/>
        <pt x="869" y="-492" on="0"/>
        <pt x="721" y="-492" on="1"/>
        <pt x="577" y="-492" on="0"/>
        <pt x="355" y="-429" on="0"/>
        <pt x="227" y="-304" on="0"/>
        <pt x="227" y="-233" on="1"/>
        <pt x="227" y="-170" on="0"/>
        <pt x="304" y="-102" on="0"/>
        <pt x="375" y="-102" on="1"/>
        <pt x="375" y="-253" on="0"/>
        <pt x="548" y="-397" on="0"/>
        <pt x="721" y="-397" on="1"/>
        <pt x="885" y="-397" on="0"/>
        <pt x="1042" y="-236" on="0"/>
        <pt x="1042" y="-90" on="1"/>
        <pt x="1042" y="-48" on="0"/>
        <pt x="1018" y="36" on="0"/>
        <pt x="989" y="102" on="1"/>
        <pt x="936" y="219" on="0"/>
        <pt x="936" y="348" on="1"/>
        <pt x="936" y="707" on="1"/>
        <pt x="936" y="850" on="0"/>
        <pt x="828" y="987" on="0"/>
        <pt x="711" y="987" on="1"/>
        <pt x="591" y="987" on="0"/>
        <pt x="463" y="816" on="0"/>
        <pt x="463" y="655" on="1"/>
        <pt x="463" y="223" on="1"/>
        <pt x="463" y="152" on="0"/>
        <pt x="533" y="86" on="0"/>
        <pt x="627" y="86" on="1"/>
        <pt x="637" y="86" on="1"/>
        <pt x="637" y="0" on="1"/>
        <pt x="86" y="0" on="1"/>
        <pt x="86" y="86" on="1"/>
        <pt x="102" y="86" on="1"/>
        <pt x="197" y="86" on="0"/>
        <pt x="270" y="157" on="0"/>
        <pt x="270" y="233" on="1"/>
        <pt x="270" y="815" on="1"/>
        <pt x="270" y="922" on="0"/>
        <pt x="196" y="1010" on="0"/>
        <pt x="115" y="1010" on="1"/>
        <pt x="31" y="1010" on="0"/>
        <pt x="-12" y="995" on="1"/>
        <pt x="-12" y="1085" on="1"/>
        <pt x="82" y="1118" on="0"/>
        <pt x="190" y="1118" on="1"/>
        <pt x="302" y="1118" on="0"/>
        <pt x="424" y="1026" on="0"/>
        <pt x="444" y="926" on="1"/>
      </contour>
    </TTGlyph>
    <TTGlyph name="uni2D03" xMin="111" yMin="-20" xMax="1069" yMax="1462">
      <contour>
        <pt x="610" y="893" on="1"/>
        <pt x="464" y="828" on="0"/>
        <pt x="303" y="594" on="0"/>
        <pt x="303" y="432" on="1"/>
        <pt x="303" y="270" on="0"/>
        <pt x="456" y="86" on="0"/>
        <pt x="586" y="86" on="1"/>
        <pt x="723" y="86" on="0"/>
        <pt x="881" y="266" on="0"/>
        <pt x="881" y="428" on="1"/>
        <pt x="881" y="516" on="0"/>
        <pt x="831" y="659" on="0"/>
        <pt x="744" y="778" on="0"/>
        <pt x="643" y="864" on="1"/>
      </contour>
      <contour>
        <pt x="1012" y="1462" on="1"/>
        <pt x="1012" y="1354" on="1"/>
        <pt x="604" y="1354" on="1"/>
        <pt x="604" y="1309" on="1"/>
        <pt x="604" y="1207" on="0"/>
        <pt x="676" y="1071" on="0"/>
        <pt x="770" y="993" on="1"/>
        <pt x="904" y="882" on="0"/>
        <pt x="1014" y="738" on="0"/>
        <pt x="1069" y="569" on="0"/>
        <pt x="1069" y="459" on="1"/>
        <pt x="1069" y="236" on="0"/>
        <pt x="805" y="-20" on="0"/>
        <pt x="586" y="-20" on="1"/>
        <pt x="371" y="-20" on="0"/>
        <pt x="111" y="228" on="0"/>
        <pt x="111" y="438" on="1"/>
        <pt x="111" y="791" on="0"/>
        <pt x="555" y="950" on="1"/>
        <pt x="504" y="1011" on="0"/>
        <pt x="459" y="1153" on="0"/>
        <pt x="459" y="1278" on="1"/>
        <pt x="459" y="1354" on="1"/>
        <pt x="283" y="1354" on="1"/>
        <pt x="176" y="1354" on="0"/>
        <pt x="133" y="1339" on="1"/>
        <pt x="133" y="1430" on="1"/>
        <pt x="224" y="1462" on="0"/>
        <pt x="336" y="1462" on="1"/>
      </contour>
    </TTGlyph>
    <TTGlyph name="uni2D04" xMin="-12" yMin="-502" xMax="1284" yMax="1118">
      <contour>
        <pt x="270" y="815" on="1"/>
        <pt x="270" y="922" on="0"/>
        <pt x="196" y="1010" on="0"/>
        <pt x="115" y="1010" on="1"/>
        <pt x="31" y="1010" on="0"/>
        <pt x="-12" y="995" on="1"/>
        <pt x="-12" y="1085" on="1"/>
        <pt x="82" y="1118" on="0"/>
        <pt x="190" y="1118" on="1"/>
        <pt x="302" y="1118" on="0"/>
        <pt x="424" y="1026" on="0"/>
        <pt x="444" y="926" on="1"/>
        <pt x="455" y="926" on="1"/>
        <pt x="508" y="1024" on="0"/>
        <pt x="665" y="1118" on="0"/>
        <pt x="784" y="1118" on="1"/>
        <pt x="1124" y="1118" on="0"/>
        <pt x="1128" y="717" on="1"/>
        <pt x="1128" y="111" on="1"/>
        <pt x="1130" y="-41" on="0"/>
        <pt x="1198" y="-286" on="0"/>
        <pt x="1284" y="-434" on="1"/>
        <pt x="1198" y="-502" on="1"/>
        <pt x="936" y="-249" on="0"/>
        <pt x="936" y="117" on="1"/>
        <pt x="936" y="707" on="1"/>
        <pt x="936" y="850" on="0"/>
        <pt x="828" y="987" on="0"/>
        <pt x="711" y="987" on="1"/>
        <pt x="591" y="987" on="0"/>
        <pt x="463" y="816" on="0"/>
        <pt x="463" y="655" on="1"/>
        <pt x="463" y="223" on="1"/>
        <pt x="463" y="152" on="0"/>
        <pt x="533" y="86" on="0"/>
        <pt x="627" y="86" on="1"/>
        <pt x="637" y="86" on="1"/>
        <pt x="637" y="0" on="1"/>
        <pt x="86" y="0" on="1"/>
        <pt x="86" y="86" on="1"/>
        <pt x="102" y="86" on="1"/>
        <pt x="197" y="86" on="0"/>
        <pt x="270" y="157" on="0"/>
        <pt x="270" y="233" on="1"/>
      </contour>
    </TTGlyph>
    <TTGlyph name="uni2D05" xMin="-12" yMin="-502" xMax="1907" yMax="1118">
      <contour>
        <pt x="465" y="932" on="1"/>
        <pt x="519" y="1032" on="0"/>
        <pt x="659" y="1118" on="0"/>
        <pt x="774" y="1118" on="1"/>
        <pt x="886" y="1118" on="0"/>
        <pt x="1037" y="1023" on="0"/>
        <pt x="1071" y="932" on="1"/>
        <pt x="1087" y="932" on="1"/>
        <pt x="1140" y="1029" on="0"/>
        <pt x="1290" y="1118" on="0"/>
        <pt x="1409" y="1118" on="1"/>
        <pt x="1573" y="1118" on="0"/>
        <pt x="1743" y="918" on="0"/>
        <pt x="1743" y="717" on="1"/>
        <pt x="1743" y="233" on="1"/>
        <pt x="1743" y="157" on="0"/>
        <pt x="1807" y="86" on="0"/>
        <pt x="1898" y="86" on="1"/>
        <pt x="1907" y="86" on="1"/>
        <pt x="1907" y="0" on="1"/>
        <pt x="1550" y="0" on="1"/>
        <pt x="1550" y="707" on="1"/>
        <pt x="1550" y="850" on="0"/>
        <pt x="1446" y="987" on="0"/>
        <pt x="1335" y="987" on="1"/>
        <pt x="1226" y="987" on="0"/>
        <pt x="1108" y="833" on="0"/>
        <pt x="1108" y="692" on="1"/>
        <pt x="1108" y="682" on="1"/>
        <pt x="1108" y="111" on="1"/>
        <pt x="1108" y="-36" on="0"/>
        <pt x="1175" y="-282" on="0"/>
        <pt x="1264" y="-434" on="1"/>
        <pt x="1178" y="-502" on="1"/>
        <pt x="915" y="-248" on="0"/>
        <pt x="915" y="117" on="1"/>
        <pt x="915" y="707" on="1"/>
        <pt x="915" y="850" on="0"/>
        <pt x="811" y="987" on="0"/>
        <pt x="700" y="987" on="1"/>
        <pt x="584" y="987" on="0"/>
        <pt x="463" y="815" on="0"/>
        <pt x="463" y="655" on="1"/>
        <pt x="463" y="223" on="1"/>
        <pt x="463" y="153" on="0"/>
        <pt x="534" y="86" on="0"/>
        <pt x="629" y="86" on="1"/>
        <pt x="637" y="86" on="1"/>
        <pt x="637" y="0" on="1"/>
        <pt x="86" y="0" on="1"/>
        <pt x="86" y="86" on="1"/>
        <pt x="113" y="86" on="1"/>
        <pt x="203" y="86" on="0"/>
        <pt x="270" y="155" on="0"/>
        <pt x="270" y="233" on="1"/>
        <pt x="270" y="815" on="1"/>
        <pt x="270" y="922" on="0"/>
        <pt x="196" y="1010" on="0"/>
        <pt x="115" y="1010" on="1"/>
        <pt x="31" y="1010" on="0"/>
        <pt x="-12" y="995" on="1"/>
        <pt x="-12" y="1085" on="1"/>
        <pt x="82" y="1118" on="0"/>
        <pt x="190" y="1118" on="1"/>
        <pt x="307" y="1118" on="0"/>
        <pt x="435" y="1029" on="0"/>
        <pt x="455" y="932" on="1"/>
      </contour>
    </TTGlyph>
    <TTGlyph name="uni2D06" xMin="-154" yMin="-20" xMax="1083" yMax="1567">
      <contour>
        <pt x="887" y="541" on="1"/>
        <pt x="887" y="783" on="0"/>
        <pt x="750" y="993" on="0"/>
        <pt x="600" y="993" on="1"/>
        <pt x="452" y="993" on="0"/>
        <pt x="326" y="790" on="0"/>
        <pt x="326" y="541" on="1"/>
        <pt x="326" y="318" on="0"/>
        <pt x="456" y="86" on="0"/>
        <pt x="600" y="86" on="1"/>
        <pt x="748" y="86" on="0"/>
        <pt x="887" y="298" on="0"/>
      </contour>
      <contour>
        <pt x="324" y="981" on="1"/>
        <pt x="332" y="981" on="1"/>
        <pt x="385" y="1036" on="0"/>
        <pt x="541" y="1098" on="0"/>
        <pt x="635" y="1098" on="1"/>
        <pt x="855" y="1098" on="0"/>
        <pt x="1083" y="817" on="0"/>
        <pt x="1083" y="541" on="1"/>
        <pt x="1083" y="-20" on="0"/>
        <pt x="600" y="-20" on="1"/>
        <pt x="422" y="-20" on="0"/>
        <pt x="221" y="148" on="0"/>
        <pt x="129" y="506" on="0"/>
        <pt x="129" y="784" on="1"/>
        <pt x="129" y="1264" on="1"/>
        <pt x="129" y="1369" on="0"/>
        <pt x="57" y="1458" on="0"/>
        <pt x="-27" y="1458" on="1"/>
        <pt x="-114" y="1458" on="0"/>
        <pt x="-154" y="1444" on="1"/>
        <pt x="-154" y="1534" on="1"/>
        <pt x="-57" y="1567" on="0"/>
        <pt x="49" y="1567" on="1"/>
        <pt x="324" y="1567" on="0"/>
        <pt x="324" y="1264" on="1"/>
      </contour>
    </TTGlyph>
    <TTGlyph name="uni2D07" xMin="57" yMin="-20" xMax="1858" yMax="1118">
      <contour>
        <pt x="866" y="707" on="1"/>
        <pt x="866" y="850" on="0"/>
        <pt x="762" y="987" on="0"/>
        <pt x="651" y="987" on="1"/>
        <pt x="535" y="987" on="0"/>
        <pt x="414" y="815" on="0"/>
        <pt x="414" y="655" on="1"/>
        <pt x="414" y="391" on="1"/>
        <pt x="414" y="235" on="0"/>
        <pt x="510" y="111" on="0"/>
        <pt x="618" y="111" on="1"/>
        <pt x="866" y="111" on="0"/>
        <pt x="866" y="442" on="1"/>
      </contour>
      <contour>
        <pt x="907" y="0" on="1"/>
        <pt x="881" y="166" on="1"/>
        <pt x="870" y="166" on="1"/>
        <pt x="815" y="67" on="0"/>
        <pt x="670" y="-20" on="0"/>
        <pt x="549" y="-20" on="1"/>
        <pt x="382" y="-20" on="0"/>
        <pt x="221" y="175" on="0"/>
        <pt x="221" y="381" on="1"/>
        <pt x="221" y="872" on="1"/>
        <pt x="221" y="945" on="0"/>
        <pt x="153" y="1012" on="0"/>
        <pt x="66" y="1012" on="1"/>
        <pt x="57" y="1012" on="1"/>
        <pt x="57" y="1098" on="1"/>
        <pt x="379" y="1098" on="1"/>
        <pt x="406" y="932" on="1"/>
        <pt x="416" y="932" on="1"/>
        <pt x="470" y="1032" on="0"/>
        <pt x="610" y="1118" on="0"/>
        <pt x="725" y="1118" on="1"/>
        <pt x="837" y="1118" on="0"/>
        <pt x="988" y="1023" on="0"/>
        <pt x="1022" y="932" on="1"/>
        <pt x="1038" y="932" on="1"/>
        <pt x="1091" y="1029" on="0"/>
        <pt x="1241" y="1118" on="0"/>
        <pt x="1360" y="1118" on="1"/>
        <pt x="1524" y="1118" on="0"/>
        <pt x="1694" y="918" on="0"/>
        <pt x="1694" y="717" on="1"/>
        <pt x="1694" y="233" on="1"/>
        <pt x="1694" y="157" on="0"/>
        <pt x="1758" y="86" on="0"/>
        <pt x="1849" y="86" on="1"/>
        <pt x="1858" y="86" on="1"/>
        <pt x="1858" y="0" on="1"/>
        <pt x="1501" y="0" on="1"/>
        <pt x="1501" y="707" on="1"/>
        <pt x="1501" y="850" on="0"/>
        <pt x="1397" y="987" on="0"/>
        <pt x="1286" y="987" on="1"/>
        <pt x="1175" y="987" on="0"/>
        <pt x="1059" y="830" on="0"/>
        <pt x="1059" y="682" on="1"/>
        <pt x="1059" y="233" on="1"/>
        <pt x="1059" y="157" on="0"/>
        <pt x="1123" y="86" on="0"/>
        <pt x="1214" y="86" on="1"/>
        <pt x="1223" y="86" on="1"/>
        <pt x="1223" y="0" on="1"/>
      </contour>
    </TTGlyph>
    <TTGlyph name="uni2D08" xMin="41" yMin="0" xMax="901" yMax="1118">
      <contour>
        <pt x="717" y="233" on="1"/>
        <pt x="717" y="157" on="0"/>
        <pt x="787" y="86" on="0"/>
        <pt x="881" y="86" on="1"/>
        <pt x="901" y="86" on="1"/>
        <pt x="901" y="0" on="1"/>
        <pt x="340" y="0" on="1"/>
        <pt x="340" y="86" on="1"/>
        <pt x="358" y="86" on="1"/>
        <pt x="453" y="86" on="0"/>
        <pt x="524" y="151" on="0"/>
        <pt x="524" y="223" on="1"/>
        <pt x="524" y="723" on="1"/>
        <pt x="524" y="873" on="0"/>
        <pt x="406" y="1010" on="0"/>
        <pt x="268" y="1010" on="1"/>
        <pt x="154" y="1010" on="0"/>
        <pt x="41" y="979" on="1"/>
        <pt x="41" y="1069" on="1"/>
        <pt x="73" y="1085" on="0"/>
        <pt x="239" y="1118" on="0"/>
        <pt x="307" y="1118" on="1"/>
        <pt x="717" y="1118" on="0"/>
        <pt x="717" y="737" on="1"/>
      </contour>
    </TTGlyph>
    <TTGlyph name="uni2D09" xMin="-10" yMin="-502" xMax="1268" yMax="1556">
      <contour>
        <pt x="926" y="526" on="1"/>
        <pt x="926" y="761" on="0"/>
        <pt x="790" y="967" on="0"/>
        <pt x="645" y="967" on="1"/>
        <pt x="493" y="967" on="0"/>
        <pt x="367" y="768" on="0"/>
        <pt x="367" y="551" on="1"/>
        <pt x="367" y="319" on="0"/>
        <pt x="507" y="111" on="0"/>
        <pt x="657" y="111" on="1"/>
        <pt x="797" y="111" on="0"/>
        <pt x="926" y="315" on="0"/>
      </contour>
      <contour>
        <pt x="911" y="135" on="1"/>
        <pt x="794" y="-20" on="0"/>
        <pt x="623" y="-20" on="1"/>
        <pt x="174" y="-20" on="0"/>
        <pt x="174" y="551" on="1"/>
        <pt x="174" y="1331" on="1"/>
        <pt x="174" y="1381" on="0"/>
        <pt x="139" y="1442" on="0"/>
        <pt x="72" y="1470" on="0"/>
        <pt x="6" y="1470" on="1"/>
        <pt x="-10" y="1470" on="1"/>
        <pt x="-10" y="1556" on="1"/>
        <pt x="367" y="1556" on="1"/>
        <pt x="367" y="1169" on="1"/>
        <pt x="367" y="1020" on="0"/>
        <pt x="358" y="936" on="1"/>
        <pt x="367" y="936" on="1"/>
        <pt x="490" y="1098" on="0"/>
        <pt x="680" y="1098" on="1"/>
        <pt x="907" y="1098" on="0"/>
        <pt x="1118" y="831" on="0"/>
        <pt x="1118" y="551" on="1"/>
        <pt x="1118" y="111" on="1"/>
        <pt x="1118" y="-52" on="0"/>
        <pt x="1183" y="-294" on="0"/>
        <pt x="1268" y="-434" on="1"/>
        <pt x="1182" y="-502" on="1"/>
        <pt x="1047" y="-369" on="0"/>
        <pt x="920" y="-65" on="0"/>
        <pt x="920" y="135" on="1"/>
      </contour>
    </TTGlyph>
    <TTGlyph name="uni2D0A" xMin="57" yMin="-20" xMax="1878" yMax="1118">
      <contour>
        <pt x="1079" y="391" on="1"/>
        <pt x="1079" y="244" on="0"/>
        <pt x="1173" y="111" on="0"/>
        <pt x="1282" y="111" on="1"/>
        <pt x="1400" y="111" on="0"/>
        <pt x="1522" y="283" on="0"/>
        <pt x="1522" y="442" on="1"/>
        <pt x="1522" y="707" on="1"/>
        <pt x="1522" y="850" on="0"/>
        <pt x="1418" y="987" on="0"/>
        <pt x="1307" y="987" on="1"/>
        <pt x="1197" y="987" on="0"/>
        <pt x="1079" y="830" on="0"/>
        <pt x="1079" y="682" on="1"/>
      </contour>
      <contour>
        <pt x="887" y="707" on="1"/>
        <pt x="887" y="850" on="0"/>
        <pt x="783" y="987" on="0"/>
        <pt x="672" y="987" on="1"/>
        <pt x="557" y="987" on="0"/>
        <pt x="434" y="815" on="0"/>
        <pt x="434" y="655" on="1"/>
        <pt x="434" y="223" on="1"/>
        <pt x="434" y="153" on="0"/>
        <pt x="505" y="86" on="0"/>
        <pt x="600" y="86" on="1"/>
        <pt x="608" y="86" on="1"/>
        <pt x="608" y="0" on="1"/>
        <pt x="57" y="0" on="1"/>
        <pt x="57" y="86" on="1"/>
        <pt x="84" y="86" on="1"/>
        <pt x="174" y="86" on="0"/>
        <pt x="242" y="156" on="0"/>
        <pt x="242" y="233" on="1"/>
        <pt x="242" y="872" on="1"/>
        <pt x="242" y="945" on="0"/>
        <pt x="174" y="1012" on="0"/>
        <pt x="86" y="1012" on="1"/>
        <pt x="78" y="1012" on="1"/>
        <pt x="78" y="1098" on="1"/>
        <pt x="399" y="1098" on="1"/>
        <pt x="426" y="932" on="1"/>
        <pt x="436" y="932" on="1"/>
        <pt x="490" y="1032" on="0"/>
        <pt x="630" y="1118" on="0"/>
        <pt x="745" y="1118" on="1"/>
        <pt x="857" y="1118" on="0"/>
        <pt x="1008" y="1023" on="0"/>
        <pt x="1042" y="932" on="1"/>
        <pt x="1059" y="932" on="1"/>
        <pt x="1111" y="1028" on="0"/>
        <pt x="1259" y="1118" on="0"/>
        <pt x="1380" y="1118" on="1"/>
        <pt x="1544" y="1118" on="0"/>
        <pt x="1714" y="918" on="0"/>
        <pt x="1714" y="717" on="1"/>
        <pt x="1714" y="233" on="1"/>
        <pt x="1714" y="156" on="0"/>
        <pt x="1780" y="86" on="0"/>
        <pt x="1870" y="86" on="1"/>
        <pt x="1878" y="86" on="1"/>
        <pt x="1878" y="0" on="1"/>
        <pt x="1563" y="0" on="1"/>
        <pt x="1536" y="166" on="1"/>
        <pt x="1526" y="166" on="1"/>
        <pt x="1478" y="72" on="0"/>
        <pt x="1331" y="-20" on="0"/>
        <pt x="1210" y="-20" on="1"/>
        <pt x="1046" y="-20" on="0"/>
        <pt x="887" y="178" on="0"/>
        <pt x="887" y="381" on="1"/>
      </contour>
    </TTGlyph>
    <TTGlyph name="uni2D0B" xMin="113" yMin="-20" xMax="1231" yMax="1567">
      <contour>
        <pt x="311" y="549" on="1"/>
        <pt x="311" y="88" on="0"/>
        <pt x="614" y="88" on="1"/>
        <pt x="757" y="88" on="0"/>
        <pt x="877" y="315" on="0"/>
        <pt x="877" y="590" on="1"/>
        <pt x="877" y="991" on="1"/>
        <pt x="641" y="991" on="1"/>
        <pt x="470" y="991" on="0"/>
        <pt x="311" y="774" on="0"/>
      </contour>
      <contour>
        <pt x="1231" y="1098" on="1"/>
        <pt x="1231" y="991" on="1"/>
        <pt x="1069" y="991" on="1"/>
        <pt x="1069" y="598" on="1"/>
        <pt x="1069" y="273" on="0"/>
        <pt x="849" y="-20" on="0"/>
        <pt x="610" y="-20" on="1"/>
        <pt x="374" y="-20" on="0"/>
        <pt x="113" y="277" on="0"/>
        <pt x="113" y="549" on="1"/>
        <pt x="113" y="827" on="0"/>
        <pt x="375" y="1098" on="0"/>
        <pt x="645" y="1098" on="1"/>
        <pt x="877" y="1098" on="1"/>
        <pt x="877" y="1458" on="0"/>
        <pt x="614" y="1458" on="1"/>
        <pt x="466" y="1458" on="0"/>
        <pt x="342" y="1427" on="1"/>
        <pt x="342" y="1518" on="1"/>
        <pt x="396" y="1539" on="0"/>
        <pt x="574" y="1567" on="0"/>
        <pt x="641" y="1567" on="1"/>
        <pt x="846" y="1567" on="0"/>
        <pt x="1069" y="1319" on="0"/>
        <pt x="1069" y="1098" on="1"/>
      </contour>
    </TTGlyph>
    <TTGlyph name="uni2D0C" xMin="37" yMin="0" xMax="1243" yMax="1569">
      <contour>
        <pt x="416" y="932" on="1"/>
        <pt x="508" y="1118" on="0"/>
        <pt x="717" y="1118" on="1"/>
        <pt x="1079" y="1118" on="0"/>
        <pt x="1079" y="717" on="1"/>
        <pt x="1079" y="233" on="1"/>
        <pt x="1079" y="155" on="0"/>
        <pt x="1147" y="86" on="0"/>
        <pt x="1237" y="86" on="1"/>
        <pt x="1243" y="86" on="1"/>
        <pt x="1243" y="0" on="1"/>
        <pt x="887" y="0" on="1"/>
        <pt x="887" y="707" on="1"/>
        <pt x="887" y="850" on="0"/>
        <pt x="779" y="987" on="0"/>
        <pt x="662" y="987" on="1"/>
        <pt x="541" y="987" on="0"/>
        <pt x="414" y="814" on="0"/>
        <pt x="414" y="655" on="1"/>
        <pt x="414" y="223" on="1"/>
        <pt x="414" y="152" on="0"/>
        <pt x="487" y="86" on="0"/>
        <pt x="582" y="86" on="1"/>
        <pt x="588" y="86" on="1"/>
        <pt x="588" y="0" on="1"/>
        <pt x="37" y="0" on="1"/>
        <pt x="37" y="86" on="1"/>
        <pt x="53" y="86" on="1"/>
        <pt x="148" y="86" on="0"/>
        <pt x="221" y="159" on="0"/>
        <pt x="221" y="233" on="1"/>
        <pt x="221" y="1186" on="1"/>
        <pt x="221" y="1569" on="0"/>
        <pt x="705" y="1569" on="1"/>
        <pt x="770" y="1569" on="0"/>
        <pt x="963" y="1541" on="0"/>
        <pt x="1020" y="1520" on="1"/>
        <pt x="1020" y="1430" on="1"/>
        <pt x="883" y="1460" on="0"/>
        <pt x="735" y="1460" on="1"/>
        <pt x="562" y="1460" on="0"/>
        <pt x="414" y="1324" on="0"/>
        <pt x="414" y="1171" on="1"/>
        <pt x="414" y="1106" on="1"/>
        <pt x="414" y="1048" on="0"/>
        <pt x="406" y="932" on="1"/>
      </contour>
    </TTGlyph>
    <TTGlyph name="uni2D0D" xMin="57" yMin="-20" xMax="1858" yMax="1098">
      <contour>
        <pt x="1694" y="225" on="1"/>
        <pt x="1694" y="174" on="0"/>
        <pt x="1725" y="113" on="0"/>
        <pt x="1787" y="86" on="0"/>
        <pt x="1849" y="86" on="1"/>
        <pt x="1858" y="86" on="1"/>
        <pt x="1858" y="0" on="1"/>
        <pt x="1536" y="0" on="1"/>
        <pt x="1509" y="166" on="1"/>
        <pt x="1499" y="166" on="1"/>
        <pt x="1447" y="68" on="0"/>
        <pt x="1306" y="-20" on="0"/>
        <pt x="1190" y="-20" on="1"/>
        <pt x="1078" y="-20" on="0"/>
        <pt x="927" y="75" on="0"/>
        <pt x="893" y="166" on="1"/>
        <pt x="877" y="166" on="1"/>
        <pt x="826" y="70" on="0"/>
        <pt x="675" y="-20" on="0"/>
        <pt x="555" y="-20" on="1"/>
        <pt x="221" y="-20" on="0"/>
        <pt x="221" y="381" on="1"/>
        <pt x="221" y="864" on="1"/>
        <pt x="221" y="940" on="0"/>
        <pt x="157" y="1012" on="0"/>
        <pt x="66" y="1012" on="1"/>
        <pt x="57" y="1012" on="1"/>
        <pt x="57" y="1098" on="1"/>
        <pt x="414" y="1098" on="1"/>
        <pt x="414" y="391" on="1"/>
        <pt x="414" y="248" on="0"/>
        <pt x="518" y="111" on="0"/>
        <pt x="629" y="111" on="1"/>
        <pt x="740" y="111" on="0"/>
        <pt x="856" y="268" on="0"/>
        <pt x="856" y="416" on="1"/>
        <pt x="856" y="864" on="1"/>
        <pt x="856" y="941" on="0"/>
        <pt x="790" y="1012" on="0"/>
        <pt x="700" y="1012" on="1"/>
        <pt x="692" y="1012" on="1"/>
        <pt x="692" y="1098" on="1"/>
        <pt x="1049" y="1098" on="1"/>
        <pt x="1049" y="391" on="1"/>
        <pt x="1049" y="248" on="0"/>
        <pt x="1153" y="111" on="0"/>
        <pt x="1264" y="111" on="1"/>
        <pt x="1378" y="111" on="0"/>
        <pt x="1501" y="282" on="0"/>
        <pt x="1501" y="442" on="1"/>
        <pt x="1501" y="874" on="1"/>
        <pt x="1501" y="943" on="0"/>
        <pt x="1430" y="1012" on="0"/>
        <pt x="1335" y="1012" on="1"/>
        <pt x="1327" y="1012" on="1"/>
        <pt x="1327" y="1098" on="1"/>
        <pt x="1694" y="1098" on="1"/>
      </contour>
    </TTGlyph>
    <TTGlyph name="uni2D0E" xMin="-12" yMin="-20" xMax="1282" yMax="1118">
      <contour>
        <pt x="442" y="391" on="1"/>
        <pt x="442" y="243" on="0"/>
        <pt x="543" y="111" on="0"/>
        <pt x="657" y="111" on="1"/>
        <pt x="782" y="111" on="0"/>
        <pt x="915" y="280" on="0"/>
        <pt x="915" y="442" on="1"/>
        <pt x="915" y="864" on="1"/>
        <pt x="915" y="939" on="0"/>
        <pt x="845" y="1012" on="0"/>
        <pt x="750" y="1012" on="1"/>
        <pt x="741" y="1012" on="1"/>
        <pt x="741" y="1098" on="1"/>
        <pt x="1108" y="1098" on="1"/>
        <pt x="1108" y="223" on="1"/>
        <pt x="1108" y="153" on="0"/>
        <pt x="1179" y="86" on="0"/>
        <pt x="1274" y="86" on="1"/>
        <pt x="1282" y="86" on="1"/>
        <pt x="1282" y="0" on="1"/>
        <pt x="956" y="0" on="1"/>
        <pt x="930" y="166" on="1"/>
        <pt x="920" y="166" on="1"/>
        <pt x="867" y="70" on="0"/>
        <pt x="713" y="-20" on="0"/>
        <pt x="588" y="-20" on="1"/>
        <pt x="250" y="-20" on="0"/>
        <pt x="250" y="381" on="1"/>
        <pt x="250" y="815" on="1"/>
        <pt x="250" y="919" on="0"/>
        <pt x="184" y="1010" on="0"/>
        <pt x="106" y="1010" on="1"/>
        <pt x="27" y="1010" on="0"/>
        <pt x="-12" y="995" on="1"/>
        <pt x="-12" y="1085" on="1"/>
        <pt x="78" y="1118" on="0"/>
        <pt x="182" y="1118" on="1"/>
        <pt x="319" y="1118" on="0"/>
        <pt x="442" y="966" on="0"/>
        <pt x="442" y="823" on="1"/>
      </contour>
    </TTGlyph>
    <TTGlyph name="uni2D0F" xMin="-12" yMin="-502" xMax="1264" yMax="1118">
      <contour>
        <pt x="1108" y="111" on="1"/>
        <pt x="1108" y="-44" on="0"/>
        <pt x="1174" y="-287" on="0"/>
        <pt x="1264" y="-434" on="1"/>
        <pt x="1178" y="-502" on="1"/>
        <pt x="1040" y="-366" on="0"/>
        <pt x="915" y="-63" on="0"/>
        <pt x="915" y="135" on="1"/>
        <pt x="907" y="135" on="1"/>
        <pt x="848" y="58" on="0"/>
        <pt x="687" y="-20" on="0"/>
        <pt x="602" y="-20" on="1"/>
        <pt x="426" y="-20" on="0"/>
        <pt x="250" y="185" on="0"/>
        <pt x="250" y="381" on="1"/>
        <pt x="250" y="815" on="1"/>
        <pt x="250" y="919" on="0"/>
        <pt x="184" y="1010" on="0"/>
        <pt x="106" y="1010" on="1"/>
        <pt x="27" y="1010" on="0"/>
        <pt x="-12" y="995" on="1"/>
        <pt x="-12" y="1085" on="1"/>
        <pt x="78" y="1118" on="0"/>
        <pt x="182" y="1118" on="1"/>
        <pt x="319" y="1118" on="0"/>
        <pt x="442" y="966" on="0"/>
        <pt x="442" y="823" on="1"/>
        <pt x="442" y="391" on="1"/>
        <pt x="442" y="243" on="0"/>
        <pt x="543" y="111" on="0"/>
        <pt x="657" y="111" on="1"/>
        <pt x="782" y="111" on="0"/>
        <pt x="915" y="280" on="0"/>
        <pt x="915" y="442" on="1"/>
        <pt x="915" y="864" on="1"/>
        <pt x="915" y="939" on="0"/>
        <pt x="845" y="1012" on="0"/>
        <pt x="750" y="1012" on="1"/>
        <pt x="741" y="1012" on="1"/>
        <pt x="741" y="1098" on="1"/>
        <pt x="1108" y="1098" on="1"/>
      </contour>
    </TTGlyph>
    <TTGlyph name="uni2D10" xMin="47" yMin="-20" xMax="1868" yMax="1556">
      <contour>
        <pt x="1059" y="223" on="1"/>
        <pt x="1059" y="153" on="0"/>
        <pt x="1130" y="86" on="0"/>
        <pt x="1225" y="86" on="1"/>
        <pt x="1233" y="86" on="1"/>
        <pt x="1233" y="0" on="1"/>
        <pt x="907" y="0" on="1"/>
        <pt x="881" y="166" on="1"/>
        <pt x="870" y="166" on="1"/>
        <pt x="815" y="67" on="0"/>
        <pt x="670" y="-20" on="0"/>
        <pt x="549" y="-20" on="1"/>
        <pt x="382" y="-20" on="0"/>
        <pt x="221" y="175" on="0"/>
        <pt x="221" y="381" on="1"/>
        <pt x="221" y="872" on="1"/>
        <pt x="221" y="942" on="0"/>
        <pt x="147" y="1012" on="0"/>
        <pt x="55" y="1012" on="1"/>
        <pt x="47" y="1012" on="1"/>
        <pt x="47" y="1098" on="1"/>
        <pt x="414" y="1098" on="1"/>
        <pt x="414" y="391" on="1"/>
        <pt x="414" y="235" on="0"/>
        <pt x="510" y="111" on="0"/>
        <pt x="618" y="111" on="1"/>
        <pt x="866" y="111" on="0"/>
        <pt x="866" y="442" on="1"/>
        <pt x="866" y="1323" on="1"/>
        <pt x="866" y="1399" on="0"/>
        <pt x="793" y="1470" on="0"/>
        <pt x="700" y="1470" on="1"/>
        <pt x="692" y="1470" on="1"/>
        <pt x="692" y="1556" on="1"/>
        <pt x="1059" y="1556" on="1"/>
        <pt x="1059" y="1106" on="1"/>
        <pt x="1059" y="1048" on="0"/>
        <pt x="1051" y="932" on="1"/>
        <pt x="1061" y="932" on="1"/>
        <pt x="1107" y="1025" on="0"/>
        <pt x="1246" y="1118" on="0"/>
        <pt x="1352" y="1118" on="1"/>
        <pt x="1527" y="1118" on="0"/>
        <pt x="1704" y="927" on="0"/>
        <pt x="1704" y="717" on="1"/>
        <pt x="1704" y="233" on="1"/>
        <pt x="1704" y="156" on="0"/>
        <pt x="1770" y="86" on="0"/>
        <pt x="1860" y="86" on="1"/>
        <pt x="1868" y="86" on="1"/>
        <pt x="1868" y="0" on="1"/>
        <pt x="1511" y="0" on="1"/>
        <pt x="1511" y="707" on="1"/>
        <pt x="1511" y="855" on="0"/>
        <pt x="1410" y="987" on="0"/>
        <pt x="1296" y="987" on="1"/>
        <pt x="1059" y="987" on="0"/>
        <pt x="1059" y="655" on="1"/>
      </contour>
    </TTGlyph>
    <TTGlyph name="uni2D11" xMin="10" yMin="-20" xMax="1212" yMax="1556">
      <contour>
        <pt x="1038" y="223" on="1"/>
        <pt x="1038" y="153" on="0"/>
        <pt x="1109" y="86" on="0"/>
        <pt x="1204" y="86" on="1"/>
        <pt x="1212" y="86" on="1"/>
        <pt x="1212" y="0" on="1"/>
        <pt x="887" y="0" on="1"/>
        <pt x="860" y="166" on="1"/>
        <pt x="850" y="166" on="1"/>
        <pt x="797" y="70" on="0"/>
        <pt x="643" y="-20" on="0"/>
        <pt x="518" y="-20" on="1"/>
        <pt x="180" y="-20" on="0"/>
        <pt x="180" y="381" on="1"/>
        <pt x="180" y="1331" on="1"/>
        <pt x="180" y="1403" on="0"/>
        <pt x="109" y="1470" on="0"/>
        <pt x="18" y="1470" on="1"/>
        <pt x="10" y="1470" on="1"/>
        <pt x="10" y="1556" on="1"/>
        <pt x="373" y="1556" on="1"/>
        <pt x="373" y="391" on="1"/>
        <pt x="373" y="240" on="0"/>
        <pt x="475" y="111" on="0"/>
        <pt x="588" y="111" on="1"/>
        <pt x="713" y="111" on="0"/>
        <pt x="846" y="280" on="0"/>
        <pt x="846" y="442" on="1"/>
        <pt x="846" y="864" on="1"/>
        <pt x="846" y="940" on="0"/>
        <pt x="774" y="1012" on="0"/>
        <pt x="680" y="1012" on="1"/>
        <pt x="672" y="1012" on="1"/>
        <pt x="672" y="1098" on="1"/>
        <pt x="1038" y="1098" on="1"/>
      </contour>
    </TTGlyph>
    <TTGlyph name="uni2D12" xMin="168" yMin="-492" xMax="1124" yMax="1118">
      <contour>
        <pt x="641" y="111" on="1"/>
        <pt x="926" y="111" on="0"/>
        <pt x="926" y="559" on="1"/>
        <pt x="926" y="771" on="0"/>
        <pt x="777" y="1010" on="0"/>
        <pt x="643" y="1010" on="1"/>
        <pt x="492" y="1010" on="0"/>
        <pt x="360" y="798" on="0"/>
        <pt x="360" y="526" on="1"/>
        <pt x="360" y="296" on="0"/>
        <pt x="491" y="111" on="0"/>
      </contour>
      <contour>
        <pt x="647" y="-395" on="1"/>
        <pt x="752" y="-395" on="0"/>
        <pt x="881" y="-252" on="0"/>
        <pt x="909" y="-102" on="1"/>
        <pt x="957" y="-105" on="0"/>
        <pt x="1026" y="-171" on="0"/>
        <pt x="1026" y="-236" on="1"/>
        <pt x="1026" y="-302" on="0"/>
        <pt x="929" y="-423" on="0"/>
        <pt x="757" y="-492" on="0"/>
        <pt x="645" y="-492" on="1"/>
        <pt x="412" y="-492" on="0"/>
        <pt x="168" y="-223" on="0"/>
        <pt x="168" y="25" on="1"/>
        <pt x="168" y="506" on="1"/>
        <pt x="168" y="798" on="0"/>
        <pt x="421" y="1118" on="0"/>
        <pt x="651" y="1118" on="1"/>
        <pt x="789" y="1118" on="0"/>
        <pt x="1005" y="981" on="0"/>
        <pt x="1124" y="728" on="0"/>
        <pt x="1124" y="563" on="1"/>
        <pt x="1124" y="269" on="0"/>
        <pt x="894" y="-20" on="0"/>
        <pt x="647" y="-20" on="1"/>
        <pt x="547" y="-20" on="0"/>
        <pt x="398" y="76" on="0"/>
        <pt x="360" y="160" on="1"/>
        <pt x="352" y="160" on="1"/>
        <pt x="358" y="73" on="1"/>
        <pt x="360" y="-20" on="1"/>
        <pt x="360" y="-209" on="0"/>
        <pt x="501" y="-395" on="0"/>
      </contour>
    </TTGlyph>
    <TTGlyph name="uni2D13" xMin="57" yMin="-502" xMax="1843" yMax="1556">
      <contour>
        <pt x="1694" y="111" on="1"/>
        <pt x="1694" y="-48" on="0"/>
        <pt x="1757" y="-291" on="0"/>
        <pt x="1843" y="-434" on="1"/>
        <pt x="1757" y="-502" on="1"/>
        <pt x="1622" y="-369" on="0"/>
        <pt x="1495" y="-65" on="0"/>
        <pt x="1495" y="135" on="1"/>
        <pt x="1487" y="135" on="1"/>
        <pt x="1429" y="51" on="0"/>
        <pt x="1296" y="-20" on="0"/>
        <pt x="1200" y="-20" on="1"/>
        <pt x="1190" y="-20" on="1"/>
        <pt x="961" y="-15" on="0"/>
        <pt x="893" y="166" on="1"/>
        <pt x="877" y="166" on="1"/>
        <pt x="826" y="70" on="0"/>
        <pt x="675" y="-20" on="0"/>
        <pt x="555" y="-20" on="1"/>
        <pt x="221" y="-20" on="0"/>
        <pt x="221" y="381" on="1"/>
        <pt x="221" y="864" on="1"/>
        <pt x="221" y="940" on="0"/>
        <pt x="157" y="1012" on="0"/>
        <pt x="66" y="1012" on="1"/>
        <pt x="57" y="1012" on="1"/>
        <pt x="57" y="1098" on="1"/>
        <pt x="414" y="1098" on="1"/>
        <pt x="414" y="391" on="1"/>
        <pt x="414" y="248" on="0"/>
        <pt x="518" y="111" on="0"/>
        <pt x="629" y="111" on="1"/>
        <pt x="740" y="111" on="0"/>
        <pt x="856" y="268" on="0"/>
        <pt x="856" y="416" on="1"/>
        <pt x="856" y="864" on="1"/>
        <pt x="856" y="941" on="0"/>
        <pt x="790" y="1012" on="0"/>
        <pt x="700" y="1012" on="1"/>
        <pt x="692" y="1012" on="1"/>
        <pt x="692" y="1098" on="1"/>
        <pt x="1049" y="1098" on="1"/>
        <pt x="1049" y="391" on="1"/>
        <pt x="1049" y="248" on="0"/>
        <pt x="1153" y="111" on="0"/>
        <pt x="1264" y="111" on="1"/>
        <pt x="1378" y="111" on="0"/>
        <pt x="1501" y="282" on="0"/>
        <pt x="1501" y="442" on="1"/>
        <pt x="1501" y="1333" on="1"/>
        <pt x="1501" y="1403" on="0"/>
        <pt x="1430" y="1470" on="0"/>
        <pt x="1335" y="1470" on="1"/>
        <pt x="1327" y="1470" on="1"/>
        <pt x="1327" y="1556" on="1"/>
        <pt x="1694" y="1556" on="1"/>
      </contour>
    </TTGlyph>
    <TTGlyph name="uni2D14" xMin="113" yMin="-502" xMax="1767" yMax="1118">
      <contour>
        <pt x="1192" y="-434" on="1"/>
        <pt x="1106" y="-502" on="1"/>
        <pt x="844" y="-295" on="0"/>
        <pt x="844" y="6" on="1"/>
        <pt x="844" y="61" on="0"/>
        <pt x="852" y="168" on="1"/>
        <pt x="844" y="168" on="1"/>
        <pt x="797" y="71" on="0"/>
        <pt x="646" y="-20" on="0"/>
        <pt x="530" y="-20" on="1"/>
        <pt x="113" y="-20" on="0"/>
        <pt x="113" y="547" on="1"/>
        <pt x="113" y="825" on="0"/>
        <pt x="346" y="1118" on="0"/>
        <pt x="565" y="1118" on="1"/>
        <pt x="689" y="1118" on="0"/>
        <pt x="875" y="1018" on="0"/>
        <pt x="938" y="905" on="1"/>
        <pt x="997" y="1005" on="0"/>
        <pt x="1196" y="1118" on="0"/>
        <pt x="1317" y="1118" on="1"/>
        <pt x="1537" y="1118" on="0"/>
        <pt x="1767" y="833" on="0"/>
        <pt x="1767" y="551" on="1"/>
        <pt x="1767" y="263" on="0"/>
        <pt x="1560" y="-20" on="0"/>
        <pt x="1350" y="-20" on="1"/>
        <pt x="1139" y="-20" on="0"/>
        <pt x="1036" y="168" on="1"/>
        <pt x="1028" y="168" on="1"/>
        <pt x="1036" y="61" on="0"/>
        <pt x="1036" y="0" on="1"/>
        <pt x="1036" y="-115" on="0"/>
        <pt x="1101" y="-310" on="0"/>
      </contour>
      <contour>
        <pt x="565" y="111" on="1"/>
        <pt x="714" y="111" on="0"/>
        <pt x="844" y="309" on="0"/>
        <pt x="844" y="547" on="1"/>
        <pt x="844" y="785" on="0"/>
        <pt x="709" y="987" on="0"/>
        <pt x="563" y="987" on="1"/>
        <pt x="435" y="987" on="0"/>
        <pt x="311" y="771" on="0"/>
        <pt x="311" y="545" on="1"/>
        <pt x="311" y="318" on="0"/>
        <pt x="433" y="111" on="0"/>
      </contour>
      <contour>
        <pt x="1315" y="987" on="1"/>
        <pt x="1166" y="987" on="0"/>
        <pt x="1036" y="789" on="0"/>
        <pt x="1036" y="551" on="1"/>
        <pt x="1036" y="324" on="0"/>
        <pt x="1169" y="111" on="0"/>
        <pt x="1317" y="111" on="1"/>
        <pt x="1446" y="111" on="0"/>
        <pt x="1569" y="327" on="0"/>
        <pt x="1569" y="553" on="1"/>
        <pt x="1569" y="771" on="0"/>
        <pt x="1451" y="987" on="0"/>
      </contour>
    </TTGlyph>
    <TTGlyph name="uni2D15" xMin="41" yMin="-502" xMax="1155" yMax="1556">
      <contour>
        <pt x="502" y="1331" on="1"/>
        <pt x="502" y="1381" on="0"/>
        <pt x="467" y="1442" on="0"/>
        <pt x="400" y="1470" on="0"/>
        <pt x="334" y="1470" on="1"/>
        <pt x="307" y="1470" on="1"/>
        <pt x="307" y="1556" on="1"/>
        <pt x="694" y="1556" on="1"/>
        <pt x="694" y="817" on="1"/>
        <pt x="776" y="842" on="1"/>
        <pt x="916" y="887" on="0"/>
        <pt x="1004" y="887" on="1"/>
        <pt x="1077" y="887" on="0"/>
        <pt x="1155" y="807" on="0"/>
        <pt x="1155" y="741" on="1"/>
        <pt x="1155" y="689" on="0"/>
        <pt x="1093" y="616" on="0"/>
        <pt x="1038" y="604" on="1"/>
        <pt x="1024" y="678" on="0"/>
        <pt x="967" y="731" on="0"/>
        <pt x="913" y="731" on="1"/>
        <pt x="794" y="731" on="0"/>
        <pt x="694" y="711" on="1"/>
        <pt x="694" y="111" on="1"/>
        <pt x="694" y="-38" on="0"/>
        <pt x="759" y="-286" on="0"/>
        <pt x="846" y="-434" on="1"/>
        <pt x="760" y="-502" on="1"/>
        <pt x="502" y="-253" on="0"/>
        <pt x="502" y="117" on="1"/>
        <pt x="502" y="678" on="1"/>
        <pt x="421" y="654" on="1"/>
        <pt x="280" y="608" on="0"/>
        <pt x="193" y="608" on="1"/>
        <pt x="121" y="608" on="0"/>
        <pt x="41" y="687" on="0"/>
        <pt x="41" y="754" on="1"/>
        <pt x="41" y="806" on="0"/>
        <pt x="103" y="879" on="0"/>
        <pt x="158" y="891" on="1"/>
        <pt x="168" y="823" on="0"/>
        <pt x="227" y="764" on="0"/>
        <pt x="283" y="764" on="1"/>
        <pt x="416" y="764" on="0"/>
        <pt x="502" y="784" on="1"/>
      </contour>
    </TTGlyph>
    <TTGlyph name="uni2D16" xMin="57" yMin="0" xMax="1264" yMax="1118">
      <contour>
        <pt x="608" y="86" on="1"/>
        <pt x="608" y="0" on="1"/>
        <pt x="57" y="0" on="1"/>
        <pt x="57" y="86" on="1"/>
        <pt x="74" y="86" on="1"/>
        <pt x="169" y="86" on="0"/>
        <pt x="242" y="159" on="0"/>
        <pt x="242" y="233" on="1"/>
        <pt x="242" y="872" on="1"/>
        <pt x="242" y="942" on="0"/>
        <pt x="168" y="1012" on="0"/>
        <pt x="76" y="1012" on="1"/>
        <pt x="68" y="1012" on="1"/>
        <pt x="68" y="1098" on="1"/>
        <pt x="399" y="1098" on="1"/>
        <pt x="426" y="932" on="1"/>
        <pt x="436" y="932" on="1"/>
        <pt x="487" y="1026" on="0"/>
        <pt x="633" y="1118" on="0"/>
        <pt x="756" y="1118" on="1"/>
        <pt x="1100" y="1118" on="0"/>
        <pt x="1100" y="717" on="1"/>
        <pt x="1100" y="233" on="1"/>
        <pt x="1100" y="157" on="0"/>
        <pt x="1164" y="86" on="0"/>
        <pt x="1255" y="86" on="1"/>
        <pt x="1264" y="86" on="1"/>
        <pt x="1264" y="0" on="1"/>
        <pt x="907" y="0" on="1"/>
        <pt x="907" y="707" on="1"/>
        <pt x="907" y="850" on="0"/>
        <pt x="799" y="987" on="0"/>
        <pt x="682" y="987" on="1"/>
        <pt x="562" y="987" on="0"/>
        <pt x="434" y="816" on="0"/>
        <pt x="434" y="655" on="1"/>
        <pt x="434" y="223" on="1"/>
        <pt x="434" y="153" on="0"/>
        <pt x="505" y="86" on="0"/>
        <pt x="600" y="86" on="1"/>
      </contour>
    </TTGlyph>
    <TTGlyph name="uni2D17" xMin="47" yMin="-502" xMax="1235" yMax="1098">
      <contour>
        <pt x="573" y="-20" on="1"/>
        <pt x="397" y="-20" on="0"/>
        <pt x="221" y="185" on="0"/>
        <pt x="221" y="381" on="1"/>
        <pt x="221" y="872" on="1"/>
        <pt x="221" y="942" on="0"/>
        <pt x="147" y="1012" on="0"/>
        <pt x="55" y="1012" on="1"/>
        <pt x="47" y="1012" on="1"/>
        <pt x="47" y="1098" on="1"/>
        <pt x="414" y="1098" on="1"/>
        <pt x="414" y="391" on="1"/>
        <pt x="414" y="240" on="0"/>
        <pt x="516" y="111" on="0"/>
        <pt x="629" y="111" on="1"/>
        <pt x="754" y="111" on="0"/>
        <pt x="887" y="280" on="0"/>
        <pt x="887" y="442" on="1"/>
        <pt x="887" y="864" on="1"/>
        <pt x="887" y="940" on="0"/>
        <pt x="815" y="1012" on="0"/>
        <pt x="721" y="1012" on="1"/>
        <pt x="713" y="1012" on="1"/>
        <pt x="713" y="1098" on="1"/>
        <pt x="1079" y="1098" on="1"/>
        <pt x="1079" y="111" on="1"/>
        <pt x="1079" y="-44" on="0"/>
        <pt x="1145" y="-287" on="0"/>
        <pt x="1235" y="-434" on="1"/>
        <pt x="1149" y="-502" on="1"/>
        <pt x="1014" y="-369" on="0"/>
        <pt x="887" y="-65" on="0"/>
        <pt x="887" y="135" on="1"/>
        <pt x="879" y="135" on="1"/>
        <pt x="820" y="58" on="0"/>
        <pt x="658" y="-20" on="0"/>
      </contour>
    </TTGlyph>
    <TTGlyph name="uni2D18" xMin="47" yMin="-492" xMax="1079" yMax="1098">
      <contour>
        <pt x="887" y="4" on="1"/>
        <pt x="887" y="73" on="0"/>
        <pt x="901" y="166" on="1"/>
        <pt x="891" y="166" on="1"/>
        <pt x="838" y="70" on="0"/>
        <pt x="684" y="-20" on="0"/>
        <pt x="559" y="-20" on="1"/>
        <pt x="221" y="-20" on="0"/>
        <pt x="221" y="381" on="1"/>
        <pt x="221" y="872" on="1"/>
        <pt x="221" y="942" on="0"/>
        <pt x="147" y="1012" on="0"/>
        <pt x="55" y="1012" on="1"/>
        <pt x="47" y="1012" on="1"/>
        <pt x="47" y="1098" on="1"/>
        <pt x="414" y="1098" on="1"/>
        <pt x="414" y="391" on="1"/>
        <pt x="414" y="240" on="0"/>
        <pt x="516" y="111" on="0"/>
        <pt x="629" y="111" on="1"/>
        <pt x="754" y="111" on="0"/>
        <pt x="887" y="280" on="0"/>
        <pt x="887" y="442" on="1"/>
        <pt x="887" y="864" on="1"/>
        <pt x="887" y="940" on="0"/>
        <pt x="815" y="1012" on="0"/>
        <pt x="721" y="1012" on="1"/>
        <pt x="713" y="1012" on="1"/>
        <pt x="713" y="1098" on="1"/>
        <pt x="1079" y="1098" on="1"/>
        <pt x="1079" y="2" on="1"/>
        <pt x="1079" y="-147" on="0"/>
        <pt x="959" y="-372" on="0"/>
        <pt x="740" y="-492" on="0"/>
        <pt x="602" y="-492" on="1"/>
        <pt x="482" y="-492" on="0"/>
        <pt x="312" y="-421" on="0"/>
        <pt x="219" y="-302" on="0"/>
        <pt x="219" y="-233" on="1"/>
        <pt x="219" y="-170" on="0"/>
        <pt x="295" y="-102" on="0"/>
        <pt x="367" y="-102" on="1"/>
        <pt x="367" y="-238" on="0"/>
        <pt x="491" y="-397" on="0"/>
        <pt x="600" y="-397" on="1"/>
        <pt x="755" y="-397" on="0"/>
        <pt x="887" y="-222" on="0"/>
        <pt x="887" y="-8" on="1"/>
      </contour>
    </TTGlyph>
    <TTGlyph name="uni2D19" xMin="10" yMin="-502" xMax="1202" yMax="1556">
      <contour>
        <pt x="373" y="111" on="1"/>
        <pt x="373" y="-45" on="0"/>
        <pt x="440" y="-289" on="0"/>
        <pt x="524" y="-434" on="1"/>
        <pt x="438" y="-502" on="1"/>
        <pt x="314" y="-382" on="0"/>
        <pt x="180" y="-69" on="0"/>
        <pt x="180" y="117" on="1"/>
        <pt x="180" y="1331" on="1"/>
        <pt x="180" y="1403" on="0"/>
        <pt x="109" y="1470" on="0"/>
        <pt x="18" y="1470" on="1"/>
        <pt x="10" y="1470" on="1"/>
        <pt x="10" y="1556" on="1"/>
        <pt x="373" y="1556" on="1"/>
        <pt x="373" y="1106" on="1"/>
        <pt x="373" y="1048" on="0"/>
        <pt x="365" y="932" on="1"/>
        <pt x="375" y="932" on="1"/>
        <pt x="467" y="1118" on="0"/>
        <pt x="676" y="1118" on="1"/>
        <pt x="1038" y="1118" on="0"/>
        <pt x="1038" y="717" on="1"/>
        <pt x="1038" y="233" on="1"/>
        <pt x="1038" y="156" on="0"/>
        <pt x="1104" y="86" on="0"/>
        <pt x="1194" y="86" on="1"/>
        <pt x="1202" y="86" on="1"/>
        <pt x="1202" y="0" on="1"/>
        <pt x="846" y="0" on="1"/>
        <pt x="846" y="707" on="1"/>
        <pt x="846" y="850" on="0"/>
        <pt x="738" y="987" on="0"/>
        <pt x="621" y="987" on="1"/>
        <pt x="500" y="987" on="0"/>
        <pt x="373" y="814" on="0"/>
        <pt x="373" y="655" on="1"/>
      </contour>
    </TTGlyph>
    <TTGlyph name="uni2D1A" xMin="57" yMin="-492" xMax="1253" yMax="1118">
      <contour>
        <pt x="424" y="-20" on="1"/>
        <pt x="424" y="-212" on="0"/>
        <pt x="550" y="-395" on="0"/>
        <pt x="678" y="-395" on="1"/>
        <pt x="779" y="-395" on="0"/>
        <pt x="882" y="-258" on="0"/>
        <pt x="897" y="-123" on="1"/>
        <pt x="958" y="-128" on="0"/>
        <pt x="1024" y="-202" on="0"/>
        <pt x="1024" y="-256" on="1"/>
        <pt x="1024" y="-321" on="0"/>
        <pt x="939" y="-429" on="0"/>
        <pt x="779" y="-492" on="0"/>
        <pt x="674" y="-492" on="1"/>
        <pt x="458" y="-492" on="0"/>
        <pt x="231" y="-223" on="0"/>
        <pt x="231" y="25" on="1"/>
        <pt x="231" y="872" on="1"/>
        <pt x="231" y="944" on="0"/>
        <pt x="156" y="1012" on="0"/>
        <pt x="66" y="1012" on="1"/>
        <pt x="57" y="1012" on="1"/>
        <pt x="57" y="1098" on="1"/>
        <pt x="389" y="1098" on="1"/>
        <pt x="416" y="932" on="1"/>
        <pt x="426" y="932" on="1"/>
        <pt x="479" y="1029" on="0"/>
        <pt x="626" y="1118" on="0"/>
        <pt x="745" y="1118" on="1"/>
        <pt x="1090" y="1118" on="0"/>
        <pt x="1090" y="717" on="1"/>
        <pt x="1090" y="233" on="1"/>
        <pt x="1090" y="157" on="0"/>
        <pt x="1154" y="86" on="0"/>
        <pt x="1245" y="86" on="1"/>
        <pt x="1253" y="86" on="1"/>
        <pt x="1253" y="0" on="1"/>
        <pt x="897" y="0" on="1"/>
        <pt x="897" y="707" on="1"/>
        <pt x="897" y="850" on="0"/>
        <pt x="789" y="987" on="0"/>
        <pt x="672" y="987" on="1"/>
        <pt x="552" y="987" on="0"/>
        <pt x="424" y="816" on="0"/>
        <pt x="424" y="655" on="1"/>
      </contour>
    </TTGlyph>
    <TTGlyph name="uni2D1B" xMin="113" yMin="-18" xMax="1825" yMax="1556">
      <contour>
        <pt x="1016" y="553" on="1"/>
        <pt x="1016" y="-18" on="0"/>
        <pt x="563" y="-18" on="1"/>
        <pt x="345" y="-18" on="0"/>
        <pt x="113" y="271" on="0"/>
        <pt x="113" y="547" on="1"/>
        <pt x="113" y="838" on="0"/>
        <pt x="313" y="1118" on="0"/>
        <pt x="520" y="1118" on="1"/>
        <pt x="621" y="1118" on="0"/>
        <pt x="770" y="1032" on="0"/>
        <pt x="823" y="936" on="1"/>
        <pt x="836" y="936" on="1"/>
        <pt x="823" y="1099" on="0"/>
        <pt x="823" y="1163" on="1"/>
        <pt x="823" y="1331" on="1"/>
        <pt x="823" y="1381" on="0"/>
        <pt x="788" y="1442" on="0"/>
        <pt x="721" y="1470" on="0"/>
        <pt x="655" y="1470" on="1"/>
        <pt x="639" y="1470" on="1"/>
        <pt x="639" y="1556" on="1"/>
        <pt x="1016" y="1556" on="1"/>
        <pt x="1016" y="1159" on="1"/>
        <pt x="1008" y="995" on="1"/>
        <pt x="1004" y="936" on="1"/>
        <pt x="1014" y="936" on="1"/>
        <pt x="1065" y="1031" on="0"/>
        <pt x="1204" y="1118" on="0"/>
        <pt x="1327" y="1118" on="1"/>
        <pt x="1661" y="1118" on="0"/>
        <pt x="1661" y="717" on="1"/>
        <pt x="1661" y="233" on="1"/>
        <pt x="1661" y="156" on="0"/>
        <pt x="1727" y="86" on="0"/>
        <pt x="1817" y="86" on="1"/>
        <pt x="1825" y="86" on="1"/>
        <pt x="1825" y="0" on="1"/>
        <pt x="1468" y="0" on="1"/>
        <pt x="1468" y="707" on="1"/>
        <pt x="1468" y="855" on="0"/>
        <pt x="1367" y="987" on="0"/>
        <pt x="1253" y="987" on="1"/>
        <pt x="1016" y="987" on="0"/>
        <pt x="1016" y="655" on="1"/>
      </contour>
      <contour>
        <pt x="823" y="551" on="1"/>
        <pt x="823" y="793" on="0"/>
        <pt x="697" y="987" on="0"/>
        <pt x="553" y="987" on="1"/>
        <pt x="428" y="987" on="0"/>
        <pt x="311" y="779" on="0"/>
        <pt x="311" y="545" on="1"/>
        <pt x="311" y="306" on="0"/>
        <pt x="434" y="86" on="0"/>
        <pt x="569" y="86" on="1"/>
        <pt x="702" y="86" on="0"/>
        <pt x="823" y="308" on="0"/>
      </contour>
    </TTGlyph>
    <TTGlyph name="uni2D1C" xMin="57" yMin="-502" xMax="1858" yMax="1118">
      <contour>
        <pt x="414" y="111" on="1"/>
        <pt x="414" y="-45" on="0"/>
        <pt x="481" y="-289" on="0"/>
        <pt x="565" y="-434" on="1"/>
        <pt x="479" y="-502" on="1"/>
        <pt x="355" y="-382" on="0"/>
        <pt x="221" y="-69" on="0"/>
        <pt x="221" y="117" on="1"/>
        <pt x="221" y="872" on="1"/>
        <pt x="221" y="945" on="0"/>
        <pt x="153" y="1012" on="0"/>
        <pt x="66" y="1012" on="1"/>
        <pt x="57" y="1012" on="1"/>
        <pt x="57" y="1098" on="1"/>
        <pt x="379" y="1098" on="1"/>
        <pt x="406" y="932" on="1"/>
        <pt x="416" y="932" on="1"/>
        <pt x="470" y="1032" on="0"/>
        <pt x="610" y="1118" on="0"/>
        <pt x="725" y="1118" on="1"/>
        <pt x="837" y="1118" on="0"/>
        <pt x="988" y="1023" on="0"/>
        <pt x="1022" y="932" on="1"/>
        <pt x="1038" y="932" on="1"/>
        <pt x="1091" y="1029" on="0"/>
        <pt x="1241" y="1118" on="0"/>
        <pt x="1360" y="1118" on="1"/>
        <pt x="1524" y="1118" on="0"/>
        <pt x="1694" y="918" on="0"/>
        <pt x="1694" y="717" on="1"/>
        <pt x="1694" y="233" on="1"/>
        <pt x="1694" y="157" on="0"/>
        <pt x="1758" y="86" on="0"/>
        <pt x="1849" y="86" on="1"/>
        <pt x="1858" y="86" on="1"/>
        <pt x="1858" y="0" on="1"/>
        <pt x="1501" y="0" on="1"/>
        <pt x="1501" y="707" on="1"/>
        <pt x="1501" y="850" on="0"/>
        <pt x="1397" y="987" on="0"/>
        <pt x="1286" y="987" on="1"/>
        <pt x="1175" y="987" on="0"/>
        <pt x="1059" y="830" on="0"/>
        <pt x="1059" y="682" on="1"/>
        <pt x="1059" y="233" on="1"/>
        <pt x="1059" y="157" on="0"/>
        <pt x="1123" y="86" on="0"/>
        <pt x="1214" y="86" on="1"/>
        <pt x="1223" y="86" on="1"/>
        <pt x="1223" y="0" on="1"/>
        <pt x="866" y="0" on="1"/>
        <pt x="866" y="707" on="1"/>
        <pt x="866" y="850" on="0"/>
        <pt x="762" y="987" on="0"/>
        <pt x="651" y="987" on="1"/>
        <pt x="535" y="987" on="0"/>
        <pt x="414" y="815" on="0"/>
        <pt x="414" y="655" on="1"/>
      </contour>
    </TTGlyph>
</ttFont>
